  0
SECTION
  2
HEADER
  9
$ACADVER
  1
AC1032
  9
$ACADMAINTVER
 90
       55
  9
$DWGCODEPAGE
  3
ANSI_1252
  9
$REQUIREDVERSIONS
160
                 0
  9
$INSBASE
 10
0.0
 20
0.0
 30
0.0
  9
$EXTMIN
 10
-0.3934910974421603
 20
0.0626866696208985
 30
0.0
  9
$EXTMAX
 10
4.106508902557838
 20
9.68760794876781
 30
0.0
  9
$LIMMIN
 10
0.0
 20
0.0
  9
$LIMMAX
 10
12.0
 20
9.0
  9
$ORTHOMODE
 70
     0
  9
$REGENMODE
 70
     1
  9
$FILLMODE
 70
     1
  9
$QTEXTMODE
 70
     0
  9
$MIRRTEXT
 70
     0
  9
$LTSCALE
 40
1.0
  9
$ATTMODE
 70
     1
  9
$TEXTSIZE
 40
0.2
  9
$TRACEWID
 40
0.05
  9
$TEXTSTYLE
  7
Standard
  9
$CLAYER
  8
0
  9
$CELTYPE
  6
ByLayer
  9
$CECOLOR
 62
   256
  9
$CELTSCALE
 40
1.0
  9
$DISPSILH
 70
     0
  9
$DIMSCALE
 40
1.0
  9
$DIMASZ
 40
0.18
  9
$DIMEXO
 40
0.0625
  9
$DIMDLI
 40
0.38
  9
$DIMRND
 40
0.0
  9
$DIMDLE
 40
0.0
  9
$DIMEXE
 40
0.18
  9
$DIMTP
 40
0.0
  9
$DIMTM
 40
0.0
  9
$DIMTXT
 40
0.18
  9
$DIMCEN
 40
0.09
  9
$DIMTSZ
 40
0.0
  9
$DIMTOL
 70
     0
  9
$DIMLIM
 70
     0
  9
$DIMTIH
 70
     1
  9
$DIMTOH
 70
     1
  9
$DIMSE1
 70
     0
  9
$DIMSE2
 70
     0
  9
$DIMTAD
 70
     0
  9
$DIMZIN
 70
     0
  9
$DIMBLK
  1

  9
$DIMASO
 70
     1
  9
$DIMSHO
 70
     1
  9
$DIMPOST
  1

  9
$DIMAPOST
  1

  9
$DIMALT
 70
     0
  9
$DIMALTD
 70
     2
  9
$DIMALTF
 40
25.4
  9
$DIMLFAC
 40
1.0
  9
$DIMTOFL
 70
     0
  9
$DIMTVP
 40
0.0
  9
$DIMTIX
 70
     0
  9
$DIMSOXD
 70
     0
  9
$DIMSAH
 70
     0
  9
$DIMBLK1
  1

  9
$DIMBLK2
  1

  9
$DIMSTYLE
  2
Standard
  9
$DIMCLRD
 70
     0
  9
$DIMCLRE
 70
     0
  9
$DIMCLRT
 70
     0
  9
$DIMTFAC
 40
1.0
  9
$DIMGAP
 40
0.09
  9
$DIMJUST
 70
     0
  9
$DIMSD1
 70
     0
  9
$DIMSD2
 70
     0
  9
$DIMTOLJ
 70
     1
  9
$DIMTZIN
 70
     0
  9
$DIMALTZ
 70
     0
  9
$DIMALTTZ
 70
     0
  9
$DIMUPT
 70
     0
  9
$DIMDEC
 70
     4
  9
$DIMTDEC
 70
     4
  9
$DIMALTU
 70
     4
  9
$DIMALTTD
 70
     2
  9
$DIMTXSTY
  7
Standard
  9
$DIMAUNIT
 70
     0
  9
$DIMADEC
 70
     0
  9
$DIMALTRND
 40
0.0
  9
$DIMAZIN
 70
     0
  9
$DIMDSEP
 70
    46
  9
$DIMATFIT
 70
     3
  9
$DIMFRAC
 70
     0
  9
$DIMLDRBLK
  1

  9
$DIMLUNIT
 70
     4
  9
$DIMLWD
 70
    -2
  9
$DIMLWE
 70
    -2
  9
$DIMTMOVE
 70
     0
  9
$DIMFXL
 40
1.0
  9
$DIMFXLON
 70
     0
  9
$DIMJOGANG
 40
0.7853981633974483
  9
$DIMTFILL
 70
     0
  9
$DIMTFILLCLR
 70
     0
  9
$DIMARCSYM
 70
     0
  9
$DIMLTYPE
  6

  9
$DIMLTEX1
  6

  9
$DIMLTEX2
  6

  9
$DIMTXTDIRECTION
 70
     0
  9
$LUNITS
 70
     4
  9
$LUPREC
 70
     4
  9
$SKETCHINC
 40
0.1
  9
$FILLETRAD
 40
0.0
  9
$AUNITS
 70
     0
  9
$AUPREC
 70
     0
  9
$MENU
  1
.
  9
$ELEVATION
 40
0.0
  9
$PELEVATION
 40
0.0
  9
$THICKNESS
 40
0.0
  9
$LIMCHECK
 70
     0
  9
$CHAMFERA
 40
0.0
  9
$CHAMFERB
 40
0.0
  9
$CHAMFERC
 40
0.0
  9
$CHAMFERD
 40
0.0
  9
$SKPOLY
 70
     0
  9
$TDCREATE
 40
2458513.508703703
  9
$TDUCREATE
 40
2458513.717037037
  9
$TDUPDATE
 40
2458513.508703703
  9
$TDUUPDATE
 40
2458513.717037037
  9
$TDINDWG
 40
0.0000462963
  9
$TDUSRTIMER
 40
0.0000462963
  9
$USRTIMER
 70
     1
  9
$ANGBASE
 50
0.0
  9
$ANGDIR
 70
     0
  9
$PDMODE
 70
     0
  9
$PDSIZE
 40
0.0
  9
$PLINEWID
 40
0.0
  9
$SPLFRAME
 70
     0
  9
$SPLINETYPE
 70
     6
  9
$SPLINESEGS
 70
     8
  9
$HANDSEED
  5
1C1
  9
$SURFTAB1
 70
     6
  9
$SURFTAB2
 70
     6
  9
$SURFTYPE
 70
     6
  9
$SURFU
 70
     6
  9
$SURFV
 70
     6
  9
$UCSBASE
  2

  9
$UCSNAME
  2

  9
$UCSORG
 10
0.0
 20
0.0
 30
0.0
  9
$UCSXDIR
 10
1.0
 20
0.0
 30
0.0
  9
$UCSYDIR
 10
0.0
 20
1.0
 30
0.0
  9
$UCSORTHOREF
  2

  9
$UCSORTHOVIEW
 70
     0
  9
$UCSORGTOP
 10
0.0
 20
0.0
 30
0.0
  9
$UCSORGBOTTOM
 10
0.0
 20
0.0
 30
0.0
  9
$UCSORGLEFT
 10
0.0
 20
0.0
 30
0.0
  9
$UCSORGRIGHT
 10
0.0
 20
0.0
 30
0.0
  9
$UCSORGFRONT
 10
0.0
 20
0.0
 30
0.0
  9
$UCSORGBACK
 10
0.0
 20
0.0
 30
0.0
  9
$PUCSBASE
  2

  9
$PUCSNAME
  2

  9
$PUCSORG
 10
0.0
 20
0.0
 30
0.0
  9
$PUCSXDIR
 10
1.0
 20
0.0
 30
0.0
  9
$PUCSYDIR
 10
0.0
 20
1.0
 30
0.0
  9
$PUCSORTHOREF
  2

  9
$PUCSORTHOVIEW
 70
     0
  9
$PUCSORGTOP
 10
0.0
 20
0.0
 30
0.0
  9
$PUCSORGBOTTOM
 10
0.0
 20
0.0
 30
0.0
  9
$PUCSORGLEFT
 10
0.0
 20
0.0
 30
0.0
  9
$PUCSORGRIGHT
 10
0.0
 20
0.0
 30
0.0
  9
$PUCSORGFRONT
 10
0.0
 20
0.0
 30
0.0
  9
$PUCSORGBACK
 10
0.0
 20
0.0
 30
0.0
  9
$USERI1
 70
     0
  9
$USERI2
 70
     0
  9
$USERI3
 70
     0
  9
$USERI4
 70
     0
  9
$USERI5
 70
     0
  9
$USERR1
 40
0.0
  9
$USERR2
 40
0.0
  9
$USERR3
 40
0.0
  9
$USERR4
 40
0.0
  9
$USERR5
 40
0.0
  9
$WORLDVIEW
 70
     1
  9
$SHADEDGE
 70
     3
  9
$SHADEDIF
 70
    70
  9
$TILEMODE
 70
     1
  9
$MAXACTVP
 70
    64
  9
$PINSBASE
 10
0.0
 20
0.0
 30
0.0
  9
$PLIMCHECK
 70
     0
  9
$PEXTMIN
 10
1.000000000000000E+20
 20
1.000000000000000E+20
 30
1.000000000000000E+20
  9
$PEXTMAX
 10
-1.000000000000000E+20
 20
-1.000000000000000E+20
 30
-1.000000000000000E+20
  9
$PLIMMIN
 10
0.0
 20
0.0
  9
$PLIMMAX
 10
12.0
 20
9.0
  9
$UNITMODE
 70
     0
  9
$VISRETAIN
 70
     1
  9
$PLINEGEN
 70
     0
  9
$PSLTSCALE
 70
     1
  9
$TREEDEPTH
 70
  3020
  9
$CMLSTYLE
  2
Standard
  9
$CMLJUST
 70
     0
  9
$CMLSCALE
 40
1.0
  9
$PROXYGRAPHICS
 70
     1
  9
$MEASUREMENT
 70
     0
  9
$CELWEIGHT
370
    -1
  9
$ENDCAPS
280
     0
  9
$JOINSTYLE
280
     0
  9
$LWDISPLAY
290
     0
  9
$INSUNITS
 70
     1
  9
$HYPERLINKBASE
  1

  9
$STYLESHEET
  1

  9
$XEDIT
290
     1
  9
$CEPSNTYPE
380
     0
  9
$PSTYLEMODE
290
     1
  9
$FINGERPRINTGUID
  2
{70FB8CFB-0693-0148-B1DB-F13854BD5D96}
  9
$VERSIONGUID
  2
{75943717-43CF-ED4C-813D-B146512F359C}
  9
$EXTNAMES
290
     1
  9
$PSVPSCALE
 40
0.0
  9
$OLESTARTUP
290
     0
  9
$SORTENTS
280
   127
  9
$INDEXCTL
280
     0
  9
$HIDETEXT
280
     1
  9
$XCLIPFRAME
280
     2
  9
$HALOGAP
280
     0
  9
$OBSCOLOR
 70
   257
  9
$OBSLTYPE
280
     0
  9
$INTERSECTIONDISPLAY
280
     0
  9
$INTERSECTIONCOLOR
 70
   257
  9
$DIMASSOC
280
     2
  9
$PROJECTNAME
  1

  9
$CAMERADISPLAY
290
     0
  9
$LENSLENGTH
 40
50.0
  9
$CAMERAHEIGHT
 40
0.0
  9
$STEPSPERSEC
 40
2.0
  9
$STEPSIZE
 40
6.0
  9
$3DDWFPREC
 40
2.0
  9
$PSOLWIDTH
 40
0.25
  9
$PSOLHEIGHT
 40
4.0
  9
$LOFTANG1
 40
1.570796326794896
  9
$LOFTANG2
 40
1.570796326794896
  9
$LOFTMAG1
 40
0.0
  9
$LOFTMAG2
 40
0.0
  9
$LOFTPARAM
 70
     7
  9
$LOFTNORMALS
280
     1
  9
$LATITUDE
 40
37.795
  9
$LONGITUDE
 40
-122.394
  9
$NORTHDIRECTION
 40
0.0
  9
$TIMEZONE
 70
 -8000
  9
$LIGHTGLYPHDISPLAY
280
     1
  9
$TILEMODELIGHTSYNCH
280
     1
  9
$CMATERIAL
347
11
  9
$SOLIDHIST
280
     0
  9
$SHOWHIST
280
     1
  9
$DWFFRAME
280
     2
  9
$DGNFRAME
280
     0
  9
$REALWORLDSCALE
290
     1
  9
$INTERFERECOLOR
 62
     1
  9
$INTERFEREOBJVS
345
33
  9
$INTERFEREVPVS
346
30
  9
$CSHADOW
280
     0
  9
$SHADOWPLANELOCATION
 40
0.0
  0
ENDSEC
  0
SECTION
  2
CLASSES
  0
CLASS
  1
ACDBDICTIONARYWDFLT
  2
AcDbDictionaryWithDefault
  3
ObjectDBX Classes
 90
        0
 91
        1
280
     0
281
     0
  0
CLASS
  1
MATERIAL
  2
AcDbMaterial
  3
ObjectDBX Classes
 90
     1153
 91
        3
280
     0
281
     0
  0
CLASS
  1
VISUALSTYLE
  2
AcDbVisualStyle
  3
ObjectDBX Classes
 90
     4095
 91
       24
280
     0
281
     0
  0
CLASS
  1
SCALE
  2
AcDbScale
  3
ObjectDBX Classes
 90
     1153
 91
       17
280
     0
281
     0
  0
CLASS
  1
TABLESTYLE
  2
AcDbTableStyle
  3
ObjectDBX Classes
 90
     4095
 91
        1
280
     0
281
     0
  0
CLASS
  1
MLEADERSTYLE
  2
AcDbMLeaderStyle
  3
ACDB_MLEADERSTYLE_CLASS
 90
     4095
 91
        1
280
     0
281
     0
  0
CLASS
  1
ACDBSECTIONVIEWSTYLE
  2
AcDbSectionViewStyle
  3
ObjectDBX Classes
 90
     1025
 91
        1
280
     0
281
     0
  0
CLASS
  1
ACDBDETAILVIEWSTYLE
  2
AcDbDetailViewStyle
  3
ObjectDBX Classes
 90
     1025
 91
        1
280
     0
281
     0
  0
CLASS
  1
RASTERVARIABLES
  2
AcDbRasterVariables
  3
ISM
 90
        0
 91
        1
280
     0
281
     0
  0
CLASS
  1
DICTIONARYVAR
  2
AcDbDictionaryVar
  3
ObjectDBX Classes
 90
        0
 91
        5
280
     0
281
     0
  0
CLASS
  1
CELLSTYLEMAP
  2
AcDbCellStyleMap
  3
ObjectDBX Classes
 90
     1152
 91
        2
280
     0
281
     0
  0
CLASS
  1
SORTENTSTABLE
  2
AcDbSortentsTable
  3
ObjectDBX Classes
 90
        0
 91
        1
280
     0
281
     0
  0
ENDSEC
  0
SECTION
  2
TABLES
  0
TABLE
  2
VPORT
  5
8
330
0
100
AcDbSymbolTable
 70
     1
  0
VPORT
  5
57
330
8
100
AcDbSymbolTableRecord
100
AcDbViewportTableRecord
  2
*Active
 70
     0
 10
0.0
 20
0.0
 11
1.0
 21
1.0
 12
1.856508902557839
 22
4.875147309194354
 13
0.0
 23
0.0
 14
1.0
 24
1.0
 15
0.0
 25
0.0
 16
0.0
 26
0.0
 36
1.0
 17
0.0
 27
0.0
 37
0.0
 40
9.624921279146912
 41
0.4675362914135802
 42
50.0
 43
0.0
 44
0.0
 50
0.0
 51
0.0
 71
     0
 72
  1000
 73
     1
 74
     0
 75
     1
 76
     0
 77
     0
 78
     0
281
     0
 65
     1
110
0.0
120
0.0
130
0.0
111
1.0
121
0.0
131
0.0
112
0.0
122
1.0
132
0.0
 79
     0
146
0.0
 60
     3
 61
     5
292
     1
282
     1
141
0.0
142
0.0
 63
   250
421
  3355443
  0
ENDTAB
  0
TABLE
  2
LTYPE
  5
5
330
0
100
AcDbSymbolTable
 70
     1
  0
LTYPE
  5
5B
330
5
100
AcDbSymbolTableRecord
100
AcDbLinetypeTableRecord
  2
ByBlock
 70
     0
  3

 72
    65
 73
     0
 40
0.0
  0
LTYPE
  5
5C
330
5
100
AcDbSymbolTableRecord
100
AcDbLinetypeTableRecord
  2
ByLayer
 70
     0
  3

 72
    65
 73
     0
 40
0.0
  0
LTYPE
  5
5D
330
5
100
AcDbSymbolTableRecord
100
AcDbLinetypeTableRecord
  2
Continuous
 70
     0
  3
Solid line
 72
    65
 73
     0
 40
0.0
  0
ENDTAB
  0
TABLE
  2
LAYER
  5
2
330
0
100
AcDbSymbolTable
 70
     2
  0
LAYER
  5
54
330
2
100
AcDbSymbolTableRecord
100
AcDbLayerTableRecord
  2
0
 70
     0
 62
     7
  6
Continuous
370
    -3
390
F
347
21
348
0
  0
LAYER
  5
84
330
2
100
AcDbSymbolTableRecord
100
AcDbLayerTableRecord
  2
A-DETL
 70
     0
 62
    90
  6
Continuous
370
     9
390
F
347
21
348
0
  0
ENDTAB
  0
TABLE
  2
STYLE
  5
3
330
0
100
AcDbSymbolTable
 70
     2
  0
STYLE
  5
55
330
3
100
AcDbSymbolTableRecord
100
AcDbTextStyleTableRecord
  2
Standard
 70
     0
 40
0.0
 41
1.0
 50
0.0
 71
     0
 42
0.2
  3
txt
  4

  0
STYLE
  5
5A
330
3
100
AcDbSymbolTableRecord
100
AcDbTextStyleTableRecord
  2
Annotative
 70
     0
 40
0.0
 41
1.0
 50
0.0
 71
     0
 42
0.2
  3
txt
  4

1001
AcadAnnotative
1000
AnnotativeData
1002
{
1070
     1
1070
     1
1002
}
  0
ENDTAB
  0
TABLE
  2
VIEW
  5
6
330
0
100
AcDbSymbolTable
 70
     0
  0
ENDTAB
  0
TABLE
  2
UCS
  5
7
330
0
100
AcDbSymbolTable
 70
     1
  0
UCS
  5
1B8
330
7
100
AcDbSymbolTableRecord
100
AcDbUCSTableRecord
  2
REVIT60-Internal
 70
     0
 10
0.0
 20
0.0
 30
0.0
 11
1.0
 21
0.0
 31
0.0
 12
0.0
 22
1.0
 32
0.0
 79
     0
146
0.0
  0
ENDTAB
  0
TABLE
  2
APPID
  5
9
330
0
100
AcDbSymbolTable
 70
     3
  0
APPID
  5
56
330
9
100
AcDbSymbolTableRecord
100
AcDbRegAppTableRecord
  2
ACAD
 70
     0
  0
APPID
  5
5E
330
9
100
AcDbSymbolTableRecord
100
AcDbRegAppTableRecord
  2
AcadAnnotative
 70
     0
  0
APPID
  5
78
330
9
100
AcDbSymbolTableRecord
100
AcDbRegAppTableRecord
  2
REVIT
 70
     0
  0
ENDTAB
  0
TABLE
  2
DIMSTYLE
  5
A
330
0
100
AcDbSymbolTable
 70
     2
100
AcDbDimStyleTable
 71
     0
  0
DIMSTYLE
105
58
330
A
100
AcDbSymbolTableRecord
100
AcDbDimStyleTableRecord
  2
Standard
 70
     0
340
55
  0
DIMSTYLE
105
59
330
A
100
AcDbSymbolTableRecord
100
AcDbDimStyleTableRecord
  2
Annotative
 70
     0
340
55
1001
AcadAnnotative
1000
AnnotativeData
1002
{
1070
     1
1070
     1
1002
}
  0
ENDTAB
  0
TABLE
  2
BLOCK_RECORD
  5
1
330
0
100
AcDbSymbolTable
 70
     1
  0
BLOCK_RECORD
  5
70
102
{ACAD_XDICTIONARY
360
1BC
102
}
330
1
100
AcDbSymbolTableRecord
100
AcDbBlockTableRecord
  2
*Model_Space
340
73
 70
     0
280
     1
281
     0
  0
BLOCK_RECORD
  5
6C
330
1
100
AcDbSymbolTableRecord
100
AcDbBlockTableRecord
  2
*Paper_Space
340
6F
 70
     0
280
     1
281
     0
  0
BLOCK_RECORD
  5
74
330
1
100
AcDbSymbolTableRecord
100
AcDbBlockTableRecord
  2
*Paper_Space0
340
77
 70
     0
280
     1
281
     0
  0
ENDTAB
  0
ENDSEC
  0
SECTION
  2
BLOCKS
  0
BLOCK
  5
71
330
70
100
AcDbEntity
  8
0
100
AcDbBlockBegin
  2
*Model_Space
 70
     0
 10
0.0
 20
0.0
 30
0.0
  3
*Model_Space
  1

  0
ENDBLK
  5
72
330
70
100
AcDbEntity
  8
0
100
AcDbBlockEnd
  0
BLOCK
  5
6D
330
6C
100
AcDbEntity
 67
     1
  8
0
100
AcDbBlockBegin
  2
*Paper_Space
 70
     0
 10
0.0
 20
0.0
 30
0.0
  3
*Paper_Space
  1

  0
ENDBLK
  5
6E
330
6C
100
AcDbEntity
 67
     1
  8
0
100
AcDbBlockEnd
  0
BLOCK
  5
75
330
74
100
AcDbEntity
 67
     1
  8
0
100
AcDbBlockBegin
  2
*Paper_Space0
 70
     0
 10
0.0
 20
0.0
 30
0.0
  3
*Paper_Space0
  1

  0
ENDBLK
  5
76
330
74
100
AcDbEntity
 67
     1
  8
0
100
AcDbBlockEnd
  0
ENDSEC
  0
SECTION
  2
ENTITIES
  0
LINE
  5
85
330
70
100
AcDbEntity
  8
A-DETL
100
AcDbLine
 10
2.118208750659343
 20
3.936572971270496
 30
0.0
 11
2.118208750659343
 21
4.186572971270497
 31
0.0
1001
REVIT
1002
{
1070
     1
1000
151266
1002
}
1002
{
1070
     2
1000
-2000051
1002
}
1002
{
1070
     3
1000
151248
1002
}
  0
LINE
  5
86
330
70
100
AcDbEntity
  8
A-DETL
100
AcDbLine
 10
2.118208750659343
 20
4.186572971270497
 30
0.0
 11
3.118208750659339
 21
4.186572971270497
 31
0.0
1001
REVIT
1002
{
1070
     1
1000
151267
1002
}
1002
{
1070
     2
1000
-2000051
1002
}
1002
{
1070
     3
1000
151248
1002
}
  0
LINE
  5
87
330
70
100
AcDbEntity
  8
A-DETL
100
AcDbLine
 10
3.118208750659339
 20
4.186572971270497
 30
0.0
 11
3.118208750659339
 21
3.936572971270496
 31
0.0
1001
REVIT
1002
{
1070
     1
1000
151268
1002
}
1002
{
1070
     2
1000
-2000051
1002
}
1002
{
1070
     3
1000
151248
1002
}
  0
LINE
  5
88
330
70
100
AcDbEntity
  8
A-DETL
100
AcDbLine
 10
3.118208750659339
 20
3.936572971270496
 30
0.0
 11
2.118208750659343
 21
3.936572971270496
 31
0.0
1001
REVIT
1002
{
1070
     1
1000
151269
1002
}
1002
{
1070
     2
1000
-2000051
1002
}
1002
{
1070
     3
1000
151248
1002
}
  0
LINE
  5
89
330
70
100
AcDbEntity
  8
A-DETL
100
AcDbLine
 10
2.118208828497276
 20
4.187596416085431
 30
0.0
 11
3.118208828497278
 21
4.187596416085431
 31
0.0
1001
REVIT
1002
{
1070
     1
1000
151270
1002
}
1002
{
1070
     2
1000
-2000051
1002
}
1002
{
1070
     3
1000
151250
1002
}
  0
LINE
  5
8A
330
70
100
AcDbEntity
  8
A-DETL
100
AcDbLine
 10
2.366208828497265
 20
4.687596416085413
 30
0.0
 11
2.869208828497293
 21
4.687596416085413
 31
0.0
1001
REVIT
1002
{
1070
     1
1000
151271
1002
}
1002
{
1070
     2
1000
-2000051
1002
}
1002
{
1070
     3
1000
151250
1002
}
  0
LINE
  5
8B
330
70
100
AcDbEntity
  8
A-DETL
100
AcDbLine
 10
2.366208828497265
 20
4.312596416085413
 30
0.0
 11
2.869208828497293
 21
4.312596416085413
 31
0.0
1001
REVIT
1002
{
1070
     1
1000
151272
1002
}
1002
{
1070
     2
1000
-2000051
1002
}
1002
{
1070
     3
1000
151250
1002
}
  0
LINE
  5
8C
330
70
100
AcDbEntity
  8
A-DETL
100
AcDbLine
 10
2.366208828497265
 20
4.187596416085431
 30
0.0
 11
2.366208828497265
 21
9.687607948767809
 31
0.0
1001
REVIT
1002
{
1070
     1
1000
151278
1002
}
1002
{
1070
     2
1000
-2000051
1002
}
1002
{
1070
     3
1000
151252
1002
}
  0
LINE
  5
8D
330
70
100
AcDbEntity
  8
A-DETL
100
AcDbLine
 10
2.869208828497293
 20
9.687607948767807
 30
0.0
 11
2.869208828497293
 21
4.187596416085431
 31
0.0
1001
REVIT
1002
{
1070
     1
1000
151279
1002
}
1002
{
1070
     2
1000
-2000051
1002
}
1002
{
1070
     3
1000
151252
1002
}
  0
LINE
  5
8E
330
70
100
AcDbEntity
  8
A-DETL
100
AcDbLine
 10
3.118208828497278
 20
4.187596416085431
 30
0.0
 11
3.118208828497278
 21
9.687607948767807
 31
0.0
1001
REVIT
1002
{
1070
     1
1000
151280
1002
}
1002
{
1070
     2
1000
-2000051
1002
}
1002
{
1070
     3
1000
151252
1002
}
  0
LINE
  5
8F
330
70
100
AcDbEntity
  8
A-DETL
100
AcDbLine
 10
2.118208828497276
 20
4.187596416085431
 30
0.0
 11
2.118208828497276
 21
9.68760794876781
 31
0.0
1001
REVIT
1002
{
1070
     1
1000
151281
1002
}
1002
{
1070
     2
1000
-2000051
1002
}
1002
{
1070
     3
1000
151252
1002
}
  0
ARC
  5
90
330
70
100
AcDbEntity
  8
A-DETL
100
AcDbCircle
 10
3.850954106792007
 20
0.7533916028891223
 30
0.0
 40
0.051199999999994
100
AcDbArc
 50
269.9999999999982
 51
359.6376290632443
1001
REVIT
1002
{
1070
     1
1000
151286
1002
}
1002
{
1070
     2
1000
-2000051
1002
}
1002
{
1070
     3
1000
151256
1002
}
  0
ARC
  5
91
330
70
100
AcDbEntity
  8
A-DETL
100
AcDbCircle
 10
3.301725562791948
 20
1.039883250889127
 30
0.0
 40
0.4095999999999553
100
AcDbArc
 50
212.9915266590696
 51
227.9942517372826
1001
REVIT
1002
{
1070
     1
1000
151289
1002
}
1002
{
1070
     2
1000
-2000051
1002
}
1002
{
1070
     3
1000
151256
1002
}
  0
ARC
  5
92
330
70
100
AcDbEntity
  8
A-DETL
100
AcDbCircle
 10
3.301725562791948
 20
1.039883250889127
 30
0.0
 40
0.3737599999999757
100
AcDbArc
 50
216.6359703529117
 51
323.3640296470861
1001
REVIT
1002
{
1070
     1
1000
151293
1002
}
1002
{
1070
     2
1000
-2000051
1002
}
1002
{
1070
     3
1000
151256
1002
}
  0
ARC
  5
93
330
70
100
AcDbEntity
  8
A-DETL
100
AcDbCircle
 10
3.301725562791948
 20
1.039883250889127
 30
0.0
 40
0.4095999999999553
100
AcDbArc
 50
232.3666554246659
 51
247.9942060043394
1001
REVIT
1002
{
1070
     1
1000
151294
1002
}
1002
{
1070
     2
1000
-2000051
1002
}
1002
{
1070
     3
1000
151256
1002
}
  0
ARC
  5
94
330
70
100
AcDbEntity
  8
A-DETL
100
AcDbCircle
 10
3.301725562791948
 20
1.039883250889127
 30
0.0
 40
0.4095999999999548
100
AcDbArc
 50
252.3666096116118
 51
267.8138090257231
1001
REVIT
1002
{
1070
     1
1000
151295
1002
}
1002
{
1070
     2
1000
-2000051
1002
}
1002
{
1070
     3
1000
151256
1002
}
  0
ARC
  5
95
330
70
100
AcDbEntity
  8
A-DETL
100
AcDbCircle
 10
3.301725562791948
 20
1.039883250889127
 30
0.0
 40
0.4095999999999546
100
AcDbArc
 50
272.1861909742749
 51
287.9941670521866
1001
REVIT
1002
{
1070
     1
1000
151297
1002
}
1002
{
1070
     2
1000
-2000051
1002
}
1002
{
1070
     3
1000
151256
1002
}
  0
ARC
  5
96
330
70
100
AcDbEntity
  8
A-DETL
100
AcDbCircle
 10
3.301725562791948
 20
1.039883250889127
 30
0.0
 40
0.4095999999999542
100
AcDbArc
 50
312.3666597833653
 51
327.008473340929
1001
REVIT
1002
{
1070
     1
1000
151298
1002
}
1002
{
1070
     2
1000
-2000051
1002
}
1002
{
1070
     3
1000
151256
1002
}
  0
ARC
  5
97
330
70
100
AcDbEntity
  8
A-DETL
100
AcDbCircle
 10
3.301725562791948
 20
1.039883250889127
 30
0.0
 40
0.4095999999999548
100
AcDbArc
 50
292.3665705981458
 51
307.994256116958
1001
REVIT
1002
{
1070
     1
1000
151299
1002
}
1002
{
1070
     2
1000
-2000051
1002
}
1002
{
1070
     3
1000
151256
1002
}
  0
LINE
  5
98
330
70
100
AcDbEntity
  8
A-DETL
100
AcDbLine
 10
3.842078135463586
 20
0.8680499068891172
 30
0.0
 11
2.773498713409979
 21
0.8680499068891254
 31
0.0
1001
REVIT
1002
{
1070
     1
1000
151300
1002
}
1002
{
1070
     2
1000
-2000051
1002
}
1002
{
1070
     3
1000
151256
1002
}
  0
LINE
  5
99
330
70
100
AcDbEntity
  8
A-DETL
100
AcDbLine
 10
3.645278015066904
 20
0.8168499068891177
 30
0.0
 11
3.763079546792043
 21
0.8168499068891133
 31
0.0
1001
REVIT
1002
{
1070
     1
1000
151301
1002
}
1002
{
1070
     2
1000
-2000051
1002
}
1002
{
1070
     3
1000
151256
1002
}
  0
LINE
  5
9A
330
70
100
AcDbEntity
  8
A-DETL
100
AcDbLine
 10
3.850954106792006
 20
0.7021916028891226
 30
0.0
 11
3.707593082791916
 21
0.7021916028891259
 31
0.0
1001
REVIT
1002
{
1070
     1
1000
151303
1002
}
1002
{
1070
     2
1000
-2000051
1002
}
1002
{
1070
     3
1000
151256
1002
}
  0
LINE
  5
9B
330
70
100
AcDbEntity
  8
A-DETL
100
AcDbLine
 10
3.707593082791916
 20
0.7021916028891259
 30
0.0
 11
3.707593082791822
 21
0.8037003337416829
 31
0.0
1001
REVIT
1002
{
1070
     1
1000
151304
1002
}
1002
{
1070
     2
1000
-2000051
1002
}
1002
{
1070
     3
1000
151256
1002
}
  0
LINE
  5
9C
330
70
100
AcDbEntity
  8
A-DETL
100
AcDbLine
 10
3.748553082791933
 20
0.7533916028891116
 30
0.0
 11
3.850954106792007
 21
0.7533916028891183
 31
0.0
1001
REVIT
1002
{
1070
     1
1000
151305
1002
}
1002
{
1070
     2
1000
-2000051
1002
}
1002
{
1070
     3
1000
151256
1002
}
  0
LINE
  5
9D
330
70
100
AcDbEntity
  8
A-DETL
100
AcDbLine
 10
3.850954106792007
 20
0.7533916028891183
 30
0.0
 11
3.850954106791951
 21
0.8762726268891272
 31
0.0
1001
REVIT
1002
{
1070
     1
1000
151306
1002
}
1002
{
1070
     2
1000
-2000051
1002
}
1002
{
1070
     3
1000
151256
1002
}
  0
LINE
  5
9E
330
70
100
AcDbEntity
  8
A-DETL
100
AcDbLine
 10
3.850954106791951
 20
0.8762726268891272
 30
0.0
 11
2.763464058791872
 21
0.8762726268891194
 31
0.0
1001
REVIT
1002
{
1070
     1
1000
151307
1002
}
1002
{
1070
     2
1000
-2000051
1002
}
1002
{
1070
     3
1000
151256
1002
}
  0
LINE
  5
9F
330
70
100
AcDbEntity
  8
A-DETL
100
AcDbLine
 10
2.763464058791872
 20
0.8762726268891194
 30
0.0
 11
2.763464058791929
 21
0.7533916028891169
 31
0.0
1001
REVIT
1002
{
1070
     1
1000
151308
1002
}
1002
{
1070
     2
1000
-2000051
1002
}
1002
{
1070
     3
1000
151256
1002
}
  0
LINE
  5
A0
330
70
100
AcDbEntity
  8
A-DETL
100
AcDbLine
 10
2.763464058791929
 20
0.7533916028891169
 30
0.0
 11
2.858010073144831
 21
0.7533916028891199
 31
0.0
1001
REVIT
1002
{
1070
     1
1000
151309
1002
}
1002
{
1070
     2
1000
-2000051
1002
}
1002
{
1070
     3
1000
151256
1002
}
  0
LINE
  5
A1
330
70
100
AcDbEntity
  8
A-DETL
100
AcDbLine
 10
3.902153082791969
 20
0.7530677872707626
 30
0.0
 11
3.902153082791878
 21
0.9377126268891142
 31
0.0
1001
REVIT
1002
{
1070
     1
1000
151310
1002
}
1002
{
1070
     2
1000
-2000051
1002
}
1002
{
1070
     3
1000
151256
1002
}
  0
LINE
  5
A2
330
70
100
AcDbEntity
  8
A-DETL
100
AcDbLine
 10
2.840371578791849
 20
0.8168499068891177
 30
0.0
 11
2.958173110516989
 21
0.8168499068891222
 31
0.0
1001
REVIT
1002
{
1070
     1
1000
151312
1002
}
1002
{
1070
     2
1000
-2000051
1002
}
1002
{
1070
     3
1000
151256
1002
}
  0
LINE
  5
A3
330
70
100
AcDbEntity
  8
A-DETL
100
AcDbLine
 10
2.90682508279184
 20
0.803700333741693
 30
0.0
 11
2.906825082791936
 21
0.7021916028891226
 31
0.0
1001
REVIT
1002
{
1070
     1
1000
151313
1002
}
1002
{
1070
     2
1000
-2000051
1002
}
1002
{
1070
     3
1000
151256
1002
}
  0
LINE
  5
A4
330
70
100
AcDbEntity
  8
A-DETL
100
AcDbLine
 10
2.906825082791936
 20
0.7021916028891226
 30
0.0
 11
2.712265082791883
 21
0.7021916028891163
 31
0.0
1001
REVIT
1002
{
1070
     1
1000
151314
1002
}
1002
{
1070
     2
1000
-2000051
1002
}
1002
{
1070
     3
1000
151256
1002
}
  0
LINE
  5
A5
330
70
100
AcDbEntity
  8
A-DETL
100
AcDbLine
 10
2.712265082791883
 20
0.7021916028891163
 30
0.0
 11
2.712265082791984
 21
0.9377126268891194
 31
0.0
1001
REVIT
1002
{
1070
     1
1000
151315
1002
}
1002
{
1070
     2
1000
-2000051
1002
}
1002
{
1070
     3
1000
151256
1002
}
  0
LINE
  5
A6
330
70
100
AcDbEntity
  8
A-DETL
100
AcDbLine
 10
3.553868144311632
 20
0.7170887673790271
 30
0.0
 11
3.664258426791867
 21
0.5855303548891135
 31
0.0
1001
REVIT
1002
{
1070
     1
1000
151322
1002
}
1002
{
1070
     2
1000
-2000051
1002
}
1002
{
1070
     3
1000
151256
1002
}
  0
LINE
  5
A7
330
70
100
AcDbEntity
  8
A-DETL
100
AcDbLine
 10
3.001804464727544
 20
0.8168499068891231
 30
0.0
 11
3.601646660856346
 21
0.8168499068891152
 31
0.0
1001
REVIT
1002
{
1070
     1
1000
151324
1002
}
1002
{
1070
     2
1000
-2000051
1002
}
1002
{
1070
     3
1000
151256
1002
}
  0
LINE
  5
A8
330
70
100
AcDbEntity
  8
A-DETL
100
AcDbLine
 10
2.712265082791984
 20
0.9377126268891194
 30
0.0
 11
3.902153082791878
 21
0.9377126268891142
 31
0.0
1001
REVIT
1002
{
1070
     1
1000
151325
1002
}
1002
{
1070
     2
1000
-2000051
1002
}
1002
{
1070
     3
1000
151258
1002
}
  0
ARC
  5
A9
330
70
100
AcDbEntity
  8
A-DETL
100
AcDbCircle
 10
0.7165089025578385
 20
0.5626532523544192
 30
0.0
 40
0.0937500000000001
100
AcDbArc
 50
180.0
 51
359.9999999999996
1001
REVIT
1002
{
1070
     1
1000
151360
1002
}
1002
{
1070
     2
1000
-2000051
1002
}
1002
{
1070
     3
1000
151260
1002
}
  0
ARC
  5
AA
330
70
100
AcDbEntity
  8
A-DETL
100
AcDbCircle
 10
1.096508902557841
 20
0.5626532523544192
 30
0.0
 40
0.09375
100
AcDbArc
 50
180.0
 51
0.0
1001
REVIT
1002
{
1070
     1
1000
151361
1002
}
1002
{
1070
     2
1000
-2000051
1002
}
1002
{
1070
     3
1000
151260
1002
}
  0
ARC
  5
AB
330
70
100
AcDbEntity
  8
A-DETL
100
AcDbCircle
 10
1.476508902557836
 20
0.5626532523544192
 30
0.0
 40
0.0937500000000001
100
AcDbArc
 50
179.9999999999999
 51
359.9999999999996
1001
REVIT
1002
{
1070
     1
1000
151362
1002
}
1002
{
1070
     2
1000
-2000051
1002
}
1002
{
1070
     3
1000
151260
1002
}
  0
ARC
  5
AC
330
70
100
AcDbEntity
  8
A-DETL
100
AcDbCircle
 10
1.856508902557839
 20
0.5626532523544192
 30
0.0
 40
0.09375
100
AcDbArc
 50
180.0
 51
0.0
1001
REVIT
1002
{
1070
     1
1000
151363
1002
}
1002
{
1070
     2
1000
-2000051
1002
}
1002
{
1070
     3
1000
151260
1002
}
  0
ARC
  5
AD
330
70
100
AcDbEntity
  8
A-DETL
100
AcDbCircle
 10
2.236508902557841
 20
0.5626532523544192
 30
0.0
 40
0.09375
100
AcDbArc
 50
180.0
 51
0.0
1001
REVIT
1002
{
1070
     1
1000
151364
1002
}
1002
{
1070
     2
1000
-2000051
1002
}
1002
{
1070
     3
1000
151260
1002
}
  0
LINE
  5
AE
330
70
100
AcDbEntity
  8
A-DETL
100
AcDbLine
 10
3.981508902557838
 20
0.1012170615164595
 30
0.0
 11
3.29864183502642
 21
0.3751532523544192
 31
0.0
1001
REVIT
1002
{
1070
     1
1000
151366
1002
}
1002
{
1070
     2
1000
-2000051
1002
}
1002
{
1070
     3
1000
151260
1002
}
  0
LINE
  5
AF
330
70
100
AcDbEntity
  8
A-DETL
100
AcDbLine
 10
3.29864183502642
 20
0.3751532523544192
 30
0.0
 11
1.156565719914799
 21
0.3751532523544192
 31
0.0
1001
REVIT
1002
{
1070
     1
1000
151367
1002
}
1002
{
1070
     2
1000
-2000051
1002
}
1002
{
1070
     3
1000
151260
1002
}
  0
LINE
  5
B0
330
70
100
AcDbEntity
  8
A-DETL
100
AcDbLine
 10
1.156565719914799
 20
0.3751532523544192
 30
0.0
 11
1.156565719914799
 21
0.0703786083414677
 31
0.0
1001
REVIT
1002
{
1070
     1
1000
151368
1002
}
1002
{
1070
     2
1000
-2000051
1002
}
1002
{
1070
     3
1000
151260
1002
}
  0
LINE
  5
B1
330
70
100
AcDbEntity
  8
A-DETL
100
AcDbLine
 10
1.156565719914799
 20
0.0703786083414677
 30
0.0
 11
1.056452085200878
 21
0.0703786083414677
 31
0.0
1001
REVIT
1002
{
1070
     1
1000
151369
1002
}
1002
{
1070
     2
1000
-2000051
1002
}
1002
{
1070
     3
1000
151260
1002
}
  0
LINE
  5
B2
330
70
100
AcDbEntity
  8
A-DETL
100
AcDbLine
 10
1.056452085200878
 20
0.0703786083414677
 30
0.0
 11
1.056452085200878
 21
0.3751532523544192
 31
0.0
1001
REVIT
1002
{
1070
     1
1000
151370
1002
}
1002
{
1070
     2
1000
-2000051
1002
}
1002
{
1070
     3
1000
151260
1002
}
  0
LINE
  5
B3
330
70
100
AcDbEntity
  8
A-DETL
100
AcDbLine
 10
1.056452085200878
 20
0.3751532523544192
 30
0.0
 11
0.4143759700892636
 21
0.3751532523544192
 31
0.0
1001
REVIT
1002
{
1070
     1
1000
151371
1002
}
1002
{
1070
     2
1000
-2000051
1002
}
1002
{
1070
     3
1000
151260
1002
}
  0
LINE
  5
B4
330
70
100
AcDbEntity
  8
A-DETL
100
AcDbLine
 10
0.4143759700892636
 20
0.3751532523544192
 30
0.0
 11
-0.2684910974421609
 21
0.1012170615164592
 31
0.0
1001
REVIT
1002
{
1070
     1
1000
151372
1002
}
1002
{
1070
     2
1000
-2000051
1002
}
1002
{
1070
     3
1000
151260
1002
}
  0
LINE
  5
B5
330
70
100
AcDbEntity
  8
A-DETL
100
AcDbLine
 10
-0.2684910974421608
 20
0.0626866696208985
 30
0.0
 11
-0.3934910974421603
 21
0.0626866696208985
 31
0.0
1001
REVIT
1002
{
1070
     1
1000
151373
1002
}
1002
{
1070
     2
1000
-2000051
1002
}
1002
{
1070
     3
1000
151260
1002
}
  0
LINE
  5
B6
330
70
100
AcDbEntity
  8
A-DETL
100
AcDbLine
 10
-0.3934910974421603
 20
0.0626866696208985
 30
0.0
 11
-0.3934910974421603
 21
0.18575541797696
 31
0.0
1001
REVIT
1002
{
1070
     1
1000
151374
1002
}
1002
{
1070
     2
1000
-2000051
1002
}
1002
{
1070
     3
1000
151260
1002
}
  0
LINE
  5
B7
330
70
100
AcDbEntity
  8
A-DETL
100
AcDbLine
 10
-0.3934910974421603
 20
0.18575541797696
 30
0.0
 11
0.546038353314165
 21
0.5626532523544193
 31
0.0
1001
REVIT
1002
{
1070
     1
1000
151375
1002
}
1002
{
1070
     2
1000
-2000051
1002
}
1002
{
1070
     3
1000
151260
1002
}
  0
LINE
  5
B8
330
70
100
AcDbEntity
  8
A-DETL
100
AcDbLine
 10
0.5460383533141647
 20
0.5626532523544192
 30
0.0
 11
0.6227589025578385
 21
0.5626532523544192
 31
0.0
1001
REVIT
1002
{
1070
     1
1000
151376
1002
}
1002
{
1070
     2
1000
-2000051
1002
}
1002
{
1070
     3
1000
151260
1002
}
  0
LINE
  5
B9
330
70
100
AcDbEntity
  8
A-DETL
100
AcDbLine
 10
0.8102589025578385
 20
0.5626532523544192
 30
0.0
 11
1.002758902557841
 21
0.5626532523544192
 31
0.0
1001
REVIT
1002
{
1070
     1
1000
151377
1002
}
1002
{
1070
     2
1000
-2000051
1002
}
1002
{
1070
     3
1000
151260
1002
}
  0
LINE
  5
BA
330
70
100
AcDbEntity
  8
A-DETL
100
AcDbLine
 10
1.190258902557841
 20
0.5626532523544192
 30
0.0
 11
1.382758902557836
 21
0.5626532523544192
 31
0.0
1001
REVIT
1002
{
1070
     1
1000
151378
1002
}
1002
{
1070
     2
1000
-2000051
1002
}
1002
{
1070
     3
1000
151260
1002
}
  0
LINE
  5
BB
330
70
100
AcDbEntity
  8
A-DETL
100
AcDbLine
 10
1.570258902557836
 20
0.5626532523544192
 30
0.0
 11
1.762758902557839
 21
0.5626532523544192
 31
0.0
1001
REVIT
1002
{
1070
     1
1000
151379
1002
}
1002
{
1070
     2
1000
-2000051
1002
}
1002
{
1070
     3
1000
151260
1002
}
  0
LINE
  5
BC
330
70
100
AcDbEntity
  8
A-DETL
100
AcDbLine
 10
1.950258902557839
 20
0.5626532523544192
 30
0.0
 11
2.142758902557841
 21
0.5626532523544192
 31
0.0
1001
REVIT
1002
{
1070
     1
1000
151380
1002
}
1002
{
1070
     2
1000
-2000051
1002
}
1002
{
1070
     3
1000
151260
1002
}
  0
LINE
  5
BD
330
70
100
AcDbEntity
  8
A-DETL
100
AcDbLine
 10
2.330258902557841
 20
0.5626532523544192
 30
0.0
 11
3.166979451801525
 21
0.5626532523544192
 31
0.0
1001
REVIT
1002
{
1070
     1
1000
151381
1002
}
1002
{
1070
     2
1000
-2000051
1002
}
1002
{
1070
     3
1000
151260
1002
}
  0
LINE
  5
BE
330
70
100
AcDbEntity
  8
A-DETL
100
AcDbLine
 10
3.166979451801525
 20
0.5626532523544192
 30
0.0
 11
4.106508902557838
 21
0.1857554179769603
 31
0.0
1001
REVIT
1002
{
1070
     1
1000
151382
1002
}
1002
{
1070
     2
1000
-2000051
1002
}
1002
{
1070
     3
1000
151260
1002
}
  0
LINE
  5
BF
330
70
100
AcDbEntity
  8
A-DETL
100
AcDbLine
 10
4.106508902557838
 20
0.1857554179769603
 30
0.0
 11
4.106508902557838
 21
0.0626866696208985
 31
0.0
1001
REVIT
1002
{
1070
     1
1000
151383
1002
}
1002
{
1070
     2
1000
-2000051
1002
}
1002
{
1070
     3
1000
151260
1002
}
  0
LINE
  5
C0
330
70
100
AcDbEntity
  8
A-DETL
100
AcDbLine
 10
4.106508902557838
 20
0.0626866696208985
 30
0.0
 11
3.981508902557838
 21
0.0626866696208985
 31
0.0
1001
REVIT
1002
{
1070
     1
1000
151384
1002
}
1002
{
1070
     2
1000
-2000051
1002
}
1002
{
1070
     3
1000
151260
1002
}
  0
LINE
  5
C1
330
70
100
AcDbEntity
  8
A-DETL
100
AcDbLine
 10
3.981322226730199
 20
1.6217157416476
 30
0.0
 11
3.981322226730199
 21
1.811715741647589
 31
0.0
1001
REVIT
1002
{
1070
     1
1000
151392
1002
}
1002
{
1070
     2
1000
-2000051
1002
}
1002
{
1070
     3
1000
151262
1002
}
  0
LINE
  5
C2
330
70
100
AcDbEntity
  8
A-DETL
100
AcDbLine
 10
3.981322226730199
 20
1.811715741647589
 30
0.0
 11
3.856508485448116
 21
1.811715741647589
 31
0.0
1001
REVIT
1002
{
1070
     1
1000
151393
1002
}
1002
{
1070
     2
1000
-2000051
1002
}
1002
{
1070
     3
1000
151262
1002
}
  0
LINE
  5
C3
330
70
100
AcDbEntity
  8
A-DETL
100
AcDbLine
 10
3.856508485448116
 20
1.811715741647589
 30
0.0
 11
3.856508485448116
 21
1.936715741647589
 31
0.0
1001
REVIT
1002
{
1070
     1
1000
151394
1002
}
1002
{
1070
     2
1000
-2000051
1002
}
1002
{
1070
     3
1000
151262
1002
}
  0
LINE
  5
C4
330
70
100
AcDbEntity
  8
A-DETL
100
AcDbLine
 10
3.856508485448116
 20
1.936715741647589
 30
0.0
 11
3.981508485448116
 21
1.936715741647589
 31
0.0
1001
REVIT
1002
{
1070
     1
1000
151395
1002
}
1002
{
1070
     2
1000
-2000051
1002
}
1002
{
1070
     3
1000
151262
1002
}
  0
LINE
  5
C5
330
70
100
AcDbEntity
  8
A-DETL
100
AcDbLine
 10
3.981508485448116
 20
1.936715741647589
 30
0.0
 11
3.981508485448116
 21
3.686686857644583
 31
0.0
1001
REVIT
1002
{
1070
     1
1000
151396
1002
}
1002
{
1070
     2
1000
-2000051
1002
}
1002
{
1070
     3
1000
151262
1002
}
  0
LINE
  5
C6
330
70
100
AcDbEntity
  8
A-DETL
100
AcDbLine
 10
3.981508485448116
 20
3.686686857644583
 30
0.0
 11
3.653508347852633
 21
3.686686857644583
 31
0.0
1001
REVIT
1002
{
1070
     1
1000
151397
1002
}
1002
{
1070
     2
1000
-2000051
1002
}
1002
{
1070
     3
1000
151262
1002
}
  0
LINE
  5
C7
330
70
100
AcDbEntity
  8
A-DETL
100
AcDbLine
 10
3.653508347852633
 20
3.686686857644583
 30
0.0
 11
3.653508347852633
 21
1.811715741647589
 31
0.0
1001
REVIT
1002
{
1070
     1
1000
151398
1002
}
1002
{
1070
     2
1000
-2000051
1002
}
1002
{
1070
     3
1000
151262
1002
}
  0
LINE
  5
C8
330
70
100
AcDbEntity
  8
A-DETL
100
AcDbLine
 10
3.653508347852633
 20
1.811715741647589
 30
0.0
 11
3.4563222267302
 21
1.811715741647589
 31
0.0
1001
REVIT
1002
{
1070
     1
1000
151399
1002
}
1002
{
1070
     2
1000
-2000051
1002
}
1002
{
1070
     3
1000
151262
1002
}
  0
LINE
  5
C9
330
70
100
AcDbEntity
  8
A-DETL
100
AcDbLine
 10
3.4563222267302
 20
1.811715741647589
 30
0.0
 11
3.4563222267302
 21
1.6217157416476
 31
0.0
1001
REVIT
1002
{
1070
     1
1000
151400
1002
}
1002
{
1070
     2
1000
-2000051
1002
}
1002
{
1070
     3
1000
151262
1002
}
  0
LINE
  5
CA
330
70
100
AcDbEntity
  8
A-DETL
100
AcDbLine
 10
3.4563222267302
 20
1.6217157416476
 30
0.0
 11
3.981322226730199
 21
1.6217157416476
 31
0.0
1001
REVIT
1002
{
1070
     1
1000
151401
1002
}
1002
{
1070
     2
1000
-2000051
1002
}
1002
{
1070
     3
1000
151262
1002
}
  0
LINE
  5
CB
330
70
100
AcDbEntity
  8
A-DETL
100
AcDbLine
 10
3.981508485448116
 20
1.125698746537004
 30
0.0
 11
2.814508274433566
 21
1.125698746537004
 31
0.0
1001
REVIT
1002
{
1070
     1
1000
151402
1002
}
1002
{
1070
     2
1000
-2000051
1002
}
1002
{
1070
     3
1000
151262
1002
}
  0
LINE
  5
CC
330
70
100
AcDbEntity
  8
A-DETL
100
AcDbLine
 10
2.814508274433566
 20
1.125698746537004
 30
0.0
 11
2.814508274433566
 21
1.49654457696883
 31
0.0
1001
REVIT
1002
{
1070
     1
1000
151403
1002
}
1002
{
1070
     2
1000
-2000051
1002
}
1002
{
1070
     3
1000
151262
1002
}
  0
LINE
  5
CD
330
70
100
AcDbEntity
  8
A-DETL
100
AcDbLine
 10
2.814508274433566
 20
1.49654457696883
 30
0.0
 11
3.981508485448116
 21
1.49654457696883
 31
0.0
1001
REVIT
1002
{
1070
     1
1000
151404
1002
}
1002
{
1070
     2
1000
-2000051
1002
}
1002
{
1070
     3
1000
151262
1002
}
  0
LINE
  5
CE
330
70
100
AcDbEntity
  8
A-DETL
100
AcDbLine
 10
3.981508485448116
 20
1.49654457696883
 30
0.0
 11
3.981508485448116
 21
1.125698746537004
 31
0.0
1001
REVIT
1002
{
1070
     1
1000
151405
1002
}
1002
{
1070
     2
1000
-2000051
1002
}
1002
{
1070
     3
1000
151262
1002
}
  0
LINE
  5
CF
330
70
100
AcDbEntity
  8
A-DETL
100
AcDbLine
 10
3.42505747909545
 20
3.936596993856194
 30
0.0
 11
2.889106886168949
 21
3.936596993856194
 31
0.0
1001
REVIT
1002
{
1070
     1
1000
151406
1002
}
1002
{
1070
     2
1000
-2000051
1002
}
1002
{
1070
     3
1000
151262
1002
}
  0
LINE
  5
D0
330
70
100
AcDbEntity
  8
A-DETL
100
AcDbLine
 10
2.889106886168947
 20
3.936596993856194
 30
0.0
 11
2.841854966119146
 21
3.927382532058397
 31
0.0
1001
REVIT
1002
{
1070
     1
1000
151407
1002
}
1002
{
1070
     2
1000
-2000051
1002
}
1002
{
1070
     3
1000
151262
1002
}
  0
LINE
  5
D1
330
70
100
AcDbEntity
  8
A-DETL
100
AcDbLine
 10
2.841854966119147
 20
3.927382532058397
 30
0.0
 11
2.749734522080738
 21
3.972356152329041
 31
0.0
1001
REVIT
1002
{
1070
     1
1000
151408
1002
}
1002
{
1070
     2
1000
-2000051
1002
}
1002
{
1070
     3
1000
151262
1002
}
  0
LINE
  5
D2
330
70
100
AcDbEntity
  8
A-DETL
100
AcDbLine
 10
2.749734522080738
 20
3.972356152329041
 30
0.0
 11
2.760896300897662
 21
3.844997265662769
 31
0.0
1001
REVIT
1002
{
1070
     1
1000
151409
1002
}
1002
{
1070
     2
1000
-2000051
1002
}
1002
{
1070
     3
1000
151262
1002
}
  0
LINE
  5
D3
330
70
100
AcDbEntity
  8
A-DETL
100
AcDbLine
 10
2.760896300897662
 20
3.844997265662769
 30
0.0
 11
2.889106886168949
 21
3.879371876290772
 31
0.0
1001
REVIT
1002
{
1070
     1
1000
151410
1002
}
1002
{
1070
     2
1000
-2000051
1002
}
1002
{
1070
     3
1000
151262
1002
}
  0
LINE
  5
D4
330
70
100
AcDbEntity
  8
A-DETL
100
AcDbLine
 10
2.889106886168949
 20
3.879371876290772
 30
0.0
 11
2.889106886168949
 21
3.669791954069505
 31
0.0
1001
REVIT
1002
{
1070
     1
1000
151411
1002
}
1002
{
1070
     2
1000
-2000051
1002
}
1002
{
1070
     3
1000
151262
1002
}
  0
LINE
  5
D5
330
70
100
AcDbEntity
  8
A-DETL
100
AcDbLine
 10
2.889106886168949
 20
3.669791954069505
 30
0.0
 11
2.790710510849496
 21
3.726601127847256
 31
0.0
1001
REVIT
1002
{
1070
     1
1000
151412
1002
}
1002
{
1070
     2
1000
-2000051
1002
}
1002
{
1070
     3
1000
151262
1002
}
  0
LINE
  5
D6
330
70
100
AcDbEntity
  8
A-DETL
100
AcDbLine
 10
2.790710510849496
 20
3.726601127847256
 30
0.0
 11
2.790710510849496
 21
3.582554711407611
 31
0.0
1001
REVIT
1002
{
1070
     1
1000
151413
1002
}
1002
{
1070
     2
1000
-2000051
1002
}
1002
{
1070
     3
1000
151262
1002
}
  0
LINE
  5
D7
330
70
100
AcDbEntity
  8
A-DETL
100
AcDbLine
 10
2.790710510849496
 20
3.582554711407611
 30
0.0
 11
3.528508347852603
 21
3.582554711407611
 31
0.0
1001
REVIT
1002
{
1070
     1
1000
151414
1002
}
1002
{
1070
     2
1000
-2000051
1002
}
1002
{
1070
     3
1000
151262
1002
}
  0
LINE
  5
D8
330
70
100
AcDbEntity
  8
A-DETL
100
AcDbLine
 10
3.528508347852603
 20
3.582554711407611
 30
0.0
 11
3.528508347852603
 21
2.944390977986177
 31
0.0
1001
REVIT
1002
{
1070
     1
1000
151415
1002
}
1002
{
1070
     2
1000
-2000051
1002
}
1002
{
1070
     3
1000
151262
1002
}
  0
LINE
  5
D9
330
70
100
AcDbEntity
  8
A-DETL
100
AcDbLine
 10
3.528508347852603
 20
2.944390977986177
 30
0.0
 11
3.47326929431244
 21
2.906715803969223
 31
0.0
1001
REVIT
1002
{
1070
     1
1000
151416
1002
}
1002
{
1070
     2
1000
-2000051
1002
}
1002
{
1070
     3
1000
151262
1002
}
  0
LINE
  5
DA
330
70
100
AcDbEntity
  8
A-DETL
100
AcDbLine
 10
3.47326929431244
 20
2.906715803969223
 30
0.0
 11
3.528508347852489
 21
2.869064993385154
 31
0.0
1001
REVIT
1002
{
1070
     1
1000
151417
1002
}
1002
{
1070
     2
1000
-2000051
1002
}
1002
{
1070
     3
1000
151262
1002
}
  0
LINE
  5
DB
330
70
100
AcDbEntity
  8
A-DETL
100
AcDbLine
 10
3.528508347852489
 20
2.869064993385154
 30
0.0
 11
3.528508347852489
 21
2.284366552231657
 31
0.0
1001
REVIT
1002
{
1070
     1
1000
151418
1002
}
1002
{
1070
     2
1000
-2000051
1002
}
1002
{
1070
     3
1000
151262
1002
}
  0
LINE
  5
DC
330
70
100
AcDbEntity
  8
A-DETL
100
AcDbLine
 10
3.528508347852489
 20
2.284366552231657
 30
0.0
 11
3.47326929431244
 21
2.246715741647589
 31
0.0
1001
REVIT
1002
{
1070
     1
1000
151419
1002
}
1002
{
1070
     2
1000
-2000051
1002
}
1002
{
1070
     3
1000
151262
1002
}
  0
LINE
  5
DD
330
70
100
AcDbEntity
  8
A-DETL
100
AcDbLine
 10
3.47326929431244
 20
2.246715741647589
 30
0.0
 11
3.528508347852489
 21
2.209040567630748
 31
0.0
1001
REVIT
1002
{
1070
     1
1000
151420
1002
}
1002
{
1070
     2
1000
-2000051
1002
}
1002
{
1070
     3
1000
151262
1002
}
  0
LINE
  5
DE
330
70
100
AcDbEntity
  8
A-DETL
100
AcDbLine
 10
3.528508347852489
 20
2.209040567630748
 30
0.0
 11
3.528508347852489
 21
1.936715741647589
 31
0.0
1001
REVIT
1002
{
1070
     1
1000
151421
1002
}
1002
{
1070
     2
1000
-2000051
1002
}
1002
{
1070
     3
1000
151262
1002
}
  0
LINE
  5
DF
330
70
100
AcDbEntity
  8
A-DETL
100
AcDbLine
 10
3.528508347852489
 20
1.936715741647589
 30
0.0
 11
2.826508485448115
 21
1.936715741647589
 31
0.0
1001
REVIT
1002
{
1070
     1
1000
151422
1002
}
1002
{
1070
     2
1000
-2000051
1002
}
1002
{
1070
     3
1000
151262
1002
}
  0
LINE
  5
E0
330
70
100
AcDbEntity
  8
A-DETL
100
AcDbLine
 10
2.826508485448115
 20
1.936715741647589
 30
0.0
 11
2.826508485448115
 21
1.811715741647588
 31
0.0
1001
REVIT
1002
{
1070
     1
1000
151423
1002
}
1002
{
1070
     2
1000
-2000051
1002
}
1002
{
1070
     3
1000
151262
1002
}
  0
LINE
  5
E1
330
70
100
AcDbEntity
  8
A-DETL
100
AcDbLine
 10
2.826508485448115
 20
1.811715741647588
 30
0.0
 11
3.331270701804888
 21
1.811715741647588
 31
0.0
1001
REVIT
1002
{
1070
     1
1000
151424
1002
}
1002
{
1070
     2
1000
-2000051
1002
}
1002
{
1070
     3
1000
151262
1002
}
  0
LINE
  5
E2
330
70
100
AcDbEntity
  8
A-DETL
100
AcDbLine
 10
3.331270701804888
 20
1.811715741647588
 30
0.0
 11
3.331270701804888
 21
1.621715741200068
 31
0.0
1001
REVIT
1002
{
1070
     1
1000
151425
1002
}
1002
{
1070
     2
1000
-2000051
1002
}
1002
{
1070
     3
1000
151262
1002
}
  0
LINE
  5
E3
330
70
100
AcDbEntity
  8
A-DETL
100
AcDbLine
 10
3.331270701804888
 20
1.621715741200068
 30
0.0
 11
2.741072203782464
 21
1.621715741200068
 31
0.0
1001
REVIT
1002
{
1070
     1
1000
151426
1002
}
1002
{
1070
     2
1000
-2000051
1002
}
1002
{
1070
     3
1000
151262
1002
}
  0
LINE
  5
E4
330
70
100
AcDbEntity
  8
A-DETL
100
AcDbLine
 10
2.741072203782464
 20
1.621715741200068
 30
0.0
 11
2.741072203782464
 21
1.677712631368869
 31
0.0
1001
REVIT
1002
{
1070
     1
1000
151427
1002
}
1002
{
1070
     2
1000
-2000051
1002
}
1002
{
1070
     3
1000
151262
1002
}
  0
LINE
  5
E5
330
70
100
AcDbEntity
  8
A-DETL
100
AcDbLine
 10
2.741072203782464
 20
1.677712631368869
 30
0.0
 11
2.616072201737185
 21
1.677712631368869
 31
0.0
1001
REVIT
1002
{
1070
     1
1000
151428
1002
}
1002
{
1070
     2
1000
-2000051
1002
}
1002
{
1070
     3
1000
151262
1002
}
  0
LINE
  5
E6
330
70
100
AcDbEntity
  8
A-DETL
100
AcDbLine
 10
2.616072201737185
 20
1.677712631368869
 30
0.0
 11
2.616072201737185
 21
1.211741357871499
 31
0.0
1001
REVIT
1002
{
1070
     1
1000
151429
1002
}
1002
{
1070
     2
1000
-2000051
1002
}
1002
{
1070
     3
1000
151262
1002
}
  0
LINE
  5
E7
330
70
100
AcDbEntity
  8
A-DETL
100
AcDbLine
 10
2.714521912352071
 20
1.013779838337188
 30
0.0
 11
2.714521912352071
 21
0.9377126268887344
 31
0.0
1001
REVIT
1002
{
1070
     1
1000
151436
1002
}
1002
{
1070
     2
1000
-2000051
1002
}
1002
{
1070
     3
1000
151262
1002
}
  0
LINE
  5
E8
330
70
100
AcDbEntity
  8
A-DETL
100
AcDbLine
 10
2.714521912352071
 20
0.9377126268887344
 30
0.0
 11
3.776278854377026
 21
0.9377126268887343
 31
0.0
1001
REVIT
1002
{
1070
     1
1000
151437
1002
}
1002
{
1070
     2
1000
-2000051
1002
}
1002
{
1070
     3
1000
151262
1002
}
  0
LINE
  5
E9
330
70
100
AcDbEntity
  8
A-DETL
100
AcDbLine
 10
3.741508504591332
 20
1.037761285648495
 30
0.0
 11
3.921508485448124
 21
1.037761285648495
 31
0.0
1001
REVIT
1002
{
1070
     1
1000
151438
1002
}
1002
{
1070
     2
1000
-2000051
1002
}
1002
{
1070
     3
1000
151262
1002
}
  0
LINE
  5
EA
330
70
100
AcDbEntity
  8
A-DETL
100
AcDbLine
 10
3.886738135662431
 20
0.9376987465370044
 30
0.0
 11
4.106508485448115
 21
0.9376987465370044
 31
0.0
1001
REVIT
1002
{
1070
     1
1000
151439
1002
}
1002
{
1070
     2
1000
-2000051
1002
}
1002
{
1070
     3
1000
151262
1002
}
  0
LINE
  5
EB
330
70
100
AcDbEntity
  8
A-DETL
100
AcDbLine
 10
4.106508485448115
 20
0.9376987465370044
 30
0.0
 11
4.106508485448116
 21
4.001698898954312
 31
0.0
1001
REVIT
1002
{
1070
     1
1000
151440
1002
}
1002
{
1070
     2
1000
-2000051
1002
}
1002
{
1070
     3
1000
151262
1002
}
  0
LINE
  5
EC
330
70
100
AcDbEntity
  8
A-DETL
100
AcDbLine
 10
4.106508485448116
 20
4.001698898954312
 30
0.0
 11
3.997872831407081
 21
4.001698898954312
 31
0.0
1001
REVIT
1002
{
1070
     1
1000
151441
1002
}
1002
{
1070
     2
1000
-2000051
1002
}
1002
{
1070
     3
1000
151262
1002
}
  0
LINE
  5
ED
330
70
100
AcDbEntity
  8
A-DETL
100
AcDbLine
 10
3.981349542629834
 20
3.972550307654795
 30
0.0
 11
4.026523545698765
 21
3.89433383463773
 31
0.0
1001
REVIT
1002
{
1070
     1
1000
151442
1002
}
1002
{
1070
     2
1000
-2000051
1002
}
1002
{
1070
     3
1000
151262
1002
}
  0
LINE
  5
EE
330
70
100
AcDbEntity
  8
A-DETL
100
AcDbLine
 10
4.026523545698765
 20
3.89433383463773
 30
0.0
 11
4.026523545698765
 21
3.811686857644584
 31
0.0
1001
REVIT
1002
{
1070
     1
1000
151443
1002
}
1002
{
1070
     2
1000
-2000051
1002
}
1002
{
1070
     3
1000
151262
1002
}
  0
LINE
  5
EF
330
70
100
AcDbEntity
  8
A-DETL
100
AcDbLine
 10
4.026523545698765
 20
3.811686857644584
 30
0.0
 11
3.365341282770355
 21
3.811686857644584
 31
0.0
1001
REVIT
1002
{
1070
     1
1000
151444
1002
}
1002
{
1070
     2
1000
-2000051
1002
}
1002
{
1070
     3
1000
151262
1002
}
  0
LINE
  5
F0
330
70
100
AcDbEntity
  8
A-DETL
100
AcDbLine
 10
1.856508485448116
 20
4.687607948767814
 30
0.0
 11
1.856508485448116
 21
0.9377126268887344
 31
0.0
1001
REVIT
1002
{
1070
     1
1000
151447
1002
}
1002
{
1070
     2
1000
-2000051
1002
}
1002
{
1070
     3
1000
151262
1002
}
  0
LINE
  5
F1
330
70
100
AcDbEntity
  8
A-DETL
100
AcDbLine
 10
2.254949400868773
 20
3.582502441948098
 30
0.0
 11
2.254949400868773
 21
3.725723018849437
 31
0.0
1001
REVIT
1002
{
1070
     1
1000
151448
1002
}
1002
{
1070
     2
1000
-2000051
1002
}
1002
{
1070
     3
1000
151262
1002
}
  0
LINE
  5
F2
330
70
100
AcDbEntity
  8
A-DETL
100
AcDbLine
 10
2.254949400868773
 20
3.725723018849437
 30
0.0
 11
2.156519957204202
 21
3.668894753053493
 31
0.0
1001
REVIT
1002
{
1070
     1
1000
151449
1002
}
1002
{
1070
     2
1000
-2000051
1002
}
1002
{
1070
     3
1000
151262
1002
}
  0
LINE
  5
F3
330
70
100
AcDbEntity
  8
A-DETL
100
AcDbLine
 10
2.156519957204202
 20
3.668894753053493
 30
0.0
 11
2.156519957204202
 21
3.878472830704931
 31
0.0
1001
REVIT
1002
{
1070
     1
1000
151450
1002
}
1002
{
1070
     2
1000
-2000051
1002
}
1002
{
1070
     3
1000
151262
1002
}
  0
LINE
  5
F4
330
70
100
AcDbEntity
  8
A-DETL
100
AcDbLine
 10
2.156519957204202
 20
3.878472830704931
 30
0.0
 11
2.284708264840647
 21
3.844145559775025
 31
0.0
1001
REVIT
1002
{
1070
     1
1000
151451
1002
}
1002
{
1070
     2
1000
-2000051
1002
}
1002
{
1070
     3
1000
151262
1002
}
  0
LINE
  5
F5
330
70
100
AcDbEntity
  8
A-DETL
100
AcDbLine
 10
2.284708264840647
 20
3.844145559775025
 30
0.0
 11
2.295831697103263
 21
3.971507801329971
 31
0.0
1001
REVIT
1002
{
1070
     1
1000
151452
1002
}
1002
{
1070
     2
1000
-2000051
1002
}
1002
{
1070
     3
1000
151262
1002
}
  0
LINE
  5
F6
330
70
100
AcDbEntity
  8
A-DETL
100
AcDbLine
 10
2.295831697103263
 20
3.971507801329971
 30
0.0
 11
2.203724800333837
 21
3.926499335238191
 31
0.0
1001
REVIT
1002
{
1070
     1
1000
151453
1002
}
1002
{
1070
     2
1000
-2000051
1002
}
1002
{
1070
     3
1000
151262
1002
}
  0
LINE
  5
F7
330
70
100
AcDbEntity
  8
A-DETL
100
AcDbLine
 10
2.203724800333837
 20
3.926499335238191
 30
0.0
 11
2.156517993285454
 21
3.935663951635206
 31
0.0
1001
REVIT
1002
{
1070
     1
1000
151454
1002
}
1002
{
1070
     2
1000
-2000051
1002
}
1002
{
1070
     3
1000
151262
1002
}
  0
LINE
  5
F8
330
70
100
AcDbEntity
  8
A-DETL
100
AcDbLine
 10
2.156517993285454
 20
3.935663951635206
 30
0.0
 11
1.971618681805018
 21
3.935663951635206
 31
0.0
1001
REVIT
1002
{
1070
     1
1000
151455
1002
}
1002
{
1070
     2
1000
-2000051
1002
}
1002
{
1070
     3
1000
151262
1002
}
  0
LINE
  5
F9
330
70
100
AcDbEntity
  8
A-DETL
100
AcDbLine
 10
1.971618681805018
 20
3.935663951635206
 30
0.0
 11
1.971618681805018
 21
4.250602233074952
 31
0.0
1001
REVIT
1002
{
1070
     1
1000
151456
1002
}
1002
{
1070
     2
1000
-2000051
1002
}
1002
{
1070
     3
1000
151262
1002
}
  0
LINE
  5
FA
330
70
100
AcDbEntity
  8
A-DETL
100
AcDbLine
 10
1.971618681805018
 20
4.250602233074952
 30
0.0
 11
2.018910676866003
 21
4.250602233074952
 31
0.0
1001
REVIT
1002
{
1070
     1
1000
151457
1002
}
1002
{
1070
     2
1000
-2000051
1002
}
1002
{
1070
     3
1000
151262
1002
}
  0
LINE
  5
FB
330
70
100
AcDbEntity
  8
A-DETL
100
AcDbLine
 10
2.018910676866003
 20
4.687607948767814
 30
0.0
 11
1.856508485448116
 21
4.687607948767814
 31
0.0
1001
REVIT
1002
{
1070
     1
1000
151461
1002
}
1002
{
1070
     2
1000
-2000051
1002
}
1002
{
1070
     3
1000
151262
1002
}
  0
LINE
  5
FC
330
70
100
AcDbEntity
  8
A-DETL
100
AcDbLine
 10
1.856508485448116
 20
0.9377126268887344
 30
0.0
 11
1.975309961930185
 21
0.9377126268887344
 31
0.0
1001
REVIT
1002
{
1070
     1
1000
151462
1002
}
1002
{
1070
     2
1000
-2000051
1002
}
1002
{
1070
     3
1000
151262
1002
}
  0
LINE
  5
FD
330
70
100
AcDbEntity
  8
A-DETL
100
AcDbLine
 10
1.975309961930185
 20
0.9377126268887344
 30
0.0
 11
1.975309961930185
 21
1.013779838337188
 31
0.0
1001
REVIT
1002
{
1070
     1
1000
151463
1002
}
1002
{
1070
     2
1000
-2000051
1002
}
1002
{
1070
     3
1000
151262
1002
}
  0
LINE
  5
FE
330
70
100
AcDbEntity
  8
A-DETL
100
AcDbLine
 10
1.975309961930185
 20
1.013779838337188
 30
0.0
 11
2.028783217366835
 21
1.013779838337188
 31
0.0
1001
REVIT
1002
{
1070
     1
1000
151464
1002
}
1002
{
1070
     2
1000
-2000051
1002
}
1002
{
1070
     3
1000
151262
1002
}
  0
LINE
  5
FF
330
70
100
AcDbEntity
  8
A-DETL
100
AcDbLine
 10
2.028783217366835
 20
1.013779838337188
 30
0.0
 11
2.120903661405368
 21
0.968804712633778
 31
0.0
1001
REVIT
1002
{
1070
     1
1000
151465
1002
}
1002
{
1070
     2
1000
-2000051
1002
}
1002
{
1070
     3
1000
151262
1002
}
  0
LINE
  5
100
330
70
100
AcDbEntity
  8
A-DETL
100
AcDbLine
 10
2.120903661405368
 20
0.968804712633778
 30
0.0
 11
2.109741882588311
 21
1.096163599299892
 31
0.0
1001
REVIT
1002
{
1070
     1
1000
151466
1002
}
1002
{
1070
     2
1000
-2000051
1002
}
1002
{
1070
     3
1000
151262
1002
}
  0
LINE
  5
101
330
70
100
AcDbEntity
  8
A-DETL
100
AcDbLine
 10
2.109741882588311
 20
1.096163599299892
 30
0.0
 11
1.981531297317032
 21
1.061788988671894
 31
0.0
1001
REVIT
1002
{
1070
     1
1000
151467
1002
}
1002
{
1070
     2
1000
-2000051
1002
}
1002
{
1070
     3
1000
151262
1002
}
  0
LINE
  5
102
330
70
100
AcDbEntity
  8
A-DETL
100
AcDbLine
 10
1.981531297317032
 20
1.061788988671894
 30
0.0
 11
1.981531297317032
 21
1.272244128495825
 31
0.0
1001
REVIT
1002
{
1070
     1
1000
151468
1002
}
1002
{
1070
     2
1000
-2000051
1002
}
1002
{
1070
     3
1000
151262
1002
}
  0
LINE
  5
103
330
70
100
AcDbEntity
  8
A-DETL
100
AcDbLine
 10
1.981531297317032
 20
1.272244128495825
 30
0.0
 11
2.079927672636485
 21
1.212203054692219
 31
0.0
1001
REVIT
1002
{
1070
     1
1000
151469
1002
}
1002
{
1070
     2
1000
-2000051
1002
}
1002
{
1070
     3
1000
151262
1002
}
  0
LINE
  5
104
330
70
100
AcDbEntity
  8
A-DETL
100
AcDbLine
 10
2.079927672636485
 20
1.212203054692219
 30
0.0
 11
2.079927672636485
 21
1.381853871347959
 31
0.0
1001
REVIT
1002
{
1070
     1
1000
151470
1002
}
1002
{
1070
     2
1000
-2000051
1002
}
1002
{
1070
     3
1000
151262
1002
}
  0
LINE
  5
105
330
70
100
AcDbEntity
  8
A-DETL
100
AcDbLine
 10
2.079927672636485
 20
1.381853871347959
 30
0.0
 11
1.98198200403864
 21
1.381853871347959
 31
0.0
1001
REVIT
1002
{
1070
     1
1000
151471
1002
}
1002
{
1070
     2
1000
-2000051
1002
}
1002
{
1070
     3
1000
151262
1002
}
  0
LINE
  5
106
330
70
100
AcDbEntity
  8
A-DETL
100
AcDbLine
 10
1.98198200403864
 20
1.381853871347959
 30
0.0
 11
1.98198200403864
 21
1.812712626888734
 31
0.0
1001
REVIT
1002
{
1070
     1
1000
151472
1002
}
1002
{
1070
     2
1000
-2000051
1002
}
1002
{
1070
     3
1000
151262
1002
}
  0
LINE
  5
107
330
70
100
AcDbEntity
  8
A-DETL
100
AcDbLine
 10
1.98198200403864
 20
1.812712626888734
 30
0.0
 11
2.366982004038638
 21
1.812712626888734
 31
0.0
1001
REVIT
1002
{
1070
     1
1000
151473
1002
}
1002
{
1070
     2
1000
-2000051
1002
}
1002
{
1070
     3
1000
151262
1002
}
  0
LINE
  5
108
330
70
100
AcDbEntity
  8
A-DETL
100
AcDbLine
 10
2.366982004038638
 20
1.812712626888734
 30
0.0
 11
2.366982004038638
 21
1.937712626888734
 31
0.0
1001
REVIT
1002
{
1070
     1
1000
151474
1002
}
1002
{
1070
     2
1000
-2000051
1002
}
1002
{
1070
     3
1000
151262
1002
}
  0
LINE
  5
109
330
70
100
AcDbEntity
  8
A-DETL
100
AcDbLine
 10
2.366982004038638
 20
1.937712626888734
 30
0.0
 11
1.981858775943812
 21
1.937712626888734
 31
0.0
1001
REVIT
1002
{
1070
     1
1000
151475
1002
}
1002
{
1070
     2
1000
-2000051
1002
}
1002
{
1070
     3
1000
151262
1002
}
  0
LINE
  5
10A
330
70
100
AcDbEntity
  8
A-DETL
100
AcDbLine
 10
1.981858775943812
 20
1.937712626888734
 30
0.0
 11
1.981858775943812
 21
2.211034120755478
 31
0.0
1001
REVIT
1002
{
1070
     1
1000
151476
1002
}
1002
{
1070
     2
1000
-2000051
1002
}
1002
{
1070
     3
1000
151262
1002
}
  0
LINE
  5
10B
330
70
100
AcDbEntity
  8
A-DETL
100
AcDbLine
 10
1.981858775943812
 20
2.211034120755478
 30
0.0
 11
2.066746291544077
 21
2.211034120755478
 31
0.0
1001
REVIT
1002
{
1070
     1
1000
151477
1002
}
1002
{
1070
     2
1000
-2000051
1002
}
1002
{
1070
     3
1000
151262
1002
}
  0
LINE
  5
10C
330
70
100
AcDbEntity
  8
A-DETL
100
AcDbLine
 10
2.066746291544077
 20
2.211034120755478
 30
0.0
 11
2.14175193606708
 21
2.248511540300038
 31
0.0
1001
REVIT
1002
{
1070
     1
1000
151478
1002
}
1002
{
1070
     2
1000
-2000051
1002
}
1002
{
1070
     3
1000
151262
1002
}
  0
LINE
  5
10D
330
70
100
AcDbEntity
  8
A-DETL
100
AcDbLine
 10
2.14175193606708
 20
2.248511540300038
 30
0.0
 11
2.066757582289951
 21
2.286022830621201
 31
0.0
1001
REVIT
1002
{
1070
     1
1000
151479
1002
}
1002
{
1070
     2
1000
-2000051
1002
}
1002
{
1070
     3
1000
151262
1002
}
  0
LINE
  5
10E
330
70
100
AcDbEntity
  8
A-DETL
100
AcDbLine
 10
2.066757582289951
 20
2.286022830621201
 30
0.0
 11
1.981858124406186
 21
2.286022830621201
 31
0.0
1001
REVIT
1002
{
1070
     1
1000
151480
1002
}
1002
{
1070
     2
1000
-2000051
1002
}
1002
{
1070
     3
1000
151262
1002
}
  0
LINE
  5
10F
330
70
100
AcDbEntity
  8
A-DETL
100
AcDbLine
 10
1.981858124406186
 20
2.286022830621201
 30
0.0
 11
1.981858124406186
 21
2.368513050973243
 31
0.0
1001
REVIT
1002
{
1070
     1
1000
151481
1002
}
1002
{
1070
     2
1000
-2000051
1002
}
1002
{
1070
     3
1000
151262
1002
}
  0
LINE
  5
110
330
70
100
AcDbEntity
  8
A-DETL
100
AcDbLine
 10
1.981858124406186
 20
2.368513050973243
 30
0.0
 11
2.121854435369086
 21
2.368513050973243
 31
0.0
1001
REVIT
1002
{
1070
     1
1000
151482
1002
}
1002
{
1070
     2
1000
-2000051
1002
}
1002
{
1070
     3
1000
151262
1002
}
  0
LINE
  5
111
330
70
100
AcDbEntity
  8
A-DETL
100
AcDbLine
 10
2.121854435369086
 20
2.368513050973243
 30
0.0
 11
2.121854435369086
 21
2.508531114550388
 31
0.0
1001
REVIT
1002
{
1070
     1
1000
151483
1002
}
1002
{
1070
     2
1000
-2000051
1002
}
1002
{
1070
     3
1000
151262
1002
}
  0
LINE
  5
112
330
70
100
AcDbEntity
  8
A-DETL
100
AcDbLine
 10
2.121854435369086
 20
2.508531114550388
 30
0.0
 11
2.066836370798696
 21
2.508531114550388
 31
0.0
1001
REVIT
1002
{
1070
     1
1000
151484
1002
}
1002
{
1070
     2
1000
-2000051
1002
}
1002
{
1070
     3
1000
151262
1002
}
  0
LINE
  5
113
330
70
100
AcDbEntity
  8
A-DETL
100
AcDbLine
 10
2.066836370798696
 20
2.508531114550388
 30
0.0
 11
2.066836370798696
 21
2.423522835633358
 31
0.0
1001
REVIT
1002
{
1070
     1
1000
151485
1002
}
1002
{
1070
     2
1000
-2000051
1002
}
1002
{
1070
     3
1000
151262
1002
}
  0
LINE
  5
114
330
70
100
AcDbEntity
  8
A-DETL
100
AcDbLine
 10
2.066836370798696
 20
2.423522835633358
 30
0.0
 11
1.981827352137442
 21
2.423522835633358
 31
0.0
1001
REVIT
1002
{
1070
     1
1000
151486
1002
}
1002
{
1070
     2
1000
-2000051
1002
}
1002
{
1070
     3
1000
151262
1002
}
  0
LINE
  5
115
330
70
100
AcDbEntity
  8
A-DETL
100
AcDbLine
 10
1.981827352137442
 20
2.423522835633358
 30
0.0
 11
1.981827352137442
 21
2.73351304397651
 31
0.0
1001
REVIT
1002
{
1070
     1
1000
151487
1002
}
1002
{
1070
     2
1000
-2000051
1002
}
1002
{
1070
     3
1000
151262
1002
}
  0
LINE
  5
116
330
70
100
AcDbEntity
  8
A-DETL
100
AcDbLine
 10
1.981827352137442
 20
2.73351304397651
 30
0.0
 11
2.066802498560845
 21
2.73351304397651
 31
0.0
1001
REVIT
1002
{
1070
     1
1000
151488
1002
}
1002
{
1070
     2
1000
-2000051
1002
}
1002
{
1070
     3
1000
151262
1002
}
  0
LINE
  5
117
330
70
100
AcDbEntity
  8
A-DETL
100
AcDbLine
 10
2.066802498560845
 20
2.73351304397651
 30
0.0
 11
2.066802498560845
 21
2.648525843949224
 31
0.0
1001
REVIT
1002
{
1070
     1
1000
151489
1002
}
1002
{
1070
     2
1000
-2000051
1002
}
1002
{
1070
     3
1000
151262
1002
}
  0
LINE
  5
118
330
70
100
AcDbEntity
  8
A-DETL
100
AcDbLine
 10
2.066802498560845
 20
2.648525843949224
 30
0.0
 11
2.12181228325086
 21
2.648525843949224
 31
0.0
1001
REVIT
1002
{
1070
     1
1000
151490
1002
}
1002
{
1070
     2
1000
-2000051
1002
}
1002
{
1070
     3
1000
151262
1002
}
  0
LINE
  5
119
330
70
100
AcDbEntity
  8
A-DETL
100
AcDbLine
 10
2.12181228325086
 20
2.648525843949224
 30
0.0
 11
2.12181228325086
 21
2.788531111377702
 31
0.0
1001
REVIT
1002
{
1070
     1
1000
151491
1002
}
1002
{
1070
     2
1000
-2000051
1002
}
1002
{
1070
     3
1000
151262
1002
}
  0
LINE
  5
11A
330
70
100
AcDbEntity
  8
A-DETL
100
AcDbLine
 10
2.12181228325086
 20
2.788531111377702
 30
0.0
 11
1.981791406454717
 21
2.788531111377702
 31
0.0
1001
REVIT
1002
{
1070
     1
1000
151492
1002
}
1002
{
1070
     2
1000
-2000051
1002
}
1002
{
1070
     3
1000
151262
1002
}
  0
LINE
  5
11B
330
70
100
AcDbEntity
  8
A-DETL
100
AcDbLine
 10
1.981791406454717
 20
2.788531111377702
 30
0.0
 11
1.981791406454717
 21
2.87098895970885
 31
0.0
1001
REVIT
1002
{
1070
     1
1000
151493
1002
}
1002
{
1070
     2
1000
-2000051
1002
}
1002
{
1070
     3
1000
151262
1002
}
  0
LINE
  5
11C
330
70
100
AcDbEntity
  8
A-DETL
100
AcDbLine
 10
1.981791406454717
 20
2.87098895970885
 30
0.0
 11
2.066757582289951
 21
2.87098895970885
 31
0.0
1001
REVIT
1002
{
1070
     1
1000
151494
1002
}
1002
{
1070
     2
1000
-2000051
1002
}
1002
{
1070
     3
1000
151262
1002
}
  0
LINE
  5
11D
330
70
100
AcDbEntity
  8
A-DETL
100
AcDbLine
 10
2.066757582289951
 20
2.87098895970885
 30
0.0
 11
2.14175193606708
 21
2.908511540300006
 31
0.0
1001
REVIT
1002
{
1070
     1
1000
151495
1002
}
1002
{
1070
     2
1000
-2000051
1002
}
1002
{
1070
     3
1000
151262
1002
}
  0
LINE
  5
11E
330
70
100
AcDbEntity
  8
A-DETL
100
AcDbLine
 10
2.14175193606708
 20
2.908511540300006
 30
0.0
 11
2.066746291544077
 21
2.94600024912908
 31
0.0
1001
REVIT
1002
{
1070
     1
1000
151496
1002
}
1002
{
1070
     2
1000
-2000051
1002
}
1002
{
1070
     3
1000
151262
1002
}
  0
LINE
  5
11F
330
70
100
AcDbEntity
  8
A-DETL
100
AcDbLine
 10
2.066746291544077
 20
2.94600024912908
 30
0.0
 11
1.981745700272305
 21
2.94600024912908
 31
0.0
1001
REVIT
1002
{
1070
     1
1000
151497
1002
}
1002
{
1070
     2
1000
-2000051
1002
}
1002
{
1070
     3
1000
151262
1002
}
  0
LINE
  5
120
330
70
100
AcDbEntity
  8
A-DETL
100
AcDbLine
 10
1.981745700272305
 20
2.94600024912908
 30
0.0
 11
1.981745700272305
 21
3.158511540300006
 31
0.0
1001
REVIT
1002
{
1070
     1
1000
151498
1002
}
1002
{
1070
     2
1000
-2000051
1002
}
1002
{
1070
     3
1000
151262
1002
}
  0
LINE
  5
121
330
70
100
AcDbEntity
  8
A-DETL
100
AcDbLine
 10
1.981745700272305
 20
3.158511540300006
 30
0.0
 11
3.231508707231696
 21
3.158511540300006
 31
0.0
1001
REVIT
1002
{
1070
     1
1000
151499
1002
}
1002
{
1070
     2
1000
-2000051
1002
}
1002
{
1070
     3
1000
151262
1002
}
  0
LINE
  5
122
330
70
100
AcDbEntity
  8
A-DETL
100
AcDbLine
 10
3.231508707231696
 20
3.158511540300006
 30
0.0
 11
3.231508707231696
 21
3.25999865389239
 31
0.0
1001
REVIT
1002
{
1070
     1
1000
151500
1002
}
1002
{
1070
     2
1000
-2000051
1002
}
1002
{
1070
     3
1000
151262
1002
}
  0
LINE
  5
123
330
70
100
AcDbEntity
  8
A-DETL
100
AcDbLine
 10
3.231508707231696
 20
3.25999865389239
 30
0.0
 11
1.981717982199987
 21
3.25999865389239
 31
0.0
1001
REVIT
1002
{
1070
     1
1000
151501
1002
}
1002
{
1070
     2
1000
-2000051
1002
}
1002
{
1070
     3
1000
151262
1002
}
  0
LINE
  5
124
330
70
100
AcDbEntity
  8
A-DETL
100
AcDbLine
 10
1.981717982199987
 20
3.25999865389239
 30
0.0
 11
1.981717982199987
 21
3.582502441948098
 31
0.0
1001
REVIT
1002
{
1070
     1
1000
151502
1002
}
1002
{
1070
     2
1000
-2000051
1002
}
1002
{
1070
     3
1000
151262
1002
}
  0
LINE
  5
125
330
70
100
AcDbEntity
  8
A-DETL
100
AcDbLine
 10
1.981717982199987
 20
3.582502441948098
 30
0.0
 11
2.254949400868773
 21
3.582502441948098
 31
0.0
1001
REVIT
1002
{
1070
     1
1000
151503
1002
}
1002
{
1070
     2
1000
-2000051
1002
}
1002
{
1070
     3
1000
151262
1002
}
  0
LINE
  5
126
330
70
100
AcDbEntity
  8
A-DETL
100
AcDbLine
 10
2.453668487503884
 20
1.080538078315039
 30
0.0
 11
2.538179732402784
 21
1.201232644264653
 31
0.0
1001
REVIT
1002
{
1070
     1
1000
151508
1002
}
1002
{
1070
     2
1000
-2000051
1002
}
1002
{
1070
     3
1000
151264
1002
}
  0
LINE
  5
127
330
70
100
AcDbEntity
  8
A-DETL
100
AcDbLine
 10
2.486460112702033
 20
1.017545952395034
 30
0.0
 11
2.21029639859995
 21
1.017545952395034
 31
0.0
1001
REVIT
1002
{
1070
     1
1000
151516
1002
}
1002
{
1070
     2
1000
-2000051
1002
}
1002
{
1070
     3
1000
151264
1002
}
  0
LINE
  5
128
330
70
100
AcDbEntity
  8
A-DETL
100
AcDbLine
 10
2.21029639859995
 20
1.017545952395034
 30
0.0
 11
2.140502440902229
 21
1.117222053963725
 31
0.0
1001
REVIT
1002
{
1070
     1
1000
151517
1002
}
1002
{
1070
     2
1000
-2000051
1002
}
1002
{
1070
     3
1000
151264
1002
}
  0
LINE
  5
129
330
70
100
AcDbEntity
  8
A-DETL
100
AcDbLine
 10
2.079927672636485
 20
1.117222053963725
 30
0.0
 11
1.984636381233826
 21
1.074795637571167
 31
0.0
1001
REVIT
1002
{
1070
     1
1000
151518
1002
}
1002
{
1070
     2
1000
-2000051
1002
}
1002
{
1070
     3
1000
151264
1002
}
  0
LINE
  5
12A
330
70
100
AcDbEntity
  8
A-DETL
100
AcDbLine
 10
1.984636381233826
 20
1.074795637571167
 30
0.0
 11
1.984636381233826
 21
1.261293412598868
 31
0.0
1001
REVIT
1002
{
1070
     1
1000
151519
1002
}
1002
{
1070
     2
1000
-2000051
1002
}
1002
{
1070
     3
1000
151264
1002
}
  0
LINE
  5
12B
330
70
100
AcDbEntity
  8
A-DETL
100
AcDbLine
 10
1.984636381233826
 20
1.261293412598868
 30
0.0
 11
2.088664683530276
 21
1.201232644264653
 31
0.0
1001
REVIT
1002
{
1070
     1
1000
151520
1002
}
1002
{
1070
     2
1000
-2000051
1002
}
1002
{
1070
     3
1000
151264
1002
}
  0
LINE
  5
12C
330
70
100
AcDbEntity
  8
A-DETL
100
AcDbLine
 10
2.088664683530276
 20
1.201232644264653
 30
0.0
 11
2.158576778899348
 21
1.201232644264653
 31
0.0
1001
REVIT
1002
{
1070
     1
1000
151521
1002
}
1002
{
1070
     2
1000
-2000051
1002
}
1002
{
1070
     3
1000
151264
1002
}
  0
LINE
  5
12D
330
70
100
AcDbEntity
  8
A-DETL
100
AcDbLine
 10
2.158576778899348
 20
1.201232644264653
 30
0.0
 11
2.243088023798098
 21
1.080538078315039
 31
0.0
1001
REVIT
1002
{
1070
     1
1000
151522
1002
}
1002
{
1070
     2
1000
-2000051
1002
}
1002
{
1070
     3
1000
151264
1002
}
  0
LINE
  5
12E
330
70
100
AcDbEntity
  8
A-DETL
100
AcDbLine
 10
2.243088023798098
 20
1.080538078315039
 30
0.0
 11
2.453668487503884
 21
1.080538078315039
 31
0.0
1001
REVIT
1002
{
1070
     1
1000
151523
1002
}
1002
{
1070
     2
1000
-2000051
1002
}
1002
{
1070
     3
1000
151264
1002
}
  0
LINE
  5
12F
330
70
100
AcDbEntity
  8
A-DETL
100
AcDbLine
 10
2.627917485127061
 20
3.860312557202948
 30
0.0
 11
2.716132607961098
 21
3.734328305363053
 31
0.0
1001
REVIT
1002
{
1070
     1
1000
151528
1002
}
1002
{
1070
     2
1000
-2000051
1002
}
1002
{
1070
     3
1000
151264
1002
}
  0
LINE
  5
130
330
70
100
AcDbEntity
  8
A-DETL
100
AcDbLine
 10
2.716132607961098
 20
3.734328305363053
 30
0.0
 11
2.780955561314318
 21
3.734328305363053
 31
0.0
1001
REVIT
1002
{
1070
     1
1000
151529
1002
}
1002
{
1070
     2
1000
-2000051
1002
}
1002
{
1070
     3
1000
151264
1002
}
  0
LINE
  5
131
330
70
100
AcDbEntity
  8
A-DETL
100
AcDbLine
 10
2.780955561314318
 20
3.734328305363053
 30
0.0
 11
2.887261828304754
 21
3.672952353499818
 31
0.0
1001
REVIT
1002
{
1070
     1
1000
151530
1002
}
1002
{
1070
     2
1000
-2000051
1002
}
1002
{
1070
     3
1000
151264
1002
}
  0
LINE
  5
132
330
70
100
AcDbEntity
  8
A-DETL
100
AcDbLine
 10
2.887261828304754
 20
3.672952353499818
 30
0.0
 11
2.887261828304754
 21
3.866570398885929
 31
0.0
1001
REVIT
1002
{
1070
     1
1000
151532
1002
}
1002
{
1070
     2
1000
-2000051
1002
}
1002
{
1070
     3
1000
151264
1002
}
  0
LINE
  5
133
330
70
100
AcDbEntity
  8
A-DETL
100
AcDbLine
 10
2.887261828304754
 20
3.866570398885929
 30
0.0
 11
2.821839851394173
 21
3.828799002906154
 31
0.0
1001
REVIT
1002
{
1070
     1
1000
151533
1002
}
1002
{
1070
     2
1000
-2000051
1002
}
1002
{
1070
     3
1000
151264
1002
}
  0
LINE
  5
134
330
70
100
AcDbEntity
  8
A-DETL
100
AcDbLine
 10
2.821839851394172
 20
3.828799002906154
 30
0.0
 11
2.780955561314318
 21
3.805194447022762
 31
0.0
1001
REVIT
1002
{
1070
     1
1000
151534
1002
}
1002
{
1070
     2
1000
-2000051
1002
}
1002
{
1070
     3
1000
151264
1002
}
  0
LINE
  5
135
330
70
100
AcDbEntity
  8
A-DETL
100
AcDbLine
 10
2.743410787982274
 20
3.805194447022762
 30
0.0
 11
2.66070911032523
 21
3.923304683122953
 31
0.0
1001
REVIT
1002
{
1070
     1
1000
151535
1002
}
1002
{
1070
     2
1000
-2000051
1002
}
1002
{
1070
     3
1000
151264
1002
}
  0
LINE
  5
136
330
70
100
AcDbEntity
  8
A-DETL
100
AcDbLine
 10
2.66070911032523
 20
3.923304683122953
 30
0.0
 11
2.384545396223128
 21
3.923304683122953
 31
0.0
1001
REVIT
1002
{
1070
     1
1000
151536
1002
}
1002
{
1070
     2
1000
-2000051
1002
}
1002
{
1070
     3
1000
151264
1002
}
  0
LINE
  5
137
330
70
100
AcDbEntity
  8
A-DETL
100
AcDbLine
 10
2.384545396223128
 20
3.923304683122953
 30
0.0
 11
2.301843718566223
 21
3.805194447022959
 31
0.0
1001
REVIT
1002
{
1070
     1
1000
151537
1002
}
1002
{
1070
     2
1000
-2000051
1002
}
1002
{
1070
     3
1000
151264
1002
}
  0
LINE
  5
138
330
70
100
AcDbEntity
  8
A-DETL
100
AcDbLine
 10
2.264298945233599
 20
3.805194447022959
 30
0.0
 11
2.160011978624484
 21
3.865404555267795
 31
0.0
1001
REVIT
1002
{
1070
     1
1000
151538
1002
}
1002
{
1070
     2
1000
-2000051
1002
}
1002
{
1070
     3
1000
151264
1002
}
  0
LINE
  5
139
330
70
100
AcDbEntity
  8
A-DETL
100
AcDbLine
 10
2.160011978624484
 20
3.865404555267795
 30
0.0
 11
2.160011978624484
 21
3.674118197118063
 31
0.0
1001
REVIT
1002
{
1070
     1
1000
151539
1002
}
1002
{
1070
     2
1000
-2000051
1002
}
1002
{
1070
     3
1000
151264
1002
}
  0
LINE
  5
13A
330
70
100
AcDbEntity
  8
A-DETL
100
AcDbLine
 10
2.160011978624484
 20
3.674118197118063
 30
0.0
 11
2.2642989452336
 21
3.734328305362825
 31
0.0
1001
REVIT
1002
{
1070
     1
1000
151540
1002
}
1002
{
1070
     2
1000
-2000051
1002
}
1002
{
1070
     3
1000
151264
1002
}
  0
LINE
  5
13B
330
70
100
AcDbEntity
  8
A-DETL
100
AcDbLine
 10
2.2642989452336
 20
3.734328305362825
 30
0.0
 11
2.329121898587235
 21
3.734328305362825
 31
0.0
1001
REVIT
1002
{
1070
     1
1000
151541
1002
}
1002
{
1070
     2
1000
-2000051
1002
}
1002
{
1070
     3
1000
151264
1002
}
  0
LINE
  5
13C
330
70
100
AcDbEntity
  8
A-DETL
100
AcDbLine
 10
2.329121898587235
 20
3.734328305362825
 30
0.0
 11
2.417337021421276
 21
3.860312557202948
 31
0.0
1001
REVIT
1002
{
1070
     1
1000
151542
1002
}
1002
{
1070
     2
1000
-2000051
1002
}
1002
{
1070
     3
1000
151264
1002
}
  0
LINE
  5
13D
330
70
100
AcDbEntity
  8
A-DETL
100
AcDbLine
 10
2.417337021421276
 20
3.860312557202948
 30
0.0
 11
2.627917485127061
 21
3.860312557202948
 31
0.0
1001
REVIT
1002
{
1070
     1
1000
151543
1002
}
1002
{
1070
     2
1000
-2000051
1002
}
1002
{
1070
     3
1000
151264
1002
}
  0
LINE
  5
13E
330
70
100
AcDbEntity
  8
A-DETL
100
AcDbLine
 10
3.379406887868561
 20
3.82869889895431
 30
0.0
 11
3.564522892308005
 21
3.82869889895431
 31
0.0
1001
REVIT
1002
{
1070
     1
1000
151558
1002
}
1002
{
1070
     2
1000
-2000051
1002
}
1002
{
1070
     3
1000
151262
1002
}
  0
LINE
  5
13F
330
70
100
AcDbEntity
  8
A-DETL
100
AcDbLine
 10
3.564522892308005
 20
3.82869889895431
 30
0.0
 11
3.564522892308005
 21
4.07009834240768
 31
0.0
1001
REVIT
1002
{
1070
     1
1000
151559
1002
}
1002
{
1070
     2
1000
-2000051
1002
}
1002
{
1070
     3
1000
151262
1002
}
  0
LINE
  5
140
330
70
100
AcDbEntity
  8
A-DETL
100
AcDbLine
 10
3.564522892308005
 20
4.07009834240768
 30
0.0
 11
3.371506980128529
 21
4.143586041988201
 31
0.0
1001
REVIT
1002
{
1070
     1
1000
151560
1002
}
1002
{
1070
     2
1000
-2000051
1002
}
1002
{
1070
     3
1000
151262
1002
}
  0
LINE
  5
141
330
70
100
AcDbEntity
  8
A-DETL
100
AcDbLine
 10
3.371506980128529
 20
4.143586041988201
 30
0.0
 11
3.371506980128529
 21
4.633698898954317
 31
0.0
1001
REVIT
1002
{
1070
     1
1000
151561
1002
}
1002
{
1070
     2
1000
-2000051
1002
}
1002
{
1070
     3
1000
151262
1002
}
  0
LINE
  5
142
330
70
100
AcDbEntity
  8
A-DETL
100
AcDbLine
 10
3.371506980128529
 20
4.633698898954317
 30
0.0
 11
4.051506980128478
 21
4.633698898954317
 31
0.0
1001
REVIT
1002
{
1070
     1
1000
151562
1002
}
1002
{
1070
     2
1000
-2000051
1002
}
1002
{
1070
     3
1000
151262
1002
}
  0
LINE
  5
143
330
70
100
AcDbEntity
  8
A-DETL
100
AcDbLine
 10
4.051506980128478
 20
4.633698898954317
 30
0.0
 11
4.051506980128478
 21
4.056698898954291
 31
0.0
1001
REVIT
1002
{
1070
     1
1000
151563
1002
}
1002
{
1070
     2
1000
-2000051
1002
}
1002
{
1070
     3
1000
151262
1002
}
  0
LINE
  5
144
330
70
100
AcDbEntity
  8
A-DETL
100
AcDbLine
 10
4.051506980128478
 20
4.056698898954291
 30
0.0
 11
3.920506980128507
 21
4.056698898954291
 31
0.0
1001
REVIT
1002
{
1070
     1
1000
151564
1002
}
1002
{
1070
     2
1000
-2000051
1002
}
1002
{
1070
     3
1000
151262
1002
}
  0
LINE
  5
145
330
70
100
AcDbEntity
  8
A-DETL
100
AcDbLine
 10
3.920506980128507
 20
4.056698898954291
 30
0.0
 11
3.920506980128507
 21
3.881892283850445
 31
0.0
1001
REVIT
1002
{
1070
     1
1000
151565
1002
}
1002
{
1070
     2
1000
-2000051
1002
}
1002
{
1070
     3
1000
151262
1002
}
  0
LINE
  5
146
330
70
100
AcDbEntity
  8
A-DETL
100
AcDbLine
 10
3.95435510695453
 20
3.869333822344731
 30
0.0
 11
4.006927722789678
 21
3.921906438179879
 31
0.0
1001
REVIT
1002
{
1070
     1
1000
151566
1002
}
1002
{
1070
     2
1000
-2000051
1002
}
1002
{
1070
     3
1000
151262
1002
}
  0
LINE
  5
147
330
70
100
AcDbEntity
  8
A-DETL
100
AcDbLine
 10
4.006927722789678
 20
3.921906438179879
 30
0.0
 11
3.974766578727455
 21
3.977611174015607
 31
0.0
1001
REVIT
1002
{
1070
     1
1000
151567
1002
}
1002
{
1070
     2
1000
-2000051
1002
}
1002
{
1070
     3
1000
151262
1002
}
  0
LINE
  5
148
330
70
100
AcDbEntity
  8
A-DETL
100
AcDbLine
 10
3.990506980128516
 20
4.005378680443361
 30
0.0
 11
4.106506980128542
 21
4.005378680443361
 31
0.0
1001
REVIT
1002
{
1070
     1
1000
151568
1002
}
1002
{
1070
     2
1000
-2000051
1002
}
1002
{
1070
     3
1000
151262
1002
}
  0
LINE
  5
149
330
70
100
AcDbEntity
  8
A-DETL
100
AcDbLine
 10
4.106506980128542
 20
4.005378680443361
 30
0.0
 11
4.106506980128542
 21
4.688698898954324
 31
0.0
1001
REVIT
1002
{
1070
     1
1000
151569
1002
}
1002
{
1070
     2
1000
-2000051
1002
}
1002
{
1070
     3
1000
151262
1002
}
  0
LINE
  5
14A
330
70
100
AcDbEntity
  8
A-DETL
100
AcDbLine
 10
4.106506980128542
 20
4.688698898954324
 30
0.0
 11
3.216506980128555
 21
4.688698898954324
 31
0.0
1001
REVIT
1002
{
1070
     1
1000
151570
1002
}
1002
{
1070
     2
1000
-2000051
1002
}
1002
{
1070
     3
1000
151262
1002
}
  0
LINE
  5
14B
330
70
100
AcDbEntity
  8
A-DETL
100
AcDbLine
 10
3.216506980128555
 20
4.688698898954324
 30
0.0
 11
3.216506980128555
 21
4.583341184108368
 31
0.0
1001
REVIT
1002
{
1070
     1
1000
151571
1002
}
1002
{
1070
     2
1000
-2000051
1002
}
1002
{
1070
     3
1000
151262
1002
}
  0
LINE
  5
14C
330
70
100
AcDbEntity
  8
A-DETL
100
AcDbLine
 10
3.316506980128521
 20
4.628698898954318
 30
0.0
 11
3.316506980128521
 21
4.448698898954318
 31
0.0
1001
REVIT
1002
{
1070
     1
1000
151572
1002
}
1002
{
1070
     2
1000
-2000051
1002
}
1002
{
1070
     3
1000
151262
1002
}
  0
LINE
  5
14D
330
70
100
AcDbEntity
  8
A-DETL
100
AcDbLine
 10
3.216506980128555
 20
4.492864633408473
 30
0.0
 11
3.216506980128555
 21
4.388698898954313
 31
0.0
1001
REVIT
1002
{
1070
     1
1000
151573
1002
}
1002
{
1070
     2
1000
-2000051
1002
}
1002
{
1070
     3
1000
151262
1002
}
  0
LINE
  5
14E
330
70
100
AcDbEntity
  8
A-DETL
100
AcDbLine
 10
3.216506980128555
 20
4.388698898954313
 30
0.0
 11
3.316506980128521
 21
4.388698898954313
 31
0.0
1001
REVIT
1002
{
1070
     1
1000
151574
1002
}
1002
{
1070
     2
1000
-2000051
1002
}
1002
{
1070
     3
1000
151262
1002
}
  0
LINE
  5
14F
330
70
100
AcDbEntity
  8
A-DETL
100
AcDbLine
 10
3.316506980128521
 20
4.388698898954313
 30
0.0
 11
3.316506980128521
 21
4.098184717125384
 31
0.0
1001
REVIT
1002
{
1070
     1
1000
151575
1002
}
1002
{
1070
     2
1000
-2000051
1002
}
1002
{
1070
     3
1000
151262
1002
}
  0
LINE
  5
150
330
70
100
AcDbEntity
  8
A-DETL
100
AcDbLine
 10
3.316506980128521
 20
4.098184717125384
 30
0.0
 11
3.502522892307993
 21
4.027362154793172
 31
0.0
1001
REVIT
1002
{
1070
     1
1000
151576
1002
}
1002
{
1070
     2
1000
-2000051
1002
}
1002
{
1070
     3
1000
151262
1002
}
  0
LINE
  5
151
330
70
100
AcDbEntity
  8
A-DETL
100
AcDbLine
 10
3.502522892307993
 20
4.027362154793173
 30
0.0
 11
3.502522892307993
 21
3.883698898954288
 31
0.0
1001
REVIT
1002
{
1070
     1
1000
151577
1002
}
1002
{
1070
     2
1000
-2000051
1002
}
1002
{
1070
     3
1000
151262
1002
}
  0
LINE
  5
152
330
70
100
AcDbEntity
  8
A-DETL
100
AcDbLine
 10
3.502522892307993
 20
3.883698898954288
 30
0.0
 11
3.379406887868561
 21
3.883698898954288
 31
0.0
1001
REVIT
1002
{
1070
     1
1000
151578
1002
}
1002
{
1070
     2
1000
-2000051
1002
}
1002
{
1070
     3
1000
151262
1002
}
  0
ARC
  5
153
330
70
100
AcDbEntity
  8
A-DETL
100
AcDbCircle
 10
3.230886231221894
 20
4.538709131716488
 30
0.0
 40
0.1747552130218843
100
AcDbArc
 50
98.68262969348666
 51
261.3180315725923
1001
REVIT
1002
{
1070
     1
1000
151593
1002
}
1002
{
1070
     2
1000
-2000051
1002
}
1002
{
1070
     3
1000
151262
1002
}
  0
ARC
  5
154
330
70
100
AcDbEntity
  8
A-DETL
100
AcDbCircle
 10
3.230886231221894
 20
4.538709131716488
 30
0.0
 40
0.1347552130218844
100
AcDbArc
 50
119.415850298607
 51
240.5841497013924
1001
REVIT
1002
{
1070
     1
1000
151594
1002
}
1002
{
1070
     2
1000
-2000051
1002
}
1002
{
1070
     3
1000
151262
1002
}
  0
LINE
  5
155
330
70
100
AcDbEntity
  8
A-DETL
100
AcDbLine
 10
3.20450698012852
 20
4.503698898954318
 30
0.0
 11
3.274506980128521
 21
4.503698898954318
 31
0.0
1001
REVIT
1002
{
1070
     1
1000
151597
1002
}
1002
{
1070
     2
1000
-2000051
1002
}
1002
{
1070
     3
1000
151262
1002
}
  0
LINE
  5
156
330
70
100
AcDbEntity
  8
A-DETL
100
AcDbLine
 10
3.274506980128521
 20
4.503698898954318
 30
0.0
 11
3.274506980128521
 21
4.448698898954318
 31
0.0
1001
REVIT
1002
{
1070
     1
1000
151598
1002
}
1002
{
1070
     2
1000
-2000051
1002
}
1002
{
1070
     3
1000
151262
1002
}
  0
LINE
  5
157
330
70
100
AcDbEntity
  8
A-DETL
100
AcDbLine
 10
3.274506980128521
 20
4.448698898954318
 30
0.0
 11
3.316506980128521
 21
4.448698898954318
 31
0.0
1001
REVIT
1002
{
1070
     1
1000
151599
1002
}
1002
{
1070
     2
1000
-2000051
1002
}
1002
{
1070
     3
1000
151262
1002
}
  0
LINE
  5
158
330
70
100
AcDbEntity
  8
A-DETL
100
AcDbLine
 10
3.316506980128521
 20
4.448698898954318
 30
0.0
 11
3.316506980128521
 21
4.628698898954318
 31
0.0
1001
REVIT
1002
{
1070
     1
1000
151600
1002
}
1002
{
1070
     2
1000
-2000051
1002
}
1002
{
1070
     3
1000
151262
1002
}
  0
LINE
  5
159
330
70
100
AcDbEntity
  8
A-DETL
100
AcDbLine
 10
3.316506980128521
 20
4.628698898954318
 30
0.0
 11
3.274506980128521
 21
4.628698898954318
 31
0.0
1001
REVIT
1002
{
1070
     1
1000
151601
1002
}
1002
{
1070
     2
1000
-2000051
1002
}
1002
{
1070
     3
1000
151262
1002
}
  0
LINE
  5
15A
330
70
100
AcDbEntity
  8
A-DETL
100
AcDbLine
 10
3.274506980128521
 20
4.628698898954318
 30
0.0
 11
3.274506980128521
 21
4.573698898954318
 31
0.0
1001
REVIT
1002
{
1070
     1
1000
151602
1002
}
1002
{
1070
     2
1000
-2000051
1002
}
1002
{
1070
     3
1000
151262
1002
}
  0
LINE
  5
15B
330
70
100
AcDbEntity
  8
A-DETL
100
AcDbLine
 10
3.274506980128521
 20
4.573698898954318
 30
0.0
 11
3.204504986343859
 21
4.573698898954318
 31
0.0
1001
REVIT
1002
{
1070
     1
1000
151603
1002
}
1002
{
1070
     2
1000
-2000051
1002
}
1002
{
1070
     3
1000
151262
1002
}
  0
LINE
  5
15C
330
70
100
AcDbEntity
  8
A-DETL
100
AcDbLine
 10
3.981508902557838
 20
0.1012170615164595
 30
0.0
 11
3.981508902557838
 21
0.0626866696208985
 31
0.0
1001
REVIT
1002
{
1070
     1
1000
152093
1002
}
1002
{
1070
     2
1000
-2000051
1002
}
1002
{
1070
     3
1000
151260
1002
}
  0
LINE
  5
15D
330
70
100
AcDbEntity
  8
A-DETL
100
AcDbLine
 10
-0.2684910974421608
 20
0.0626866696208985
 30
0.0
 11
-0.2684910974421608
 21
0.1012170615164592
 31
0.0
1001
REVIT
1002
{
1070
     1
1000
152126
1002
}
1002
{
1070
     2
1000
-2000051
1002
}
1002
{
1070
     3
1000
151260
1002
}
  0
LINE
  5
15E
330
70
100
AcDbEntity
  8
A-DETL
100
AcDbLine
 10
2.079927672636485
 20
1.117222053963725
 30
0.0
 11
2.140502440902229
 21
1.117222053963725
 31
0.0
1001
REVIT
1002
{
1070
     1
1000
152360
1002
}
1002
{
1070
     2
1000
-2000051
1002
}
1002
{
1070
     3
1000
151264
1002
}
  0
LINE
  5
15F
330
70
100
AcDbEntity
  8
A-DETL
100
AcDbLine
 10
2.714521912352071
 20
1.013779838337188
 30
0.0
 11
2.667973293935148
 21
1.013779838337188
 31
0.0
1001
REVIT
1002
{
1070
     1
1000
152409
1002
}
1002
{
1070
     2
1000
-2000051
1002
}
1002
{
1070
     3
1000
151262
1002
}
  0
LINE
  5
160
330
70
100
AcDbEntity
  8
A-DETL
100
AcDbLine
 10
2.667973293935148
 20
1.013779838337188
 30
0.0
 11
2.575852849896615
 21
0.968804712633778
 31
0.0
1001
REVIT
1002
{
1070
     1
1000
152410
1002
}
1002
{
1070
     2
1000
-2000051
1002
}
1002
{
1070
     3
1000
151262
1002
}
  0
LINE
  5
161
330
70
100
AcDbEntity
  8
A-DETL
100
AcDbLine
 10
2.575852849896615
 20
0.968804712633778
 30
0.0
 11
2.587014628713672
 21
1.096163599299892
 31
0.0
1001
REVIT
1002
{
1070
     1
1000
152411
1002
}
1002
{
1070
     2
1000
-2000051
1002
}
1002
{
1070
     3
1000
151262
1002
}
  0
LINE
  5
162
330
70
100
AcDbEntity
  8
A-DETL
100
AcDbLine
 10
2.587014628713672
 20
1.096163599299892
 30
0.0
 11
2.71522521398495
 21
1.061788988671894
 31
0.0
1001
REVIT
1002
{
1070
     1
1000
152412
1002
}
1002
{
1070
     2
1000
-2000051
1002
}
1002
{
1070
     3
1000
151262
1002
}
  0
LINE
  5
163
330
70
100
AcDbEntity
  8
A-DETL
100
AcDbLine
 10
2.71522521398495
 20
1.061788988671894
 30
0.0
 11
2.71522521398495
 21
1.272244128495825
 31
0.0
1001
REVIT
1002
{
1070
     1
1000
152413
1002
}
1002
{
1070
     2
1000
-2000051
1002
}
1002
{
1070
     3
1000
151262
1002
}
  0
LINE
  5
164
330
70
100
AcDbEntity
  8
A-DETL
100
AcDbLine
 10
2.71522521398495
 20
1.272244128495825
 30
0.0
 11
2.616072201737185
 21
1.211741357871499
 31
0.0
1001
REVIT
1002
{
1070
     1
1000
152414
1002
}
1002
{
1070
     2
1000
-2000051
1002
}
1002
{
1070
     3
1000
151262
1002
}
  0
LINE
  5
165
330
70
100
AcDbEntity
  8
A-DETL
100
AcDbLine
 10
2.486460112702033
 20
1.017545952395034
 30
0.0
 11
2.556254070399754
 21
1.117222053963725
 31
0.0
1001
REVIT
1002
{
1070
     1
1000
152415
1002
}
1002
{
1070
     2
1000
-2000051
1002
}
1002
{
1070
     3
1000
151264
1002
}
  0
LINE
  5
166
330
70
100
AcDbEntity
  8
A-DETL
100
AcDbLine
 10
2.616828838665497
 20
1.117222053963725
 30
0.0
 11
2.712120130068157
 21
1.074795637571167
 31
0.0
1001
REVIT
1002
{
1070
     1
1000
152416
1002
}
1002
{
1070
     2
1000
-2000051
1002
}
1002
{
1070
     3
1000
151264
1002
}
  0
LINE
  5
167
330
70
100
AcDbEntity
  8
A-DETL
100
AcDbLine
 10
2.712120130068157
 20
1.074795637571167
 30
0.0
 11
2.712120130068157
 21
1.261293412598868
 31
0.0
1001
REVIT
1002
{
1070
     1
1000
152417
1002
}
1002
{
1070
     2
1000
-2000051
1002
}
1002
{
1070
     3
1000
151264
1002
}
  0
LINE
  5
168
330
70
100
AcDbEntity
  8
A-DETL
100
AcDbLine
 10
2.712120130068157
 20
1.261293412598868
 30
0.0
 11
2.608091827771707
 21
1.201232644264653
 31
0.0
1001
REVIT
1002
{
1070
     1
1000
152418
1002
}
1002
{
1070
     2
1000
-2000051
1002
}
1002
{
1070
     3
1000
151264
1002
}
  0
LINE
  5
169
330
70
100
AcDbEntity
  8
A-DETL
100
AcDbLine
 10
2.608091827771707
 20
1.201232644264653
 30
0.0
 11
2.538179732402784
 21
1.201232644264653
 31
0.0
1001
REVIT
1002
{
1070
     1
1000
152419
1002
}
1002
{
1070
     2
1000
-2000051
1002
}
1002
{
1070
     3
1000
151264
1002
}
  0
LINE
  5
16A
330
70
100
AcDbEntity
  8
A-DETL
100
AcDbLine
 10
2.616828838665497
 20
1.117222053963725
 30
0.0
 11
2.556254070399754
 21
1.117222053963725
 31
0.0
1001
REVIT
1002
{
1070
     1
1000
152421
1002
}
1002
{
1070
     2
1000
-2000051
1002
}
1002
{
1070
     3
1000
151264
1002
}
  0
LINE
  5
16B
330
70
100
AcDbEntity
  8
A-DETL
100
AcDbLine
 10
2.773498713409979
 20
0.8680499068891254
 30
0.0
 11
2.773498713409979
 21
0.7668589904243567
 31
0.0
1001
REVIT
1002
{
1070
     1
1000
152556
1002
}
1002
{
1070
     2
1000
-2000051
1002
}
1002
{
1070
     3
1000
151256
1002
}
  0
LINE
  5
16C
330
70
100
AcDbEntity
  8
A-DETL
100
AcDbLine
 10
2.840371578791849
 20
0.8168499068891177
 30
0.0
 11
2.840371578791849
 21
0.7668589904243565
 31
0.0
1001
REVIT
1002
{
1070
     1
1000
152661
1002
}
1002
{
1070
     2
1000
-2000051
1002
}
1002
{
1070
     3
1000
151256
1002
}
  0
LINE
  5
16D
330
70
100
AcDbEntity
  8
A-DETL
100
AcDbLine
 10
2.773498713409979
 20
0.7668589904243567
 30
0.0
 11
2.840371578791849
 21
0.7668589904243565
 31
0.0
1001
REVIT
1002
{
1070
     1
1000
152698
1002
}
1002
{
1070
     2
1000
-2000051
1002
}
1002
{
1070
     3
1000
151256
1002
}
  0
LINE
  5
16E
330
70
100
AcDbEntity
  8
A-DETL
100
AcDbLine
 10
3.842078135463586
 20
0.8680499068891172
 30
0.0
 11
3.842078135463586
 21
0.7668589904243567
 31
0.0
1001
REVIT
1002
{
1070
     1
1000
152781
1002
}
1002
{
1070
     2
1000
-2000051
1002
}
1002
{
1070
     3
1000
151256
1002
}
  0
LINE
  5
16F
330
70
100
AcDbEntity
  8
A-DETL
100
AcDbLine
 10
3.763079546792043
 20
0.8168499068891133
 30
0.0
 11
3.763079546792043
 21
0.7668589904243565
 31
0.0
1001
REVIT
1002
{
1070
     1
1000
152782
1002
}
1002
{
1070
     2
1000
-2000051
1002
}
1002
{
1070
     3
1000
151256
1002
}
  0
LINE
  5
170
330
70
100
AcDbEntity
  8
A-DETL
100
AcDbLine
 10
3.842078135463586
 20
0.7668589904243567
 30
0.0
 11
3.763079546792043
 21
0.7668589904243565
 31
0.0
1001
REVIT
1002
{
1070
     1
1000
152783
1002
}
1002
{
1070
     2
1000
-2000051
1002
}
1002
{
1070
     3
1000
151256
1002
}
  0
LINE
  5
171
330
70
100
AcDbEntity
  8
A-DETL
100
AcDbLine
 10
3.748553082791933
 20
0.8037003337416823
 30
0.0
 11
3.707593082791822
 21
0.8037003337416829
 31
0.0
1001
REVIT
1002
{
1070
     1
1000
152897
1002
}
1002
{
1070
     2
1000
-2000051
1002
}
1002
{
1070
     3
1000
151256
1002
}
  0
LINE
  5
172
330
70
100
AcDbEntity
  8
A-DETL
100
AcDbLine
 10
3.748553082791933
 20
0.7533916028891116
 30
0.0
 11
3.748553082791933
 21
0.8037003337416823
 31
0.0
1001
REVIT
1002
{
1070
     1
1000
153011
1002
}
1002
{
1070
     2
1000
-2000051
1002
}
1002
{
1070
     3
1000
151256
1002
}
  0
LINE
  5
173
330
70
100
AcDbEntity
  8
A-DETL
100
AcDbLine
 10
2.858010073144831
 20
0.8037003337416932
 30
0.0
 11
2.90682508279184
 21
0.803700333741693
 31
0.0
1001
REVIT
1002
{
1070
     1
1000
153052
1002
}
1002
{
1070
     2
1000
-2000051
1002
}
1002
{
1070
     3
1000
151256
1002
}
  0
LINE
  5
174
330
70
100
AcDbEntity
  8
A-DETL
100
AcDbLine
 10
2.858010073144831
 20
0.8037003337416932
 30
0.0
 11
2.858010073144831
 21
0.7533916028891199
 31
0.0
1001
REVIT
1002
{
1070
     1
1000
153140
1002
}
1002
{
1070
     2
1000
-2000051
1002
}
1002
{
1070
     3
1000
151256
1002
}
  0
LINE
  5
175
330
70
100
AcDbEntity
  8
A-DETL
100
AcDbLine
 10
3.317350562791943
 20
0.6305813826122248
 30
0.0
 11
3.317350562791943
 21
0.416123250889152
 31
0.0
1001
REVIT
1002
{
1070
     1
1000
153367
1002
}
1002
{
1070
     2
1000
-2000051
1002
}
1002
{
1070
     3
1000
151256
1002
}
  0
LINE
  5
176
330
70
100
AcDbEntity
  8
A-DETL
100
AcDbLine
 10
3.286100562791944
 20
0.6305813826122251
 30
0.0
 11
3.286100562791943
 21
0.416123250889152
 31
0.0
1001
REVIT
1002
{
1070
     1
1000
153425
1002
}
1002
{
1070
     2
1000
-2000051
1002
}
1002
{
1070
     3
1000
151256
1002
}
  0
LINE
  5
177
330
70
100
AcDbEntity
  8
A-DETL
100
AcDbLine
 10
3.317350562791943
 20
0.416123250889152
 30
0.0
 11
3.286100562791943
 21
0.416123250889152
 31
0.0
1001
REVIT
1002
{
1070
     1
1000
153609
1002
}
1002
{
1070
     2
1000
-2000051
1002
}
1002
{
1070
     3
1000
151256
1002
}
  0
LINE
  5
178
330
70
100
AcDbEntity
  8
A-DETL
100
AcDbLine
 10
3.457591012158601
 20
0.6610981908699996
 30
0.0
 11
3.530974749888318
 21
0.4594816102292283
 31
0.0
1001
REVIT
1002
{
1070
     1
1000
153652
1002
}
1002
{
1070
     2
1000
-2000051
1002
}
1002
{
1070
     3
1000
151256
1002
}
  0
LINE
  5
179
330
70
100
AcDbEntity
  8
A-DETL
100
AcDbLine
 10
3.428259264947741
 20
0.6503176181406625
 30
0.0
 11
3.501609416513778
 21
0.448793313086929
 31
0.0
1001
REVIT
1002
{
1070
     1
1000
153653
1002
}
1002
{
1070
     2
1000
-2000051
1002
}
1002
{
1070
     3
1000
151256
1002
}
  0
LINE
  5
17A
330
70
100
AcDbEntity
  8
A-DETL
100
AcDbLine
 10
3.530974749888318
 20
0.4594816102292285
 30
0.0
 11
3.501609416513778
 21
0.4487933130869291
 31
0.0
1001
REVIT
1002
{
1070
     1
1000
153655
1002
}
1002
{
1070
     2
1000
-2000051
1002
}
1002
{
1070
     3
1000
151256
1002
}
  0
LINE
  5
17B
330
70
100
AcDbEntity
  8
A-DETL
100
AcDbLine
 10
3.577743766984552
 20
0.7372512780999771
 30
0.0
 11
3.715657848893437
 21
0.5728911798351201
 31
0.0
1001
REVIT
1002
{
1070
     1
1000
153715
1002
}
1002
{
1070
     2
1000
-2000051
1002
}
1002
{
1070
     3
1000
151256
1002
}
  0
LINE
  5
17C
330
70
100
AcDbEntity
  8
A-DETL
100
AcDbLine
 10
3.553868144311632
 20
0.7170887673790264
 30
0.0
 11
3.691718930216558
 21
0.5528041025817773
 31
0.0
1001
REVIT
1002
{
1070
     1
1000
153716
1002
}
1002
{
1070
     2
1000
-2000051
1002
}
1002
{
1070
     3
1000
151256
1002
}
  0
LINE
  5
17D
330
70
100
AcDbEntity
  8
A-DETL
100
AcDbLine
 10
3.715657848893437
 20
0.5728911798351199
 30
0.0
 11
3.691718930216558
 21
0.5528041025817773
 31
0.0
1001
REVIT
1002
{
1070
     1
1000
153718
1002
}
1002
{
1070
     2
1000
-2000051
1002
}
1002
{
1070
     3
1000
151256
1002
}
  0
LINE
  5
17E
330
70
100
AcDbEntity
  8
A-DETL
100
AcDbLine
 10
3.177647346636546
 20
0.6495285964072627
 30
0.0
 11
3.104265102085682
 21
0.4479113240625826
 31
0.0
1001
REVIT
1002
{
1070
     1
1000
153774
1002
}
1002
{
1070
     2
1000
-2000051
1002
}
1002
{
1070
     3
1000
151256
1002
}
  0
LINE
  5
17F
330
70
100
AcDbEntity
  8
A-DETL
100
AcDbLine
 10
3.14824829848183
 20
0.6601242623979463
 30
0.0
 11
3.074899687028741
 21
0.4585993967856482
 31
0.0
1001
REVIT
1002
{
1070
     1
1000
153775
1002
}
1002
{
1070
     2
1000
-2000051
1002
}
1002
{
1070
     3
1000
151256
1002
}
  0
LINE
  5
180
330
70
100
AcDbEntity
  8
A-DETL
100
AcDbLine
 10
3.104265102085682
 20
0.4479113240625827
 30
0.0
 11
3.074899687028741
 21
0.4585993967856484
 31
0.0
1001
REVIT
1002
{
1070
     1
1000
153777
1002
}
1002
{
1070
     2
1000
-2000051
1002
}
1002
{
1070
     3
1000
151256
1002
}
  0
LINE
  5
181
330
70
100
AcDbEntity
  8
A-DETL
100
AcDbLine
 10
3.051621283164263
 20
0.7155069118755064
 30
0.0
 11
2.913706419964691
 21
0.5511474071301576
 31
0.0
1001
REVIT
1002
{
1070
     1
1000
153852
1002
}
1002
{
1070
     2
1000
-2000051
1002
}
1002
{
1070
     3
1000
151256
1002
}
  0
LINE
  5
182
330
70
100
AcDbEntity
  8
A-DETL
100
AcDbLine
 10
3.027619129329199
 20
0.7355186288741917
 30
0.0
 11
2.889767593037936
 21
0.571234593726862
 31
0.0
1001
REVIT
1002
{
1070
     1
1000
153853
1002
}
1002
{
1070
     2
1000
-2000051
1002
}
1002
{
1070
     3
1000
151256
1002
}
  0
LINE
  5
183
330
70
100
AcDbEntity
  8
A-DETL
100
AcDbLine
 10
2.913706419964691
 20
0.5511474071301578
 30
0.0
 11
2.889767593037936
 21
0.5712345937268621
 31
0.0
1001
REVIT
1002
{
1070
     1
1000
153855
1002
}
1002
{
1070
     2
1000
-2000051
1002
}
1002
{
1070
     3
1000
151256
1002
}
  0
LINE
  5
184
330
70
100
AcDbEntity
  8
A-DETL
100
AcDbLine
 10
3.921508485448124
 20
1.037761285648495
 30
0.0
 11
3.921508485448124
 21
0.9877527612994205
 31
0.0
1001
REVIT
1002
{
1070
     1
1000
154045
1002
}
1002
{
1070
     2
1000
-2000051
1002
}
1002
{
1070
     3
1000
151262
1002
}
  0
LINE
  5
185
330
70
100
AcDbEntity
  8
A-DETL
100
AcDbLine
 10
3.741508504591332
 20
1.037761285648495
 30
0.0
 11
3.741508504591332
 21
0.9877527612994205
 31
0.0
1001
REVIT
1002
{
1070
     1
1000
154075
1002
}
1002
{
1070
     2
1000
-2000051
1002
}
1002
{
1070
     3
1000
151262
1002
}
  0
LINE
  5
186
330
70
100
AcDbEntity
  8
A-DETL
100
AcDbLine
 10
3.741508504591332
 20
0.9877527612994205
 30
0.0
 11
3.776278854377026
 21
0.9877527612994201
 31
0.0
1001
REVIT
1002
{
1070
     1
1000
154101
1002
}
1002
{
1070
     2
1000
-2000051
1002
}
1002
{
1070
     3
1000
151262
1002
}
  0
LINE
  5
187
330
70
100
AcDbEntity
  8
A-DETL
100
AcDbLine
 10
3.776278854377026
 20
0.9877527612994201
 30
0.0
 11
3.776278854377026
 21
0.9377126268891148
 31
0.0
1001
REVIT
1002
{
1070
     1
1000
154159
1002
}
1002
{
1070
     2
1000
-2000051
1002
}
1002
{
1070
     3
1000
151262
1002
}
  0
LINE
  5
188
330
70
100
AcDbEntity
  8
A-DETL
100
AcDbLine
 10
3.921508485448124
 20
0.9877527612994205
 30
0.0
 11
3.886738135662431
 21
0.9877527612994201
 31
0.0
1001
REVIT
1002
{
1070
     1
1000
154227
1002
}
1002
{
1070
     2
1000
-2000051
1002
}
1002
{
1070
     3
1000
151262
1002
}
  0
LINE
  5
189
330
70
100
AcDbEntity
  8
A-DETL
100
AcDbLine
 10
3.886738135662431
 20
0.9877527612994201
 30
0.0
 11
3.886738135662431
 21
0.9376987465370044
 31
0.0
1001
REVIT
1002
{
1070
     1
1000
154228
1002
}
1002
{
1070
     2
1000
-2000051
1002
}
1002
{
1070
     3
1000
151262
1002
}
  0
LINE
  5
18A
330
70
100
AcDbEntity
  8
A-DETL
100
AcDbLine
 10
2.264298945233599
 20
3.805194447022959
 30
0.0
 11
2.301843718566223
 21
3.805194447022959
 31
0.0
1001
REVIT
1002
{
1070
     1
1000
154352
1002
}
1002
{
1070
     2
1000
-2000051
1002
}
1002
{
1070
     3
1000
151264
1002
}
  0
LINE
  5
18B
330
70
100
AcDbEntity
  8
A-DETL
100
AcDbLine
 10
2.743410787982274
 20
3.805194447022762
 30
0.0
 11
2.780955561314318
 21
3.805194447022762
 31
0.0
1001
REVIT
1002
{
1070
     1
1000
154477
1002
}
1002
{
1070
     2
1000
-2000051
1002
}
1002
{
1070
     3
1000
151264
1002
}
  0
LINE
  5
18C
330
70
100
AcDbEntity
  8
A-DETL
100
AcDbLine
 10
3.990506980128516
 20
4.005378680443361
 30
0.0
 11
3.974766578727455
 21
3.977611174015607
 31
0.0
1001
REVIT
1002
{
1070
     1
1000
154686
1002
}
1002
{
1070
     2
1000
-2000051
1002
}
1002
{
1070
     3
1000
151262
1002
}
  0
LINE
  5
18D
330
70
100
AcDbEntity
  8
A-DETL
100
AcDbLine
 10
3.997872831407081
 20
4.001698898954312
 30
0.0
 11
3.981349542629834
 21
3.972550307654795
 31
0.0
1001
REVIT
1002
{
1070
     1
1000
154836
1002
}
1002
{
1070
     2
1000
-2000051
1002
}
1002
{
1070
     3
1000
151262
1002
}
  0
LINE
  5
18E
330
70
100
AcDbEntity
  8
A-DETL
100
AcDbLine
 10
3.95435510695453
 20
3.869333822344731
 30
0.0
 11
3.920506980128507
 21
3.881892283850445
 31
0.0
1001
REVIT
1002
{
1070
     1
1000
154877
1002
}
1002
{
1070
     2
1000
-2000051
1002
}
1002
{
1070
     3
1000
151262
1002
}
  0
LINE
  5
18F
330
70
100
AcDbEntity
  8
A-DETL
100
AcDbLine
 10
3.365341282770355
 20
3.888831616769798
 30
0.0
 11
3.365341282770355
 21
3.811686857644584
 31
0.0
1001
REVIT
1002
{
1070
     1
1000
154949
1002
}
1002
{
1070
     2
1000
-2000051
1002
}
1002
{
1070
     3
1000
151262
1002
}
  0
LINE
  5
190
330
70
100
AcDbEntity
  8
A-DETL
100
AcDbLine
 10
3.502522892307993
 20
3.883698898954288
 30
0.0
 11
3.379406887868561
 21
3.883698898954288
 31
0.0
1001
REVIT
1002
{
1070
     1
1000
155002
1002
}
1002
{
1070
     2
1000
-2000051
1002
}
1002
{
1070
     3
1000
151262
1002
}
  0
LINE
  5
191
330
70
100
AcDbEntity
  8
A-DETL
100
AcDbLine
 10
3.365341282770355
 20
3.888831616769798
 30
0.0
 11
3.42505747909545
 21
3.888831616769798
 31
0.0
1001
REVIT
1002
{
1070
     1
1000
155088
1002
}
1002
{
1070
     2
1000
-2000051
1002
}
1002
{
1070
     3
1000
151262
1002
}
  0
LINE
  5
192
330
70
100
AcDbEntity
  8
A-DETL
100
AcDbLine
 10
3.379406887868561
 20
3.82869889895431
 30
0.0
 11
3.379406887868561
 21
3.883698898954288
 31
0.0
1001
REVIT
1002
{
1070
     1
1000
155164
1002
}
1002
{
1070
     2
1000
-2000051
1002
}
1002
{
1070
     3
1000
151262
1002
}
  0
LINE
  5
193
330
70
100
AcDbEntity
  8
A-DETL
100
AcDbLine
 10
3.42505747909545
 20
3.888831616769798
 30
0.0
 11
3.42505747909545
 21
3.936596993856194
 31
0.0
1001
REVIT
1002
{
1070
     1
1000
155218
1002
}
1002
{
1070
     2
1000
-2000051
1002
}
1002
{
1070
     3
1000
151262
1002
}
  0
LINE
  5
194
330
70
100
AcDbEntity
  8
A-DETL
100
AcDbLine
 10
3.265903657926312
 20
4.441879963992978
 30
0.0
 11
3.32436900381124
 21
4.441879963992978
 31
0.0
1001
REVIT
1002
{
1070
     1
1000
155301
1002
}
1002
{
1070
     2
1000
-2000051
1002
}
1002
{
1070
     3
1000
151262
1002
}
  0
LINE
  5
195
330
70
100
AcDbEntity
  8
A-DETL
100
AcDbLine
 10
3.32436900381124
 20
4.441879963992978
 30
0.0
 11
3.32436900381124
 21
4.635765500212235
 31
0.0
1001
REVIT
1002
{
1070
     1
1000
155366
1002
}
1002
{
1070
     2
1000
-2000051
1002
}
1002
{
1070
     3
1000
151262
1002
}
  0
LINE
  5
196
330
70
100
AcDbEntity
  8
A-DETL
100
AcDbLine
 10
3.32436900381124
 20
4.635765500212235
 30
0.0
 11
3.265903657926312
 21
4.635765500212235
 31
0.0
1001
REVIT
1002
{
1070
     1
1000
155395
1002
}
1002
{
1070
     2
1000
-2000051
1002
}
1002
{
1070
     3
1000
151262
1002
}
  0
LINE
  5
197
330
70
100
AcDbEntity
  8
A-DETL
100
AcDbLine
 10
3.265903657926312
 20
4.441879963992978
 30
0.0
 11
3.265903657926312
 21
4.492864633408473
 31
0.0
1001
REVIT
1002
{
1070
     1
1000
155458
1002
}
1002
{
1070
     2
1000
-2000051
1002
}
1002
{
1070
     3
1000
151262
1002
}
  0
LINE
  5
198
330
70
100
AcDbEntity
  8
A-DETL
100
AcDbLine
 10
3.265903657926312
 20
4.492864633408473
 30
0.0
 11
3.216506980128555
 21
4.492864633408473
 31
0.0
1001
REVIT
1002
{
1070
     1
1000
155490
1002
}
1002
{
1070
     2
1000
-2000051
1002
}
1002
{
1070
     3
1000
151262
1002
}
  0
LINE
  5
199
330
70
100
AcDbEntity
  8
A-DETL
100
AcDbLine
 10
3.265903657926312
 20
4.635765500212235
 30
0.0
 11
3.265903657926312
 21
4.583341184108368
 31
0.0
1001
REVIT
1002
{
1070
     1
1000
155570
1002
}
1002
{
1070
     2
1000
-2000051
1002
}
1002
{
1070
     3
1000
151262
1002
}
  0
LINE
  5
19A
330
70
100
AcDbEntity
  8
A-DETL
100
AcDbLine
 10
3.265903657926312
 20
4.583341184108368
 30
0.0
 11
3.216506980128555
 21
4.583341184108368
 31
0.0
1001
REVIT
1002
{
1070
     1
1000
155612
1002
}
1002
{
1070
     2
1000
-2000051
1002
}
1002
{
1070
     3
1000
151262
1002
}
  0
LINE
  5
19B
330
70
100
AcDbEntity
  8
A-DETL
100
AcDbLine
 10
3.204504986343859
 20
4.573698898954318
 30
0.0
 11
3.204504986343859
 21
4.711461597392117
 31
0.0
1001
REVIT
1002
{
1070
     1
1000
155674
1002
}
1002
{
1070
     2
1000
-2000051
1002
}
1002
{
1070
     3
1000
151262
1002
}
  0
LINE
  5
19C
330
70
100
AcDbEntity
  8
A-DETL
100
AcDbLine
 10
3.20450698012852
 20
4.503698898954318
 30
0.0
 11
3.20450698012852
 21
4.365956361579286
 31
0.0
1001
REVIT
1002
{
1070
     1
1000
155735
1002
}
1002
{
1070
     2
1000
-2000051
1002
}
1002
{
1070
     3
1000
151262
1002
}
  0
LINE
  5
19D
330
70
100
AcDbEntity
  8
A-DETL
100
AcDbLine
 10
3.164701916171174
 20
4.421326833741706
 30
0.0
 11
3.164701916171174
 21
4.65609142969127
 31
0.0
1001
REVIT
1002
{
1070
     1
1000
155863
1002
}
1002
{
1070
     2
1000
-2000051
1002
}
1002
{
1070
     3
1000
151262
1002
}
  0
LINE
  5
19E
330
70
100
AcDbEntity
  8
A-DETL
100
AcDbLine
 10
2.018910676866003
 20
4.687607948767814
 30
0.0
 11
2.018910676866003
 21
4.583341184108368
 31
0.0
1001
REVIT
1002
{
1070
     1
1000
156521
1002
}
1002
{
1070
     2
1000
-2000051
1002
}
1002
{
1070
     3
1000
151262
1002
}
  0
LINE
  5
19F
330
70
100
AcDbEntity
  8
A-DETL
100
AcDbLine
 10
1.918910676866037
 20
4.628698898954318
 30
0.0
 11
1.918910676866037
 21
4.448698898954318
 31
0.0
1001
REVIT
1002
{
1070
     1
1000
156522
1002
}
1002
{
1070
     2
1000
-2000051
1002
}
1002
{
1070
     3
1000
151262
1002
}
  0
LINE
  5
1A0
330
70
100
AcDbEntity
  8
A-DETL
100
AcDbLine
 10
2.018910676866003
 20
4.492864633408473
 30
0.0
 11
2.018910676866003
 21
4.250602233074952
 31
0.0
1001
REVIT
1002
{
1070
     1
1000
156523
1002
}
1002
{
1070
     2
1000
-2000051
1002
}
1002
{
1070
     3
1000
151262
1002
}
  0
ARC
  5
1A1
330
70
100
AcDbEntity
  8
A-DETL
100
AcDbCircle
 10
2.004531425772664
 20
4.538709131716488
 30
0.0
 40
0.1747552130218843
100
AcDbArc
 50
278.6819684274069
 51
81.31737030651335
1001
REVIT
1002
{
1070
     1
1000
156525
1002
}
1002
{
1070
     2
1000
-2000051
1002
}
1002
{
1070
     3
1000
151262
1002
}
  0
ARC
  5
1A2
330
70
100
AcDbEntity
  8
A-DETL
100
AcDbCircle
 10
2.004531425772664
 20
4.538709131716488
 30
0.0
 40
0.1347552130218844
100
AcDbArc
 50
299.4158502986068
 51
60.58414970139301
1001
REVIT
1002
{
1070
     1
1000
156526
1002
}
1002
{
1070
     2
1000
-2000051
1002
}
1002
{
1070
     3
1000
151262
1002
}
  0
LINE
  5
1A3
330
70
100
AcDbEntity
  8
A-DETL
100
AcDbLine
 10
2.030910676866038
 20
4.503698898954318
 30
0.0
 11
1.960910676866037
 21
4.503698898954318
 31
0.0
1001
REVIT
1002
{
1070
     1
1000
156527
1002
}
1002
{
1070
     2
1000
-2000051
1002
}
1002
{
1070
     3
1000
151262
1002
}
  0
LINE
  5
1A4
330
70
100
AcDbEntity
  8
A-DETL
100
AcDbLine
 10
1.960910676866037
 20
4.503698898954318
 30
0.0
 11
1.960910676866037
 21
4.448698898954318
 31
0.0
1001
REVIT
1002
{
1070
     1
1000
156528
1002
}
1002
{
1070
     2
1000
-2000051
1002
}
1002
{
1070
     3
1000
151262
1002
}
  0
LINE
  5
1A5
330
70
100
AcDbEntity
  8
A-DETL
100
AcDbLine
 10
1.960910676866037
 20
4.448698898954318
 30
0.0
 11
1.918910676866037
 21
4.448698898954318
 31
0.0
1001
REVIT
1002
{
1070
     1
1000
156529
1002
}
1002
{
1070
     2
1000
-2000051
1002
}
1002
{
1070
     3
1000
151262
1002
}
  0
LINE
  5
1A6
330
70
100
AcDbEntity
  8
A-DETL
100
AcDbLine
 10
1.918910676866037
 20
4.448698898954318
 30
0.0
 11
1.918910676866037
 21
4.628698898954318
 31
0.0
1001
REVIT
1002
{
1070
     1
1000
156530
1002
}
1002
{
1070
     2
1000
-2000051
1002
}
1002
{
1070
     3
1000
151262
1002
}
  0
LINE
  5
1A7
330
70
100
AcDbEntity
  8
A-DETL
100
AcDbLine
 10
1.918910676866037
 20
4.628698898954318
 30
0.0
 11
1.960910676866037
 21
4.628698898954318
 31
0.0
1001
REVIT
1002
{
1070
     1
1000
156531
1002
}
1002
{
1070
     2
1000
-2000051
1002
}
1002
{
1070
     3
1000
151262
1002
}
  0
LINE
  5
1A8
330
70
100
AcDbEntity
  8
A-DETL
100
AcDbLine
 10
1.960910676866037
 20
4.628698898954318
 30
0.0
 11
1.960910676866037
 21
4.573698898954318
 31
0.0
1001
REVIT
1002
{
1070
     1
1000
156532
1002
}
1002
{
1070
     2
1000
-2000051
1002
}
1002
{
1070
     3
1000
151262
1002
}
  0
LINE
  5
1A9
330
70
100
AcDbEntity
  8
A-DETL
100
AcDbLine
 10
1.960910676866037
 20
4.573698898954318
 30
0.0
 11
2.030912670650699
 21
4.573698898954318
 31
0.0
1001
REVIT
1002
{
1070
     1
1000
156533
1002
}
1002
{
1070
     2
1000
-2000051
1002
}
1002
{
1070
     3
1000
151262
1002
}
  0
LINE
  5
1AA
330
70
100
AcDbEntity
  8
A-DETL
100
AcDbLine
 10
1.969513999068246
 20
4.441879963992978
 30
0.0
 11
1.911048653183319
 21
4.441879963992978
 31
0.0
1001
REVIT
1002
{
1070
     1
1000
156534
1002
}
1002
{
1070
     2
1000
-2000051
1002
}
1002
{
1070
     3
1000
151262
1002
}
  0
LINE
  5
1AB
330
70
100
AcDbEntity
  8
A-DETL
100
AcDbLine
 10
1.911048653183319
 20
4.441879963992978
 30
0.0
 11
1.911048653183319
 21
4.635765500212235
 31
0.0
1001
REVIT
1002
{
1070
     1
1000
156535
1002
}
1002
{
1070
     2
1000
-2000051
1002
}
1002
{
1070
     3
1000
151262
1002
}
  0
LINE
  5
1AC
330
70
100
AcDbEntity
  8
A-DETL
100
AcDbLine
 10
1.911048653183319
 20
4.635765500212235
 30
0.0
 11
1.969513999068246
 21
4.635765500212235
 31
0.0
1001
REVIT
1002
{
1070
     1
1000
156536
1002
}
1002
{
1070
     2
1000
-2000051
1002
}
1002
{
1070
     3
1000
151262
1002
}
  0
LINE
  5
1AD
330
70
100
AcDbEntity
  8
A-DETL
100
AcDbLine
 10
1.969513999068246
 20
4.441879963992978
 30
0.0
 11
1.969513999068246
 21
4.492864633408473
 31
0.0
1001
REVIT
1002
{
1070
     1
1000
156537
1002
}
1002
{
1070
     2
1000
-2000051
1002
}
1002
{
1070
     3
1000
151262
1002
}
  0
LINE
  5
1AE
330
70
100
AcDbEntity
  8
A-DETL
100
AcDbLine
 10
1.969513999068246
 20
4.492864633408473
 30
0.0
 11
2.018910676866003
 21
4.492864633408473
 31
0.0
1001
REVIT
1002
{
1070
     1
1000
156538
1002
}
1002
{
1070
     2
1000
-2000051
1002
}
1002
{
1070
     3
1000
151262
1002
}
  0
LINE
  5
1AF
330
70
100
AcDbEntity
  8
A-DETL
100
AcDbLine
 10
1.969513999068246
 20
4.635765500212235
 30
0.0
 11
1.969513999068246
 21
4.583341184108368
 31
0.0
1001
REVIT
1002
{
1070
     1
1000
156539
1002
}
1002
{
1070
     2
1000
-2000051
1002
}
1002
{
1070
     3
1000
151262
1002
}
  0
LINE
  5
1B0
330
70
100
AcDbEntity
  8
A-DETL
100
AcDbLine
 10
1.969513999068246
 20
4.583341184108368
 30
0.0
 11
2.018910676866003
 21
4.583341184108368
 31
0.0
1001
REVIT
1002
{
1070
     1
1000
156540
1002
}
1002
{
1070
     2
1000
-2000051
1002
}
1002
{
1070
     3
1000
151262
1002
}
  0
LINE
  5
1B1
330
70
100
AcDbEntity
  8
A-DETL
100
AcDbLine
 10
2.030912670650699
 20
4.573698898954318
 30
0.0
 11
2.030912670650699
 21
4.711461597392117
 31
0.0
1001
REVIT
1002
{
1070
     1
1000
156541
1002
}
1002
{
1070
     2
1000
-2000051
1002
}
1002
{
1070
     3
1000
151262
1002
}
  0
LINE
  5
1B2
330
70
100
AcDbEntity
  8
A-DETL
100
AcDbLine
 10
2.030910676866038
 20
4.503698898954318
 30
0.0
 11
2.030910676866038
 21
4.365956361579286
 31
0.0
1001
REVIT
1002
{
1070
     1
1000
156542
1002
}
1002
{
1070
     2
1000
-2000051
1002
}
1002
{
1070
     3
1000
151262
1002
}
  0
LINE
  5
1B3
330
70
100
AcDbEntity
  8
A-DETL
100
AcDbLine
 10
2.070715740823384
 20
4.421326833741706
 30
0.0
 11
2.070715740823384
 21
4.65609142969127
 31
0.0
1001
REVIT
1002
{
1070
     1
1000
156543
1002
}
1002
{
1070
     2
1000
-2000051
1002
}
1002
{
1070
     3
1000
151262
1002
}
  0
LINE
  5
1B4
330
70
100
AcDbEntity
  8
A-DETL
100
AcDbLine
 10
2.869208828497293
 20
9.687607948767807
 30
0.0
 11
3.118208828497278
 21
9.687607948767807
 31
0.0
1001
REVIT
1002
{
1070
     1
1000
156778
1002
}
1002
{
1070
     2
1000
-2000051
1002
}
1002
{
1070
     3
1000
151252
1002
}
  0
LINE
  5
1B5
330
70
100
AcDbEntity
  8
A-DETL
100
AcDbLine
 10
2.366208828497265
 20
9.687607948767809
 30
0.0
 11
2.118208828497276
 21
9.68760794876781
 31
0.0
1001
REVIT
1002
{
1070
     1
1000
156801
1002
}
1002
{
1070
     2
1000
-2000051
1002
}
1002
{
1070
     3
1000
151252
1002
}
  0
ENDSEC
  0
SECTION
  2
OBJECTS
  0
DICTIONARY
  5
C
330
0
100
AcDbDictionary
281
     1
  3
ACAD_CIP_PREVIOUS_PRODUCT_INFO
350
79
  3
ACAD_COLOR
350
63
  3
ACAD_DETAILVIEWSTYLE
350
6A
  3
ACAD_GROUP
350
D
  3
ACAD_IMAGE_VARS
350
7A
  3
ACAD_LAYOUT
350
62
  3
ACAD_MATERIAL
350
10
  3
ACAD_MLEADERSTYLE
350
66
  3
ACAD_MLINESTYLE
350
5F
  3
ACAD_PLOTSETTINGS
350
61
  3
ACAD_PLOTSTYLENAME
350
E
  3
ACAD_SCALELIST
350
42
  3
ACAD_SECTIONVIEWSTYLE
350
68
  3
ACAD_TABLESTYLE
350
64
  3
ACAD_VISUALSTYLE
350
29
  3
ACDB_RECOMPOSE_DATA
350
1C0
  3
AcDbVariableDictionary
350
7B
  3
REVIT_DICTIONARY
350
1B6
  0
DICTIONARY
  5
1BC
330
70
100
AcDbDictionary
280
     1
281
     1
  3
ACAD_SORTENTS
360
1BD
  0
XRECORD
  5
79
102
{ACAD_REACTORS
330
C
102
}
330
C
100
AcDbXrecord
280
     1
300
RVT
300
2019
300
RVT2019
  0
DICTIONARY
  5
63
102
{ACAD_REACTORS
330
C
102
}
330
C
100
AcDbDictionary
281
     1
  0
DICTIONARY
  5
6A
102
{ACAD_REACTORS
330
C
102
}
330
C
100
AcDbDictionary
281
     1
  3
Imperial24
350
6B
  0
DICTIONARY
  5
D
102
{ACAD_REACTORS
330
C
102
}
330
C
100
AcDbDictionary
281
     1
  0
RASTERVARIABLES
  5
7A
102
{ACAD_REACTORS
330
C
102
}
330
C
100
AcDbRasterVariables
 90
        0
 70
     0
 71
     1
 72
     5
  0
DICTIONARY
  5
62
102
{ACAD_REACTORS
330
C
102
}
330
C
100
AcDbDictionary
281
     1
  3
Layout1
350
6F
  3
Layout2
350
77
  3
Model
350
73
  0
DICTIONARY
  5
10
102
{ACAD_REACTORS
330
C
102
}
330
C
100
AcDbDictionary
281
     1
  3
ByBlock
350
19
  3
ByLayer
350
11
  3
Global
350
21
  0
DICTIONARY
  5
66
102
{ACAD_REACTORS
330
C
102
}
330
C
100
AcDbDictionary
281
     1
  3
Standard
350
67
  0
DICTIONARY
  5
5F
102
{ACAD_REACTORS
330
C
102
}
330
C
100
AcDbDictionary
281
     1
  3
Standard
350
60
  0
DICTIONARY
  5
61
102
{ACAD_REACTORS
330
C
102
}
330
C
100
AcDbDictionary
281
     1
  0
ACDBDICTIONARYWDFLT
  5
E
102
{ACAD_REACTORS
330
C
102
}
330
C
100
AcDbDictionary
281
     1
  3
Normal
350
F
100
AcDbDictionaryWithDefault
340
F
  0
DICTIONARY
  5
42
102
{ACAD_REACTORS
330
C
102
}
330
C
100
AcDbDictionary
281
     1
  3
A0
350
43
  3
A1
350
44
  3
A2
350
45
  3
A3
350
46
  3
A4
350
47
  3
A5
350
48
  3
A6
350
49
  3
A7
350
4A
  3
A8
350
4B
  3
A9
350
4C
  3
B0
350
4D
  3
B1
350
4E
  3
B2
350
4F
  3
B3
350
50
  3
B4
350
51
  3
B5
350
52
  3
B6
350
53
  0
DICTIONARY
  5
68
102
{ACAD_REACTORS
330
C
102
}
330
C
100
AcDbDictionary
281
     1
  3
Imperial24
350
69
  0
DICTIONARY
  5
64
102
{ACAD_REACTORS
330
C
102
}
330
C
100
AcDbDictionary
281
     1
  3
Standard
350
65
  0
DICTIONARY
  5
29
102
{ACAD_REACTORS
330
C
102
}
330
C
100
AcDbDictionary
281
     1
  3
2dWireframe
350
2F
  3
Basic
350
2E
  3
Brighten
350
35
  3
ColorChange
350
39
  3
Conceptual
350
32
  3
Dim
350
34
  3
EdgeColorOff
350
41
  3
Facepattern
350
38
  3
Flat
350
2A
  3
FlatWithEdges
350
2B
  3
Gouraud
350
2C
  3
GouraudWithEdges
350
2D
  3
Hidden
350
31
  3
JitterOff
350
3F
  3
Linepattern
350
37
  3
OverhangOff
350
40
  3
Realistic
350
33
  3
Shaded
350
3E
  3
Shaded with edges
350
3D
  3
Shades of Gray
350
3A
  3
Sketchy
350
3B
  3
Thicken
350
36
  3
Wireframe
350
30
  3
X-Ray
350
3C
  0
XRECORD
  5
1C0
102
{ACAD_REACTORS
330
C
102
}
330
C
100
AcDbXrecord
280
     1
 90
        1
330
65
  0
DICTIONARY
  5
7B
102
{ACAD_REACTORS
330
C
102
}
330
C
100
AcDbDictionary
281
     1
  3
CANNOSCALE
350
80
  3
CMLEADERSTYLE
350
7D
  3
CTABLESTYLE
350
7C
  3
CVIEWDETAILSTYLE
350
7E
  3
CVIEWSECTIONSTYLE
350
7F
  0
DICTIONARY
  5
1B6
102
{ACAD_REACTORS
330
C
102
}
330
C
100
AcDbDictionary
281
     1
  3
DRAWING_TOOL
350
1BB
  3
REVIT_CATEGORY_MAPPING
350
1B9
  3
REVIT_GET_SITE
350
1B7
  3
REVIT_SUB_CATEGORY_MAPPING
350
1BA
  0
SORTENTSTABLE
  5
1BD
102
{ACAD_REACTORS
330
1BC
102
}
330
1BC
100
AcDbSortentsTable
330
70
  0
ACDBDETAILVIEWSTYLE
  5
6B
102
{ACAD_REACTORS
330
6A
102
}
330
6A
100
AcDbModelDocViewStyle
 70
     0
  3
Imperial24
290
     1
300
Imperial24
 90
        0
100
AcDbDetailViewStyle
 70
     0
 71
     0
 90
        3
 71
     1
340
55
 62
   256
 40
0.24
340
0
 62
   256
 40
0.24
300

 40
0.36
280
     3
 71
     2
340
5D
 90
       25
 62
   256
 71
     3
340
55
 62
   256
 40
0.24
 90
        1
 40
0.75
 90
        1
300
%<\AcVar ViewType \f "%tc1">% %<\AcVar ViewDetailId>%\PSCALE %<\AcVar ViewScale \f "%sn">%
 71
     4
340
5D
 90
       25
 62
   256
340
5D
 90
       25
 62
   256
280
     0
  0
LAYOUT
  5
6F
102
{ACAD_REACTORS
330
62
102
}
330
62
100
AcDbPlotSettings
  1

  2

  4

  6

 40
0.0
 41
0.0
 42
0.0
 43
0.0
 44
0.0
 45
0.0
 46
0.0
 47
0.0
 48
0.0
 49
0.0
140
0.0
141
0.0
142
1.0
143
1.0
 70
   688
 72
     0
 73
     0
 74
     5
  7

 75
    16
147
1.0
 76
     0
 77
     2
 78
   300
148
0.0
149
0.0
100
AcDbLayout
  1
Layout1
 70
     1
 71
     1
 10
0.0
 20
0.0
 11
12.0
 21
9.0
 12
0.0
 22
0.0
 32
0.0
 14
0.0
 24
0.0
 34
0.0
 15
0.0
 25
0.0
 35
0.0
146
0.0
 13
0.0
 23
0.0
 33
0.0
 16
1.0
 26
0.0
 36
0.0
 17
0.0
 27
1.0
 37
0.0
 76
     0
330
6C
  0
LAYOUT
  5
77
102
{ACAD_REACTORS
330
62
102
}
330
62
100
AcDbPlotSettings
  1

  2

  4

  6

 40
0.0
 41
0.0
 42
0.0
 43
0.0
 44
0.0
 45
0.0
 46
0.0
 47
0.0
 48
0.0
 49
0.0
140
0.0
141
0.0
142
1.0
143
1.0
 70
   688
 72
     0
 73
     0
 74
     5
  7

 75
    16
147
1.0
 76
     0
 77
     2
 78
   300
148
0.0
149
0.0
100
AcDbLayout
  1
Layout2
 70
     1
 71
     2
 10
0.0
 20
0.0
 11
12.0
 21
9.0
 12
0.0
 22
0.0
 32
0.0
 14
0.0
 24
0.0
 34
0.0
 15
0.0
 25
0.0
 35
0.0
146
0.0
 13
0.0
 23
0.0
 33
0.0
 16
1.0
 26
0.0
 36
0.0
 17
0.0
 27
1.0
 37
0.0
 76
     0
330
74
  0
LAYOUT
  5
73
102
{ACAD_REACTORS
330
62
102
}
330
62
100
AcDbPlotSettings
  1

  2

  4

  6

 40
0.0
 41
0.0
 42
0.0
 43
0.0
 44
0.0
 45
0.0
 46
0.0
 47
0.0
 48
0.0
 49
0.0
140
0.0
141
0.0
142
1.0
143
1.0
 70
  1712
 72
     0
 73
     0
 74
     0
  7

 75
     0
147
1.0
 76
     0
 77
     2
 78
   300
148
0.0
149
0.0
100
AcDbLayout
  1
Model
 70
     1
 71
     0
 10
0.0
 20
0.0
 11
12.0
 21
9.0
 12
0.0
 22
0.0
 32
0.0
 14
0.0
 24
0.0
 34
0.0
 15
0.0
 25
0.0
 35
0.0
146
0.0
 13
0.0
 23
0.0
 33
0.0
 16
1.0
 26
0.0
 36
0.0
 17
0.0
 27
1.0
 37
0.0
 76
     0
330
70
  0
MATERIAL
  5
19
102
{ACAD_XDICTIONARY
360
1A
102
}
102
{ACAD_REACTORS
330
10
102
}
330
10
100
AcDbMaterial
  1
ByBlock
 72
     0
 43
0.0208333333333333
 43
0.0
 43
0.0
 43
0.0
 43
0.0
 43
0.0208333333333333
 43
0.0
 43
0.0
 43
0.0
 43
0.0
 43
1.0
 43
0.0
 43
0.0
 43
0.0
 43
0.0
 43
1.0
 77
     0
 47
0.0208333333333333
 47
0.0
 47
0.0
 47
0.0
 47
0.0
 47
0.0208333333333333
 47
0.0
 47
0.0
 47
0.0
 47
0.0
 47
1.0
 47
0.0
 47
0.0
 47
0.0
 47
0.0
 47
1.0
171
     0
 49
0.0208333333333333
 49
0.0
 49
0.0
 49
0.0
 49
0.0
 49
0.0208333333333333
 49
0.0
 49
0.0
 49
0.0
 49
0.0
 49
1.0
 49
0.0
 49
0.0
 49
0.0
 49
0.0
 49
1.0
175
     0
142
0.0208333333333333
142
0.0
142
0.0
142
0.0
142
0.0
142
0.0208333333333333
142
0.0
142
0.0
142
0.0
142
0.0
142
1.0
142
0.0
142
0.0
142
0.0
142
0.0
142
1.0
179
     0
144
0.0208333333333333
144
0.0
144
0.0
144
0.0
144
0.0
144
0.0208333333333333
144
0.0
144
0.0
144
0.0
144
0.0
144
1.0
144
0.0
144
0.0
144
0.0
144
0.0
144
1.0
147
0.0208333333333333
147
0.0
147
0.0
147
0.0
147
0.0
147
0.0208333333333333
147
0.0
147
0.0
147
0.0
147
0.0
147
1.0
147
0.0
147
0.0
147
0.0
147
0.0
147
1.0
  0
MATERIAL
  5
11
102
{ACAD_XDICTIONARY
360
12
102
}
102
{ACAD_REACTORS
330
10
102
}
330
10
100
AcDbMaterial
  1
ByLayer
 72
     0
 43
0.0208333333333333
 43
0.0
 43
0.0
 43
0.0
 43
0.0
 43
0.0208333333333333
 43
0.0
 43
0.0
 43
0.0
 43
0.0
 43
1.0
 43
0.0
 43
0.0
 43
0.0
 43
0.0
 43
1.0
 77
     0
 47
0.0208333333333333
 47
0.0
 47
0.0
 47
0.0
 47
0.0
 47
0.0208333333333333
 47
0.0
 47
0.0
 47
0.0
 47
0.0
 47
1.0
 47
0.0
 47
0.0
 47
0.0
 47
0.0
 47
1.0
171
     0
 49
0.0208333333333333
 49
0.0
 49
0.0
 49
0.0
 49
0.0
 49
0.0208333333333333
 49
0.0
 49
0.0
 49
0.0
 49
0.0
 49
1.0
 49
0.0
 49
0.0
 49
0.0
 49
0.0
 49
1.0
175
     0
142
0.0208333333333333
142
0.0
142
0.0
142
0.0
142
0.0
142
0.0208333333333333
142
0.0
142
0.0
142
0.0
142
0.0
142
1.0
142
0.0
142
0.0
142
0.0
142
0.0
142
1.0
179
     0
144
0.0208333333333333
144
0.0
144
0.0
144
0.0
144
0.0
144
0.0208333333333333
144
0.0
144
0.0
144
0.0
144
0.0
144
1.0
144
0.0
144
0.0
144
0.0
144
0.0
144
1.0
147
0.0208333333333333
147
0.0
147
0.0
147
0.0
147
0.0
147
0.0208333333333333
147
0.0
147
0.0
147
0.0
147
0.0
147
1.0
147
0.0
147
0.0
147
0.0
147
0.0
147
1.0
  0
MATERIAL
  5
21
102
{ACAD_XDICTIONARY
360
22
102
}
102
{ACAD_REACTORS
330
10
102
}
330
10
100
AcDbMaterial
  1
Global
 72
     0
 43
0.0208333333333333
 43
0.0
 43
0.0
 43
0.0
 43
0.0
 43
0.0208333333333333
 43
0.0
 43
0.0
 43
0.0
 43
0.0
 43
1.0
 43
0.0
 43
0.0
 43
0.0
 43
0.0
 43
1.0
 77
     0
 47
0.0208333333333333
 47
0.0
 47
0.0
 47
0.0
 47
0.0
 47
0.0208333333333333
 47
0.0
 47
0.0
 47
0.0
 47
0.0
 47
1.0
 47
0.0
 47
0.0
 47
0.0
 47
0.0
 47
1.0
171
     0
 49
0.0208333333333333
 49
0.0
 49
0.0
 49
0.0
 49
0.0
 49
0.0208333333333333
 49
0.0
 49
0.0
 49
0.0
 49
0.0
 49
1.0
 49
0.0
 49
0.0
 49
0.0
 49
0.0
 49
1.0
175
     0
142
0.0208333333333333
142
0.0
142
0.0
142
0.0
142
0.0
142
0.0208333333333333
142
0.0
142
0.0
142
0.0
142
0.0
142
1.0
142
0.0
142
0.0
142
0.0
142
0.0
142
1.0
179
     0
144
0.0208333333333333
144
0.0
144
0.0
144
0.0
144
0.0
144
0.0208333333333333
144
0.0
144
0.0
144
0.0
144
0.0
144
1.0
144
0.0
144
0.0
144
0.0
144
0.0
144
1.0
147
0.0208333333333333
147
0.0
147
0.0
147
0.0
147
0.0
147
0.0208333333333333
147
0.0
147
0.0
147
0.0
147
0.0
147
1.0
147
0.0
147
0.0
147
0.0
147
0.0
147
1.0
  0
MLEADERSTYLE
  5
67
102
{ACAD_REACTORS
330
66
102
}
330
66
100
AcDbMLeaderStyle
179
     2
170
     2
171
     1
172
     0
 90
        2
 40
0.0
 41
0.0
173
     1
 91
-1056964608
340
5B
 92
       -2
290
     1
 42
0.09
291
     1
 43
0.36
  3
Standard
 44
0.18
300

342
55
174
     1
178
     6
175
     1
176
     0
 93
-1056964608
 45
0.18
292
     0
297
     0
 46
0.18
 94
-1056964608
 47
1.0
 49
1.0
140
1.0
293
     1
141
0.0
294
     1
177
     0
142
1.0
295
     1
296
     0
143
0.125
271
     0
272
     9
273
     9
298
     1
  0
MLINESTYLE
  5
60
102
{ACAD_REACTORS
330
5F
102
}
330
5F
100
AcDbMlineStyle
  2
STANDARD
 70
     0
  3

 62
   256
 51
90.0
 52
90.0
 71
     2
 49
0.5
 62
   256
  6
BYLAYER
 49
-0.5
 62
   256
  6
BYLAYER
  0
ACDBPLACEHOLDER
  5
F
102
{ACAD_REACTORS
330
E
102
}
330
E
  0
SCALE
  5
43
102
{ACAD_REACTORS
330
42
102
}
330
42
100
AcDbScale
 70
     0
300
1:1
140
1.0
141
1.0
290
     1
  0
SCALE
  5
44
102
{ACAD_REACTORS
330
42
102
}
330
42
100
AcDbScale
 70
     0
300
1/128" = 1'-0"
140
0.0078125
141
12.0
290
     0
  0
SCALE
  5
45
102
{ACAD_REACTORS
330
42
102
}
330
42
100
AcDbScale
 70
     0
300
1/64" = 1'-0"
140
0.015625
141
12.0
290
     0
  0
SCALE
  5
46
102
{ACAD_REACTORS
330
42
102
}
330
42
100
AcDbScale
 70
     0
300
1/32" = 1'-0"
140
0.03125
141
12.0
290
     0
  0
SCALE
  5
47
102
{ACAD_REACTORS
330
42
102
}
330
42
100
AcDbScale
 70
     0
300
1/16" = 1'-0"
140
0.0625
141
12.0
290
     0
  0
SCALE
  5
48
102
{ACAD_REACTORS
330
42
102
}
330
42
100
AcDbScale
 70
     0
300
3/32" = 1'-0"
140
0.09375
141
12.0
290
     0
  0
SCALE
  5
49
102
{ACAD_REACTORS
330
42
102
}
330
42
100
AcDbScale
 70
     0
300
1/8" = 1'-0"
140
0.125
141
12.0
290
     0
  0
SCALE
  5
4A
102
{ACAD_REACTORS
330
42
102
}
330
42
100
AcDbScale
 70
     0
300
3/16" = 1'-0"
140
0.1875
141
12.0
290
     0
  0
SCALE
  5
4B
102
{ACAD_REACTORS
330
42
102
}
330
42
100
AcDbScale
 70
     0
300
1/4" = 1'-0"
140
0.25
141
12.0
290
     0
  0
SCALE
  5
4C
102
{ACAD_REACTORS
330
42
102
}
330
42
100
AcDbScale
 70
     0
300
3/8" = 1'-0"
140
0.375
141
12.0
290
     0
  0
SCALE
  5
4D
102
{ACAD_REACTORS
330
42
102
}
330
42
100
AcDbScale
 70
     0
300
1/2" = 1'-0"
140
0.5
141
12.0
290
     0
  0
SCALE
  5
4E
102
{ACAD_REACTORS
330
42
102
}
330
42
100
AcDbScale
 70
     0
300
3/4" = 1'-0"
140
0.75
141
12.0
290
     0
  0
SCALE
  5
4F
102
{ACAD_REACTORS
330
42
102
}
330
42
100
AcDbScale
 70
     0
300
1" = 1'-0"
140
1.0
141
12.0
290
     0
  0
SCALE
  5
50
102
{ACAD_REACTORS
330
42
102
}
330
42
100
AcDbScale
 70
     0
300
1-1/2" = 1'-0"
140
1.5
141
12.0
290
     0
  0
SCALE
  5
51
102
{ACAD_REACTORS
330
42
102
}
330
42
100
AcDbScale
 70
     0
300
3" = 1'-0"
140
3.0
141
12.0
290
     0
  0
SCALE
  5
52
102
{ACAD_REACTORS
330
42
102
}
330
42
100
AcDbScale
 70
     0
300
6" = 1'-0"
140
6.0
141
12.0
290
     0
  0
SCALE
  5
53
102
{ACAD_REACTORS
330
42
102
}
330
42
100
AcDbScale
 70
     0
300
1'-0" = 1'-0"
140
12.0
141
12.0
290
     0
  0
ACDBSECTIONVIEWSTYLE
  5
69
102
{ACAD_REACTORS
330
68
102
}
330
68
100
AcDbModelDocViewStyle
 70
     0
  3
Imperial24
290
     1
300
Imperial24
 90
        0
100
AcDbSectionViewStyle
 70
     0
 71
     0
 90
       78
 71
     1
340
55
 62
   256
 40
0.24
340
0
340
0
 62
   256
 40
0.24
300
I, O, Q, S, X, Z
 40
0.48
 90
        3
 40
0.18
 90
        1
 71
     2
340
5D
 90
       25
 62
   256
340
5D
 90
       50
 62
   256
 40
0.24
 40
0.0
 40
0.24
 71
     3
340
55
 62
   256
 40
0.24
 90
        1
 40
0.75
 90
        1
300
%<\AcVar ViewType \f "%tc1">% %<\AcVar ViewSectionStartId>%-%<\AcVar ViewSectionEndId>%\PSCALE %<\AcVar ViewScale \f "%sn">%
 71
     4
 62
   256
 62
   257
300
ANSI31
 40
1.0
 90
        0
290
     0
290
     0
 90
        6
 40
0.0
 40
1.570796326794896
 40
0.2617993877991494
 40
1.308996938995747
 40
-0.2617993877991494
 40
1.832595714594046
  0
TABLESTYLE
  5
65
102
{ACAD_XDICTIONARY
360
1BE
102
}
102
{ACAD_REACTORS
330
64
102
}
330
64
100
AcDbTableStyle
280
     0
  3
Standard
 70
     0
 71
     0
 40
0.06
 41
0.06
280
     0
281
     0
  7
Standard
140
0.18
170
     2
 62
     0
 63
     7
283
     0
 90
      512
 91
        0
  1

274
    -2
284
     1
 64
     0
275
    -2
285
     1
 65
     0
276
    -2
286
     1
 66
     0
277
    -2
287
     1
 67
     0
278
    -2
288
     1
 68
     0
279
    -2
289
     1
 69
     0
  7
Standard
140
0.25
170
     5
 62
     0
 63
     7
283
     0
 90
      512
 91
        0
  1

274
    -2
284
     1
 64
     0
275
    -2
285
     1
 65
     0
276
    -2
286
     1
 66
     0
277
    -2
287
     1
 67
     0
278
    -2
288
     1
 68
     0
279
    -2
289
     1
 69
     0
  7
Standard
140
0.18
170
     5
 62
     0
 63
     7
283
     0
 90
      512
 91
        0
  1

274
    -2
284
     1
 64
     0
275
    -2
285
     1
 65
     0
276
    -2
286
     1
 66
     0
277
    -2
287
     1
 67
     0
278
    -2
288
     1
 68
     0
279
    -2
289
     1
 69
     0
  0
VISUALSTYLE
  5
2F
102
{ACAD_REACTORS
330
29
102
}
330
29
100
AcDbVisualStyle
  2
2dWireframe
 70
     4
177
     3
291
     0
 70
    58
 90
        0
176
     1
 90
        2
176
     1
 90
        0
176
     1
 90
        0
176
     1
 40
0.6
176
     1
 40
30.0
176
     1
 62
     7
420
 16777215
176
     1
 90
        1
176
     1
 90
        4
176
     1
 62
     7
176
     1
 62
   257
176
     1
 90
        1
176
     1
 90
        1
176
     1
 40
1.0
176
     1
 90
        0
176
     1
 62
   257
176
     1
 40
1.0
176
     1
 90
        1
176
     1
 90
        6
176
     1
 90
        2
176
     1
 62
     7
176
     1
 90
        5
176
     1
 90
        0
176
     1
 90
        0
176
     1
290
     0
176
     1
 90
        1
176
     1
 40
0.0
176
     1
 90
        0
176
     1
290
     1
176
     1
290
     1
176
     1
290
     0
176
     1
290
     0
176
     1
290
     0
176
     1
290
     0
176
     1
290
     0
176
     1
290
     0
176
     1
290
     0
176
     1
 90
       50
176
     1
 40
0.0
176
     1
 40
1.0
176
     1
 90
        0
176
     1
 62
    18
420
        0
176
     1
 90
       50
176
     1
 90
        3
176
     1
 62
     5
420
      255
176
     1
290
     0
176
     1
 90
       50
176
     1
 90
       50
176
     1
 90
       50
176
     1
290
     0
176
     1
 90
       50
176
     1
 62
   256
176
     0
 40
1.0
176
     0
 90
        2
176
     1
  1
strokes_ogs.tif
176
     1
290
     0
176
     1
 40
1.0
176
     1
 40
1.0
176
     1
  0
VISUALSTYLE
  5
2E
102
{ACAD_REACTORS
330
29
102
}
330
29
100
AcDbVisualStyle
  2
Basic
 70
     7
177
     3
291
     1
 70
    58
 90
        1
176
     1
 90
        0
176
     1
 90
        1
176
     1
 90
        0
176
     1
 40
0.6
176
     1
 40
30.0
176
     1
 62
     7
420
 16777215
176
     1
 90
        0
176
     1
 90
        4
176
     1
 62
     7
176
     1
 62
   257
176
     1
 90
        1
176
     1
 90
        1
176
     1
 40
1.0
176
     1
 90
        8
176
     1
 62
     7
176
     1
 40
1.0
176
     1
 90
        1
176
     1
 90
        6
176
     1
 90
        2
176
     1
 62
     7
176
     1
 90
        5
176
     1
 90
        0
176
     1
 90
        0
176
     1
290
     0
176
     1
 90
        1
176
     1
 40
0.0
176
     1
 90
        0
176
     1
290
     0
176
     1
290
     1
176
     1
290
     1
176
     1
290
     0
176
     1
290
     0
176
     1
290
     0
176
     1
290
     0
176
     1
290
     0
176
     1
290
     0
176
     1
 90
       50
176
     1
 40
0.0
176
     1
 40
1.0
176
     1
 90
        0
176
     1
 62
    18
420
        0
176
     1
 90
       50
176
     1
 90
        3
176
     1
 62
     5
420
      255
176
     1
290
     0
176
     1
 90
       50
176
     1
 90
       50
176
     1
 90
       50
176
     1
290
     0
176
     1
 90
       50
176
     1
 62
   256
176
     0
 40
1.0
176
     0
 90
        2
176
     1
  1
strokes_ogs.tif
176
     1
290
     0
176
     1
 40
1.0
176
     1
 40
1.0
176
     1
  0
VISUALSTYLE
  5
35
102
{ACAD_REACTORS
330
29
102
}
330
29
100
AcDbVisualStyle
  2
Brighten
 70
    12
177
     3
291
     1
 70
    58
 90
        2
176
     1
 90
        2
176
     1
 90
        0
176
     1
 90
        0
176
     1
 40
0.6
176
     1
 40
30.0
176
     1
 62
     7
420
 16777215
176
     1
 90
        1
176
     1
 90
        4
176
     1
 62
     7
176
     1
 62
   257
176
     1
 90
        1
176
     1
 90
        1
176
     1
 40
1.0
176
     1
 90
        8
176
     1
 62
     7
176
     1
 40
1.0
176
     1
 90
        1
176
     1
 90
        6
176
     1
 90
        2
176
     1
 62
     7
176
     1
 90
        5
176
     1
 90
        0
176
     1
 90
        0
176
     1
290
     0
176
     1
 90
        1
176
     1
 40
50.0
176
     1
 90
        0
176
     1
290
     0
176
     1
290
     1
176
     1
290
     1
176
     1
290
     0
176
     1
290
     0
176
     1
290
     0
176
     1
290
     0
176
     1
290
     0
176
     1
290
     0
176
     1
 90
       50
176
     1
 40
0.0
176
     1
 40
1.0
176
     1
 90
        0
176
     1
 62
    18
420
        0
176
     1
 90
       50
176
     1
 90
        3
176
     1
 62
     5
420
      255
176
     1
290
     0
176
     1
 90
       50
176
     1
 90
       50
176
     1
 90
       50
176
     1
290
     0
176
     1
 90
       50
176
     1
 62
   256
176
     0
 40
1.0
176
     0
 90
        2
176
     1
  1
strokes_ogs.tif
176
     1
290
     0
176
     1
 40
1.0
176
     1
 40
1.0
176
     1
  0
VISUALSTYLE
  5
39
102
{ACAD_REACTORS
330
29
102
}
330
29
100
AcDbVisualStyle
  2
ColorChange
 70
    16
177
     3
291
     1
 70
    58
 90
        2
176
     1
 90
        2
176
     1
 90
        3
176
     1
 90
        0
176
     1
 40
0.6
176
     1
 40
30.0
176
     1
 62
     8
420
  8421504
176
     1
 90
        1
176
     1
 90
        4
176
     1
 62
     7
176
     1
 62
   257
176
     1
 90
        1
176
     1
 90
        1
176
     1
 40
1.0
176
     1
 90
        8
176
     1
 62
     8
420
  8421504
176
     1
 40
1.0
176
     1
 90
        1
176
     1
 90
        6
176
     1
 90
        2
176
     1
 62
     7
176
     1
 90
        5
176
     1
 90
        0
176
     1
 90
        0
176
     1
290
     0
176
     1
 90
        1
176
     1
 40
0.0
176
     1
 90
        0
176
     1
290
     0
176
     1
290
     1
176
     1
290
     1
176
     1
290
     0
176
     1
290
     0
176
     1
290
     0
176
     1
290
     0
176
     1
290
     0
176
     1
290
     0
176
     1
 90
       50
176
     1
 40
0.0
176
     1
 40
1.0
176
     1
 90
        0
176
     1
 62
    18
420
        0
176
     1
 90
       50
176
     1
 90
        3
176
     1
 62
     5
420
      255
176
     1
290
     0
176
     1
 90
       50
176
     1
 90
       50
176
     1
 90
       50
176
     1
290
     0
176
     1
 90
       50
176
     1
 62
   256
176
     0
 40
1.0
176
     0
 90
        2
176
     1
  1
strokes_ogs.tif
176
     1
290
     0
176
     1
 40
1.0
176
     1
 40
1.0
176
     1
  0
VISUALSTYLE
  5
32
102
{ACAD_REACTORS
330
29
102
}
330
29
100
AcDbVisualStyle
  2
Conceptual
 70
     9
177
     3
291
     0
 70
    58
 90
        3
176
     1
 90
        2
176
     1
 90
        0
176
     1
 90
        0
176
     1
 40
0.6
176
     1
 40
30.0
176
     1
 62
     7
420
 16777215
176
     1
 90
        2
176
     1
 90
        2
176
     1
 62
     7
176
     1
 62
   257
176
     1
 90
        1
176
     1
 90
        1
176
     1
 40
179.0
176
     1
 90
        8
176
     1
 62
     7
176
     1
 40
1.0
176
     1
 90
        1
176
     1
 90
        6
176
     1
 90
        2
176
     1
 62
     7
176
     1
 90
        3
176
     1
 90
        0
176
     1
 90
        0
176
     1
290
     0
176
     1
 90
        1
176
     1
 40
0.0
176
     1
 90
        0
176
     1
290
     0
176
     1
290
     1
176
     1
290
     1
176
     1
290
     0
176
     1
290
     0
176
     1
290
     0
176
     1
290
     0
176
     1
290
     0
176
     1
290
     0
176
     1
 90
       50
176
     1
 40
0.0
176
     1
 40
1.0
176
     1
 90
        0
176
     1
 62
    18
420
        0
176
     1
 90
       50
176
     1
 90
        3
176
     1
 62
     5
420
      255
176
     1
290
     0
176
     1
 90
       50
176
     1
 90
       50
176
     1
 90
       50
176
     1
290
     0
176
     1
 90
       50
176
     1
 62
   256
176
     0
 40
1.0
176
     0
 90
        2
176
     1
  1
strokes_ogs.tif
176
     1
290
     0
176
     1
 40
1.0
176
     1
 40
1.0
176
     1
  0
VISUALSTYLE
  5
34
102
{ACAD_REACTORS
330
29
102
}
330
29
100
AcDbVisualStyle
  2
Dim
 70
    11
177
     3
291
     1
 70
    58
 90
        2
176
     1
 90
        2
176
     1
 90
        0
176
     1
 90
        0
176
     1
 40
0.6
176
     1
 40
30.0
176
     1
 62
     7
420
 16777215
176
     1
 90
        1
176
     1
 90
        4
176
     1
 62
     7
176
     1
 62
   257
176
     1
 90
        1
176
     1
 90
        1
176
     1
 40
1.0
176
     1
 90
        8
176
     1
 62
     7
176
     1
 40
1.0
176
     1
 90
        1
176
     1
 90
        6
176
     1
 90
        2
176
     1
 62
     7
176
     1
 90
        5
176
     1
 90
        0
176
     1
 90
        0
176
     1
290
     0
176
     1
 90
        1
176
     1
 40
-50.0
176
     1
 90
        0
176
     1
290
     0
176
     1
290
     1
176
     1
290
     1
176
     1
290
     0
176
     1
290
     0
176
     1
290
     0
176
     1
290
     0
176
     1
290
     0
176
     1
290
     0
176
     1
 90
       50
176
     1
 40
0.0
176
     1
 40
1.0
176
     1
 90
        0
176
     1
 62
    18
420
        0
176
     1
 90
       50
176
     1
 90
        3
176
     1
 62
     5
420
      255
176
     1
290
     0
176
     1
 90
       50
176
     1
 90
       50
176
     1
 90
       50
176
     1
290
     0
176
     1
 90
       50
176
     1
 62
   256
176
     0
 40
1.0
176
     0
 90
        2
176
     1
  1
strokes_ogs.tif
176
     1
290
     0
176
     1
 40
1.0
176
     1
 40
1.0
176
     1
  0
VISUALSTYLE
  5
41
102
{ACAD_REACTORS
330
29
102
}
330
29
100
AcDbVisualStyle
  2
EdgeColorOff
 70
    22
177
     3
291
     1
 70
    58
 90
        2
176
     0
 90
        2
176
     0
 90
        0
176
     0
 90
        0
176
     0
 40
0.6
176
     0
 40
30.0
176
     0
 62
     7
420
 16777215
176
     0
 90
        1
176
     0
 90
        4
176
     0
 62
     7
176
     0
 62
   257
176
     0
 90
        1
176
     0
 90
        1
176
     0
 40
1.0
176
     0
 90
        8
176
     2
 62
     7
176
     0
 40
1.0
176
     0
 90
        1
176
     0
 90
        6
176
     0
 90
        2
176
     0
 62
     7
176
     0
 90
        5
176
     0
 90
        0
176
     0
 90
        0
176
     0
290
     0
176
     0
 90
        1
176
     0
 40
0.0
176
     0
 90
        0
176
     0
290
     0
176
     0
290
     1
176
     0
290
     1
176
     0
290
     0
176
     0
290
     0
176
     0
290
     0
176
     0
290
     0
176
     0
290
     0
176
     0
290
     0
176
     0
 90
       50
176
     0
 40
0.0
176
     0
 40
1.0
176
     0
 90
        0
176
     0
 62
    18
420
        0
176
     0
 90
       50
176
     0
 90
        3
176
     0
 62
     5
420
      255
176
     0
290
     0
176
     0
 90
       50
176
     0
 90
       50
176
     0
 90
       50
176
     0
290
     0
176
     0
 90
       50
176
     0
 62
   256
176
     0
 40
1.0
176
     0
 90
        2
176
     0
  1
strokes_ogs.tif
176
     0
290
     0
176
     0
 40
1.0
176
     0
 40
1.0
176
     0
  0
VISUALSTYLE
  5
38
102
{ACAD_REACTORS
330
29
102
}
330
29
100
AcDbVisualStyle
  2
Facepattern
 70
    15
177
     3
291
     1
 70
    58
 90
        2
176
     1
 90
        2
176
     1
 90
        0
176
     1
 90
        0
176
     1
 40
0.6
176
     1
 40
30.0
176
     1
 62
     7
420
 16777215
176
     1
 90
        1
176
     1
 90
        4
176
     1
 62
     7
176
     1
 62
   257
176
     1
 90
        1
176
     1
 90
        1
176
     1
 40
1.0
176
     1
 90
        8
176
     1
 62
     7
176
     1
 40
1.0
176
     1
 90
        1
176
     1
 90
        6
176
     1
 90
        2
176
     1
 62
     7
176
     1
 90
        5
176
     1
 90
        0
176
     1
 90
        0
176
     1
290
     0
176
     1
 90
        1
176
     1
 40
0.0
176
     1
 90
        0
176
     1
290
     0
176
     1
290
     1
176
     1
290
     1
176
     1
290
     0
176
     1
290
     0
176
     1
290
     0
176
     1
290
     0
176
     1
290
     0
176
     1
290
     0
176
     1
 90
       50
176
     1
 40
0.0
176
     1
 40
1.0
176
     1
 90
        0
176
     1
 62
    18
420
        0
176
     1
 90
       50
176
     1
 90
        3
176
     1
 62
     5
420
      255
176
     1
290
     0
176
     1
 90
       50
176
     1
 90
       50
176
     1
 90
       50
176
     1
290
     0
176
     1
 90
       50
176
     1
 62
   256
176
     0
 40
1.0
176
     0
 90
        2
176
     1
  1
strokes_ogs.tif
176
     1
290
     0
176
     1
 40
1.0
176
     1
 40
1.0
176
     1
  0
VISUALSTYLE
  5
2A
102
{ACAD_REACTORS
330
29
102
}
330
29
100
AcDbVisualStyle
  2
Flat
 70
     0
177
     3
291
     1
 70
    58
 90
        2
176
     1
 90
        1
176
     1
 90
        1
176
     1
 90
        2
176
     1
 40
0.6
176
     1
 40
30.0
176
     1
 62
     7
420
 16777215
176
     1
 90
        0
176
     1
 90
        0
176
     1
 62
     7
176
     1
 62
   257
176
     1
 90
        1
176
     1
 90
        1
176
     1
 40
1.0
176
     1
 90
        8
176
     1
 62
     7
176
     1
 40
1.0
176
     1
 90
        1
176
     1
 90
        6
176
     1
 90
        2
176
     1
 62
     7
176
     1
 90
        5
176
     1
 90
        0
176
     1
 90
        0
176
     1
290
     0
176
     1
 90
       13
176
     1
 40
0.0
176
     1
 90
        0
176
     1
290
     0
176
     1
290
     1
176
     1
290
     1
176
     1
290
     0
176
     1
290
     0
176
     1
290
     0
176
     1
290
     0
176
     1
290
     0
176
     1
290
     0
176
     1
 90
       50
176
     1
 40
0.0
176
     1
 40
1.0
176
     1
 90
        0
176
     1
 62
    18
420
        0
176
     1
 90
       50
176
     1
 90
        3
176
     1
 62
     5
420
      255
176
     1
290
     0
176
     1
 90
       50
176
     1
 90
       50
176
     1
 90
       50
176
     1
290
     0
176
     1
 90
       50
176
     1
 62
   256
176
     0
 40
1.0
176
     0
 90
        2
176
     1
  1
strokes_ogs.tif
176
     1
290
     0
176
     1
 40
1.0
176
     1
 40
1.0
176
     1
  0
VISUALSTYLE
  5
2B
102
{ACAD_REACTORS
330
29
102
}
330
29
100
AcDbVisualStyle
  2
FlatWithEdges
 70
     1
177
     3
291
     1
 70
    58
 90
        2
176
     1
 90
        1
176
     1
 90
        1
176
     1
 90
        2
176
     1
 40
0.6
176
     1
 40
30.0
176
     1
 62
     7
420
 16777215
176
     1
 90
        1
176
     1
 90
        0
176
     1
 62
     7
176
     1
 62
   257
176
     1
 90
        1
176
     1
 90
        1
176
     1
 40
1.0
176
     1
 90
        0
176
     1
 62
   257
176
     1
 40
1.0
176
     1
 90
        1
176
     1
 90
        6
176
     1
 90
        2
176
     1
 62
     7
176
     1
 90
        5
176
     1
 90
        0
176
     1
 90
        0
176
     1
290
     0
176
     1
 90
       13
176
     1
 40
0.0
176
     1
 90
        0
176
     1
290
     0
176
     1
290
     1
176
     1
290
     1
176
     1
290
     0
176
     1
290
     0
176
     1
290
     0
176
     1
290
     0
176
     1
290
     0
176
     1
290
     0
176
     1
 90
       50
176
     1
 40
0.0
176
     1
 40
1.0
176
     1
 90
        0
176
     1
 62
    18
420
        0
176
     1
 90
       50
176
     1
 90
        3
176
     1
 62
     5
420
      255
176
     1
290
     0
176
     1
 90
       50
176
     1
 90
       50
176
     1
 90
       50
176
     1
290
     0
176
     1
 90
       50
176
     1
 62
   256
176
     0
 40
1.0
176
     0
 90
        2
176
     1
  1
strokes_ogs.tif
176
     1
290
     0
176
     1
 40
1.0
176
     1
 40
1.0
176
     1
  0
VISUALSTYLE
  5
2C
102
{ACAD_REACTORS
330
29
102
}
330
29
100
AcDbVisualStyle
  2
Gouraud
 70
     2
177
     3
291
     1
 70
    58
 90
        2
176
     1
 90
        2
176
     1
 90
        1
176
     1
 90
        2
176
     1
 40
0.6
176
     1
 40
30.0
176
     1
 62
     7
420
 16777215
176
     1
 90
        0
176
     1
 90
        0
176
     1
 62
     7
176
     1
 62
   257
176
     1
 90
        1
176
     1
 90
        1
176
     1
 40
1.0
176
     1
 90
        0
176
     1
 62
     7
176
     1
 40
1.0
176
     1
 90
        1
176
     1
 90
        6
176
     1
 90
        2
176
     1
 62
     7
176
     1
 90
        5
176
     1
 90
        0
176
     1
 90
        0
176
     1
290
     0
176
     1
 90
       13
176
     1
 40
0.0
176
     1
 90
        0
176
     1
290
     0
176
     1
290
     1
176
     1
290
     1
176
     1
290
     0
176
     1
290
     0
176
     1
290
     0
176
     1
290
     0
176
     1
290
     0
176
     1
290
     0
176
     1
 90
       50
176
     1
 40
0.0
176
     1
 40
1.0
176
     1
 90
        0
176
     1
 62
    18
420
        0
176
     1
 90
       50
176
     1
 90
        3
176
     1
 62
     5
420
      255
176
     1
290
     0
176
     1
 90
       50
176
     1
 90
       50
176
     1
 90
       50
176
     1
290
     0
176
     1
 90
       50
176
     1
 62
   256
176
     0
 40
1.0
176
     0
 90
        2
176
     1
  1
strokes_ogs.tif
176
     1
290
     0
176
     1
 40
1.0
176
     1
 40
1.0
176
     1
  0
VISUALSTYLE
  5
2D
102
{ACAD_REACTORS
330
29
102
}
330
29
100
AcDbVisualStyle
  2
GouraudWithEdges
 70
     3
177
     3
291
     1
 70
    58
 90
        2
176
     1
 90
        2
176
     1
 90
        1
176
     1
 90
        2
176
     1
 40
0.6
176
     1
 40
30.0
176
     1
 62
     7
420
 16777215
176
     1
 90
        1
176
     1
 90
        0
176
     1
 62
     7
176
     1
 62
   257
176
     1
 90
        1
176
     1
 90
        1
176
     1
 40
1.0
176
     1
 90
        0
176
     1
 62
   257
176
     1
 40
1.0
176
     1
 90
        1
176
     1
 90
        6
176
     1
 90
        2
176
     1
 62
     7
176
     1
 90
        5
176
     1
 90
        0
176
     1
 90
        0
176
     1
290
     0
176
     1
 90
       13
176
     1
 40
0.0
176
     1
 90
        0
176
     1
290
     0
176
     1
290
     1
176
     1
290
     1
176
     1
290
     0
176
     1
290
     0
176
     1
290
     0
176
     1
290
     0
176
     1
290
     0
176
     1
290
     0
176
     1
 90
       50
176
     1
 40
0.0
176
     1
 40
1.0
176
     1
 90
        0
176
     1
 62
    18
420
        0
176
     1
 90
       50
176
     1
 90
        3
176
     1
 62
     5
420
      255
176
     1
290
     0
176
     1
 90
       50
176
     1
 90
       50
176
     1
 90
       50
176
     1
290
     0
176
     1
 90
       50
176
     1
 62
   256
176
     0
 40
1.0
176
     0
 90
        2
176
     1
  1
strokes_ogs.tif
176
     1
290
     0
176
     1
 40
1.0
176
     1
 40
1.0
176
     1
  0
VISUALSTYLE
  5
31
102
{ACAD_REACTORS
330
29
102
}
330
29
100
AcDbVisualStyle
  2
Hidden
 70
     6
177
     3
291
     0
 70
    58
 90
        1
176
     1
 90
        2
176
     1
 90
        2
176
     1
 90
        0
176
     1
 40
0.6
176
     1
 40
30.0
176
     1
 62
     7
420
 16777215
176
     1
 90
        2
176
     1
 90
        2
176
     1
 62
     7
176
     1
 62
   257
176
     1
 90
        2
176
     1
 90
        1
176
     1
 40
40.0
176
     1
 90
        0
176
     1
 62
   257
176
     1
 40
1.0
176
     1
 90
        1
176
     1
 90
        6
176
     1
 90
        2
176
     1
 62
     7
176
     1
 90
        3
176
     1
 90
        0
176
     1
 90
        0
176
     1
290
     0
176
     1
 90
        1
176
     1
 40
0.0
176
     1
 90
        0
176
     1
290
     0
176
     1
290
     1
176
     1
290
     1
176
     1
290
     0
176
     1
290
     0
176
     1
290
     0
176
     1
290
     0
176
     1
290
     0
176
     1
290
     0
176
     1
 90
       50
176
     1
 40
0.0
176
     1
 40
1.0
176
     1
 90
        0
176
     1
 62
    18
420
        0
176
     1
 90
       50
176
     1
 90
        3
176
     1
 62
     5
420
      255
176
     1
290
     0
176
     1
 90
       50
176
     1
 90
       50
176
     1
 90
       50
176
     1
290
     0
176
     1
 90
       50
176
     1
 62
   256
176
     0
 40
1.0
176
     0
 90
        2
176
     1
  1
strokes_ogs.tif
176
     1
290
     0
176
     1
 40
1.0
176
     1
 40
1.0
176
     1
  0
VISUALSTYLE
  5
3F
102
{ACAD_REACTORS
330
29
102
}
330
29
100
AcDbVisualStyle
  2
JitterOff
 70
    20
177
     3
291
     1
 70
    58
 90
        2
176
     0
 90
        2
176
     0
 90
        0
176
     0
 90
        0
176
     0
 40
0.6
176
     0
 40
30.0
176
     0
 62
     7
420
 16777215
176
     0
 90
        1
176
     0
 90
        4
176
     0
 62
     7
176
     0
 62
   257
176
     0
 90
        1
176
     0
 90
        1
176
     0
 40
1.0
176
     0
 90
       10
176
     2
 62
     7
176
     0
 40
1.0
176
     0
 90
        1
176
     0
 90
        6
176
     0
 90
        2
176
     0
 62
     7
176
     0
 90
        5
176
     0
 90
        0
176
     0
 90
        0
176
     0
290
     0
176
     0
 90
        1
176
     0
 40
0.0
176
     0
 90
        0
176
     0
290
     0
176
     0
290
     1
176
     0
290
     1
176
     0
290
     0
176
     0
290
     0
176
     0
290
     0
176
     0
290
     0
176
     0
290
     0
176
     0
290
     0
176
     0
 90
       50
176
     0
 40
0.0
176
     0
 40
1.0
176
     0
 90
        0
176
     0
 62
    18
420
        0
176
     0
 90
       50
176
     0
 90
        3
176
     0
 62
     5
420
      255
176
     0
290
     0
176
     0
 90
       50
176
     0
 90
       50
176
     0
 90
       50
176
     0
290
     0
176
     0
 90
       50
176
     0
 62
   256
176
     0
 40
1.0
176
     0
 90
        2
176
     0
  1
strokes_ogs.tif
176
     0
290
     0
176
     0
 40
1.0
176
     0
 40
1.0
176
     0
  0
VISUALSTYLE
  5
37
102
{ACAD_REACTORS
330
29
102
}
330
29
100
AcDbVisualStyle
  2
Linepattern
 70
    14
177
     3
291
     1
 70
    58
 90
        2
176
     1
 90
        2
176
     1
 90
        0
176
     1
 90
        0
176
     1
 40
0.6
176
     1
 40
30.0
176
     1
 62
     7
420
 16777215
176
     1
 90
        1
176
     1
 90
        4
176
     1
 62
     7
176
     1
 62
   257
176
     1
 90
        7
176
     1
 90
        7
176
     1
 40
1.0
176
     1
 90
        8
176
     1
 62
     7
176
     1
 40
1.0
176
     1
 90
        1
176
     1
 90
        6
176
     1
 90
        2
176
     1
 62
     7
176
     1
 90
        5
176
     1
 90
        0
176
     1
 90
        0
176
     1
290
     0
176
     1
 90
        1
176
     1
 40
0.0
176
     1
 90
        0
176
     1
290
     0
176
     1
290
     1
176
     1
290
     1
176
     1
290
     0
176
     1
290
     0
176
     1
290
     0
176
     1
290
     0
176
     1
290
     0
176
     1
290
     0
176
     1
 90
       50
176
     1
 40
0.0
176
     1
 40
1.0
176
     1
 90
        0
176
     1
 62
    18
420
        0
176
     1
 90
       50
176
     1
 90
        3
176
     1
 62
     5
420
      255
176
     1
290
     0
176
     1
 90
       50
176
     1
 90
       50
176
     1
 90
       50
176
     1
290
     0
176
     1
 90
       50
176
     1
 62
   256
176
     0
 40
1.0
176
     0
 90
        2
176
     1
  1
strokes_ogs.tif
176
     1
290
     0
176
     1
 40
1.0
176
     1
 40
1.0
176
     1
  0
VISUALSTYLE
  5
40
102
{ACAD_REACTORS
330
29
102
}
330
29
100
AcDbVisualStyle
  2
OverhangOff
 70
    21
177
     3
291
     1
 70
    58
 90
        2
176
     0
 90
        2
176
     0
 90
        0
176
     0
 90
        0
176
     0
 40
0.6
176
     0
 40
30.0
176
     0
 62
     7
420
 16777215
176
     0
 90
        1
176
     0
 90
        4
176
     0
 62
     7
176
     0
 62
   257
176
     0
 90
        1
176
     0
 90
        1
176
     0
 40
1.0
176
     0
 90
        9
176
     2
 62
     7
176
     0
 40
1.0
176
     0
 90
        1
176
     0
 90
        6
176
     0
 90
        2
176
     0
 62
     7
176
     0
 90
        5
176
     0
 90
        0
176
     0
 90
        0
176
     0
290
     0
176
     0
 90
        1
176
     0
 40
0.0
176
     0
 90
        0
176
     0
290
     0
176
     0
290
     1
176
     0
290
     1
176
     0
290
     0
176
     0
290
     0
176
     0
290
     0
176
     0
290
     0
176
     0
290
     0
176
     0
290
     0
176
     0
 90
       50
176
     0
 40
0.0
176
     0
 40
1.0
176
     0
 90
        0
176
     0
 62
    18
420
        0
176
     0
 90
       50
176
     0
 90
        3
176
     0
 62
     5
420
      255
176
     0
290
     0
176
     0
 90
       50
176
     0
 90
       50
176
     0
 90
       50
176
     0
290
     0
176
     0
 90
       50
176
     0
 62
   256
176
     0
 40
1.0
176
     0
 90
        2
176
     0
  1
strokes_ogs.tif
176
     0
290
     0
176
     0
 40
1.0
176
     0
 40
1.0
176
     0
  0
VISUALSTYLE
  5
33
102
{ACAD_REACTORS
330
29
102
}
330
29
100
AcDbVisualStyle
  2
Realistic
 70
     8
177
     3
291
     0
 70
    58
 90
        2
176
     1
 90
        3
176
     1
 90
        0
176
     1
 90
        2
176
     1
 40
0.6
176
     1
 40
30.0
176
     1
 62
     7
420
 16777215
176
     1
 90
        0
176
     1
 90
        0
176
     1
 62
     7
176
     1
 62
   257
176
     1
 90
        1
176
     1
 90
        1
176
     1
 40
1.0
176
     1
 90
        8
176
     1
 62
   257
176
     1
 40
1.0
176
     1
 90
        1
176
     1
 90
        6
176
     1
 90
        2
176
     1
 62
     7
176
     1
 90
        3
176
     1
 90
        0
176
     1
 90
        0
176
     1
290
     0
176
     1
 90
       13
176
     1
 40
0.0
176
     1
 90
        0
176
     1
290
     0
176
     1
290
     1
176
     1
290
     1
176
     1
290
     0
176
     1
290
     0
176
     1
290
     0
176
     1
290
     0
176
     1
290
     0
176
     1
290
     0
176
     1
 90
       50
176
     1
 40
0.0
176
     1
 40
1.0
176
     1
 90
        0
176
     1
 62
    18
420
        0
176
     1
 90
       50
176
     1
 90
        3
176
     1
 62
     5
420
      255
176
     1
290
     0
176
     1
 90
       50
176
     1
 90
       50
176
     1
 90
       50
176
     1
290
     0
176
     1
 90
       50
176
     1
 62
   256
176
     0
 40
1.0
176
     0
 90
        2
176
     1
  1
strokes_ogs.tif
176
     1
290
     0
176
     1
 40
1.0
176
     1
 40
1.0
176
     1
  0
VISUALSTYLE
  5
3E
102
{ACAD_REACTORS
330
29
102
}
330
29
100
AcDbVisualStyle
  2
Shaded
 70
    27
177
     3
291
     0
 70
    58
 90
        2
176
     1
 90
        2
176
     1
 90
        1
176
     1
 90
        2
176
     1
 40
0.6
176
     1
 40
30.0
176
     1
 62
     7
420
 16777215
176
     1
 90
        0
176
     1
 90
        4
176
     1
 62
     7
176
     1
 62
   257
176
     1
 90
        1
176
     1
 90
        1
176
     1
 40
1.0
176
     1
 90
        8
176
     1
 62
   257
176
     1
 40
1.0
176
     1
 90
        1
176
     1
 90
        6
176
     1
 90
        2
176
     1
 62
     8
420
  7895160
176
     1
 90
        3
176
     1
 90
        0
176
     1
 90
        0
176
     1
290
     0
176
     1
 90
        5
176
     1
 40
0.0
176
     1
 90
        0
176
     1
290
     0
176
     1
290
     1
176
     1
290
     1
176
     1
290
     0
176
     1
290
     0
176
     1
290
     0
176
     1
290
     0
176
     1
290
     0
176
     1
290
     0
176
     1
 90
       50
176
     1
 40
0.0
176
     1
 40
1.0
176
     1
 90
        0
176
     1
 62
    18
420
        0
176
     1
 90
       50
176
     1
 90
        3
176
     1
 62
     5
420
      255
176
     1
290
     0
176
     1
 90
       50
176
     1
 90
       50
176
     1
 90
       50
176
     1
290
     0
176
     1
 90
       50
176
     1
 62
   256
176
     0
 40
1.0
176
     0
 90
        2
176
     1
  1
strokes_ogs.tif
176
     1
290
     0
176
     1
 40
1.0
176
     1
 40
1.0
176
     1
  0
VISUALSTYLE
  5
3D
102
{ACAD_REACTORS
330
29
102
}
330
29
100
AcDbVisualStyle
  2
Shaded with edges
 70
    26
177
     3
291
     0
 70
    58
 90
        2
176
     1
 90
        2
176
     1
 90
        1
176
     1
 90
        2
176
     1
 40
0.6
176
     1
 40
30.0
176
     1
 62
     7
420
 16777215
176
     1
 90
        1
176
     1
 90
        2
176
     1
 62
     7
176
     1
 62
   257
176
     1
 90
        2
176
     1
 90
        1
176
     1
 40
1.0
176
     1
 90
        8
176
     1
 62
   257
176
     1
 40
1.0
176
     1
 90
        1
176
     1
 90
        6
176
     1
 90
        2
176
     1
 62
     7
176
     1
 90
        3
176
     1
 90
        0
176
     1
 90
        0
176
     1
290
     0
176
     1
 90
        5
176
     1
 40
0.0
176
     1
 90
        0
176
     1
290
     0
176
     1
290
     1
176
     1
290
     1
176
     1
290
     0
176
     1
290
     0
176
     1
290
     0
176
     1
290
     0
176
     1
290
     0
176
     1
290
     0
176
     1
 90
       50
176
     1
 40
0.0
176
     1
 40
1.0
176
     1
 90
        0
176
     1
 62
    18
420
        0
176
     1
 90
       50
176
     1
 90
        3
176
     1
 62
     5
420
      255
176
     1
290
     0
176
     1
 90
       50
176
     1
 90
       50
176
     1
 90
       50
176
     1
290
     0
176
     1
 90
       50
176
     1
 62
   256
176
     0
 40
1.0
176
     0
 90
        2
176
     1
  1
strokes_ogs.tif
176
     1
290
     0
176
     1
 40
1.0
176
     1
 40
1.0
176
     1
  0
VISUALSTYLE
  5
3A
102
{ACAD_REACTORS
330
29
102
}
330
29
100
AcDbVisualStyle
  2
Shades of Gray
 70
    23
177
     3
291
     0
 70
    58
 90
        2
176
     1
 90
        2
176
     1
 90
        3
176
     1
 90
        0
176
     1
 40
0.6
176
     1
 40
30.0
176
     1
 62
     7
420
 16777215
176
     1
 90
        2
176
     1
 90
        2
176
     1
 62
     7
176
     1
 62
     7
176
     1
 90
        1
176
     1
 90
        1
176
     1
 40
40.0
176
     1
 90
        8
176
     1
 62
     7
176
     1
 40
1.0
176
     1
 90
        1
176
     1
 90
        6
176
     1
 90
        2
176
     1
 62
     7
176
     1
 90
        3
176
     1
 90
        0
176
     1
 90
        0
176
     1
290
     0
176
     1
 90
        1
176
     1
 40
0.0
176
     1
 90
        0
176
     1
290
     0
176
     1
290
     1
176
     1
290
     1
176
     1
290
     0
176
     1
290
     0
176
     1
290
     0
176
     1
290
     0
176
     1
290
     0
176
     1
290
     0
176
     1
 90
       50
176
     1
 40
0.0
176
     1
 40
1.0
176
     1
 90
        0
176
     1
 62
    18
420
        0
176
     1
 90
       50
176
     1
 90
        3
176
     1
 62
     5
420
      255
176
     1
290
     0
176
     1
 90
       50
176
     1
 90
       50
176
     1
 90
       50
176
     1
290
     0
176
     1
 90
       50
176
     1
 62
   256
176
     0
 40
1.0
176
     0
 90
        2
176
     1
  1
strokes_ogs.tif
176
     1
290
     0
176
     1
 40
1.0
176
     1
 40
1.0
176
     1
  0
VISUALSTYLE
  5
3B
102
{ACAD_REACTORS
330
29
102
}
330
29
100
AcDbVisualStyle
  2
Sketchy
 70
    24
177
     3
291
     0
 70
    58
 90
        1
176
     1
 90
        2
176
     1
 90
        2
176
     1
 90
        0
176
     1
 40
0.6
176
     1
 40
30.0
176
     1
 62
     7
420
 16777215
176
     1
 90
        2
176
     1
 90
        2
176
     1
 62
     7
176
     1
 62
     7
176
     1
 90
        1
176
     1
 90
        1
176
     1
 40
40.0
176
     1
 90
       11
176
     1
 62
     7
176
     1
 40
1.0
176
     1
 90
        1
176
     1
 90
        6
176
     1
 90
        2
176
     1
 62
     7
176
     1
 90
        6
176
     1
 90
        0
176
     1
 90
        0
176
     1
290
     0
176
     1
 90
        1
176
     1
 40
0.0
176
     1
 90
        0
176
     1
290
     0
176
     1
290
     1
176
     1
290
     1
176
     1
290
     0
176
     1
290
     0
176
     1
290
     0
176
     1
290
     0
176
     1
290
     0
176
     1
290
     0
176
     1
 90
       50
176
     1
 40
0.0
176
     1
 40
1.0
176
     1
 90
        0
176
     1
 62
    18
420
        0
176
     1
 90
       50
176
     1
 90
        3
176
     1
 62
     5
420
      255
176
     1
290
     0
176
     1
 90
       50
176
     1
 90
       50
176
     1
 90
       50
176
     1
290
     0
176
     1
 90
       50
176
     1
 62
   256
176
     0
 40
1.0
176
     0
 90
        2
176
     1
  1
strokes_ogs.tif
176
     1
290
     0
176
     1
 40
1.0
176
     1
 40
1.0
176
     1
  0
VISUALSTYLE
  5
36
102
{ACAD_REACTORS
330
29
102
}
330
29
100
AcDbVisualStyle
  2
Thicken
 70
    13
177
     3
291
     1
 70
    58
 90
        2
176
     1
 90
        2
176
     1
 90
        0
176
     1
 90
        0
176
     1
 40
0.6
176
     1
 40
30.0
176
     1
 62
     7
420
 16777215
176
     1
 90
        1
176
     1
 90
        4
176
     1
 62
     7
176
     1
 62
   257
176
     1
 90
        1
176
     1
 90
        1
176
     1
 40
1.0
176
     1
 90
       12
176
     1
 62
     7
176
     1
 40
1.0
176
     1
 90
        1
176
     1
 90
        6
176
     1
 90
        2
176
     1
 62
     7
176
     1
 90
        5
176
     1
 90
        0
176
     1
 90
        0
176
     1
290
     0
176
     1
 90
        1
176
     1
 40
0.0
176
     1
 90
        0
176
     1
290
     0
176
     1
290
     1
176
     1
290
     1
176
     1
290
     0
176
     1
290
     0
176
     1
290
     0
176
     1
290
     0
176
     1
290
     0
176
     1
290
     0
176
     1
 90
       50
176
     1
 40
0.0
176
     1
 40
1.0
176
     1
 90
        0
176
     1
 62
    18
420
        0
176
     1
 90
       50
176
     1
 90
        3
176
     1
 62
     5
420
      255
176
     1
290
     0
176
     1
 90
       50
176
     1
 90
       50
176
     1
 90
       50
176
     1
290
     0
176
     1
 90
       50
176
     1
 62
   256
176
     0
 40
1.0
176
     0
 90
        2
176
     1
  1
strokes_ogs.tif
176
     1
290
     0
176
     1
 40
1.0
176
     1
 40
1.0
176
     1
  0
VISUALSTYLE
  5
30
102
{ACAD_REACTORS
330
29
102
}
330
29
100
AcDbVisualStyle
  2
Wireframe
 70
     5
177
     3
291
     0
 70
    58
 90
        0
176
     1
 90
        2
176
     1
 90
        0
176
     1
 90
        0
176
     1
 40
0.6
176
     1
 40
30.0
176
     1
 62
     7
420
 16777215
176
     1
 90
        1
176
     1
 90
        4
176
     1
 62
     7
176
     1
 62
   257
176
     1
 90
        1
176
     1
 90
        1
176
     1
 40
1.0
176
     1
 90
        0
176
     1
 62
   257
176
     1
 40
1.0
176
     1
 90
        1
176
     1
 90
        6
176
     1
 90
        2
176
     1
 62
     7
176
     1
 90
        3
176
     1
 90
        0
176
     1
 90
        0
176
     1
290
     0
176
     1
 90
        1
176
     1
 40
0.0
176
     1
 90
        0
176
     1
290
     0
176
     1
290
     1
176
     1
290
     1
176
     1
290
     0
176
     1
290
     0
176
     1
290
     0
176
     1
290
     0
176
     1
290
     0
176
     1
290
     0
176
     1
 90
       50
176
     1
 40
0.0
176
     1
 40
1.0
176
     1
 90
        0
176
     1
 62
    18
420
        0
176
     1
 90
       50
176
     1
 90
        3
176
     1
 62
     5
420
      255
176
     1
290
     0
176
     1
 90
       50
176
     1
 90
       50
176
     1
 90
       50
176
     1
290
     0
176
     1
 90
       50
176
     1
 62
   256
176
     0
 40
1.0
176
     0
 90
        2
176
     1
  1
strokes_ogs.tif
176
     1
290
     0
176
     1
 40
1.0
176
     1
 40
1.0
176
     1
  0
VISUALSTYLE
  5
3C
102
{ACAD_REACTORS
330
29
102
}
330
29
100
AcDbVisualStyle
  2
X-Ray
 70
    25
177
     3
291
     0
 70
    58
 90
        2
176
     1
 90
        2
176
     1
 90
        1
176
     1
 90
        1
176
     1
 40
0.5
176
     1
 40
30.0
176
     1
 62
     7
420
 16777215
176
     1
 90
        1
176
     1
 90
        0
176
     1
 62
     7
176
     1
 62
   257
176
     1
 90
        1
176
     1
 90
        1
176
     1
 40
1.0
176
     1
 90
        8
176
     1
 62
     7
176
     1
 40
1.0
176
     1
 90
        1
176
     1
 90
        6
176
     1
 90
        2
176
     1
 62
     7
176
     1
 90
        3
176
     1
 90
        0
176
     1
 90
        0
176
     1
290
     0
176
     1
 90
       13
176
     1
 40
0.0
176
     1
 90
        0
176
     1
290
     0
176
     1
290
     1
176
     1
290
     1
176
     1
290
     0
176
     1
290
     0
176
     1
290
     0
176
     1
290
     0
176
     1
290
     0
176
     1
290
     0
176
     1
 90
       50
176
     1
 40
0.0
176
     1
 40
1.0
176
     1
 90
        0
176
     1
 62
    18
420
        0
176
     1
 90
       50
176
     1
 90
        3
176
     1
 62
     5
420
      255
176
     1
290
     0
176
     1
 90
       50
176
     1
 90
       50
176
     1
 90
       50
176
     1
290
     0
176
     1
 90
       50
176
     1
 62
   256
176
     0
 40
1.0
176
     0
 90
        2
176
     1
  1
strokes_ogs.tif
176
     1
290
     0
176
     1
 40
1.0
176
     1
 40
1.0
176
     1
  0
DICTIONARYVAR
  5
80
102
{ACAD_REACTORS
330
7B
102
}
330
7B
100
DictionaryVariables
280
     0
  1
1:1
  0
DICTIONARYVAR
  5
7D
102
{ACAD_REACTORS
330
7B
102
}
330
7B
100
DictionaryVariables
280
     0
  1
STANDARD
  0
DICTIONARYVAR
  5
7C
102
{ACAD_REACTORS
330
7B
102
}
330
7B
100
DictionaryVariables
280
     0
  1
STANDARD
  0
DICTIONARYVAR
  5
7E
102
{ACAD_REACTORS
330
7B
102
}
330
7B
100
DictionaryVariables
280
     0
  1
Imperial24
  0
DICTIONARYVAR
  5
7F
102
{ACAD_REACTORS
330
7B
102
}
330
7B
100
DictionaryVariables
280
     0
  1
Imperial24
  0
XRECORD
  5
1BB
102
{ACAD_REACTORS
330
1B6
102
}
330
1B6
100
AcDbXrecord
280
     1
  1
BUILDING_ID
  1
threshold
  1
FLOOR_ID
  1
356
  0
XRECORD
  5
1B9
102
{ACAD_REACTORS
330
1B6
102
}
330
1B6
100
AcDbXrecord
280
     1
  1
-2000051
  1
Lines
  0
XRECORD
  5
1B7
102
{ACAD_REACTORS
330
1B6
102
}
330
1B6
100
AcDbXrecord
280
     1
  1
c3f44ddf-bc4d-4132-9bae-b78dc28394c2
  0
XRECORD
  5
1BA
102
{ACAD_REACTORS
330
1B6
102
}
330
1B6
100
AcDbXrecord
280
     1
  1
151248
  1
Ballons
  1
151250
  1
INERTIA
  1
151252
  1
GLASS
  1
151256
  1
SEAL
  1
151258
  1
TEXT
  1
151260
  1
THRESHOLD
  1
151262
  1
VENT
  1
151264
  1
I-Strut
  0
DICTIONARY
  5
1A
330
19
100
AcDbDictionary
280
     1
281
     1
  3
BUMPTILE
360
1C
  3
DIFFUSETILE
360
1B
  3
OPACITYTILE
360
1F
  3
REFLECTIONTILE
360
1E
  3
REFRACTIONTILE
360
20
  3
SPECULARTILE
360
1D
  0
DICTIONARY
  5
12
330
11
100
AcDbDictionary
280
     1
281
     1
  3
BUMPTILE
360
14
  3
DIFFUSETILE
360
13
  3
OPACITYTILE
360
17
  3
REFLECTIONTILE
360
16
  3
REFRACTIONTILE
360
18
  3
SPECULARTILE
360
15
  0
DICTIONARY
  5
22
330
21
100
AcDbDictionary
280
     1
281
     1
  3
BUMPTILE
360
24
  3
DIFFUSETILE
360
23
  3
OPACITYTILE
360
27
  3
REFLECTIONTILE
360
26
  3
REFRACTIONTILE
360
28
  3
SPECULARTILE
360
25
  0
DICTIONARY
  5
1BE
330
65
100
AcDbDictionary
280
     1
281
     1
  3
ACAD_ROUNDTRIP_2008_TABLESTYLE_CELLSTYLEMAP
360
1BF
  0
XRECORD
  5
1C
102
{ACAD_REACTORS
330
1A
102
}
330
1A
100
AcDbXrecord
280
     1
270
     1
271
     1
  0
XRECORD
  5
1B
102
{ACAD_REACTORS
330
1A
102
}
330
1A
100
AcDbXrecord
280
     1
270
     1
271
     1
  0
XRECORD
  5
1F
102
{ACAD_REACTORS
330
1A
102
}
330
1A
100
AcDbXrecord
280
     1
270
     1
271
     1
  0
XRECORD
  5
1E
102
{ACAD_REACTORS
330
1A
102
}
330
1A
100
AcDbXrecord
280
     1
270
     1
271
     1
  0
XRECORD
  5
20
102
{ACAD_REACTORS
330
1A
102
}
330
1A
100
AcDbXrecord
280
     1
270
     1
271
     1
  0
XRECORD
  5
1D
102
{ACAD_REACTORS
330
1A
102
}
330
1A
100
AcDbXrecord
280
     1
270
     1
271
     1
  0
XRECORD
  5
14
102
{ACAD_REACTORS
330
12
102
}
330
12
100
AcDbXrecord
280
     1
270
     1
271
     1
  0
XRECORD
  5
13
102
{ACAD_REACTORS
330
12
102
}
330
12
100
AcDbXrecord
280
     1
270
     1
271
     1
  0
XRECORD
  5
17
102
{ACAD_REACTORS
330
12
102
}
330
12
100
AcDbXrecord
280
     1
270
     1
271
     1
  0
XRECORD
  5
16
102
{ACAD_REACTORS
330
12
102
}
330
12
100
AcDbXrecord
280
     1
270
     1
271
     1
  0
XRECORD
  5
18
102
{ACAD_REACTORS
330
12
102
}
330
12
100
AcDbXrecord
280
     1
270
     1
271
     1
  0
XRECORD
  5
15
102
{ACAD_REACTORS
330
12
102
}
330
12
100
AcDbXrecord
280
     1
270
     1
271
     1
  0
XRECORD
  5
24
102
{ACAD_REACTORS
330
22
102
}
330
22
100
AcDbXrecord
280
     1
270
     1
271
     1
  0
XRECORD
  5
23
102
{ACAD_REACTORS
330
22
102
}
330
22
100
AcDbXrecord
280
     1
270
     1
271
     1
  0
XRECORD
  5
27
102
{ACAD_REACTORS
330
22
102
}
330
22
100
AcDbXrecord
280
     1
270
     1
271
     1
  0
XRECORD
  5
26
102
{ACAD_REACTORS
330
22
102
}
330
22
100
AcDbXrecord
280
     1
270
     1
271
     1
  0
XRECORD
  5
28
102
{ACAD_REACTORS
330
22
102
}
330
22
100
AcDbXrecord
280
     1
270
     1
271
     1
  0
XRECORD
  5
25
102
{ACAD_REACTORS
330
22
102
}
330
22
100
AcDbXrecord
280
     1
270
     1
271
     1
  0
CELLSTYLEMAP
  5
1BF
102
{ACAD_REACTORS
330
1BE
102
}
330
1BE
100
AcDbCellStyleMap
 90
        3
300
CELLSTYLE
  1
TABLEFORMAT_BEGIN
 90
        5
170
     1
 91
        0
 92
    32768
 62
   257
 93
        1
300
CONTENTFORMAT
  1
CONTENTFORMAT_BEGIN
 90
        0
 91
        0
 92
      512
 93
        0
300

 40
0.0
140
1.0
 94
        5
 62
     0
340
55
144
0.25
309
CONTENTFORMAT_END
171
     0
 94
        0
309
TABLEFORMAT_END
  1
CELLSTYLE_BEGIN
 90
        1
 91
        1
300
_TITLE
309
CELLSTYLE_END
300
CELLSTYLE
  1
TABLEFORMAT_BEGIN
 90
        5
170
     1
 91
        0
 92
        0
 62
   257
 93
        1
300
CONTENTFORMAT
  1
CONTENTFORMAT_BEGIN
 90
        0
 91
        0
 92
      512
 93
        0
300

 40
0.0
140
1.0
 94
        5
 62
     0
340
55
144
0.18
309
CONTENTFORMAT_END
171
     0
 94
        0
309
TABLEFORMAT_END
  1
CELLSTYLE_BEGIN
 90
        2
 91
        1
300
_HEADER
309
CELLSTYLE_END
300
CELLSTYLE
  1
TABLEFORMAT_BEGIN
 90
        5
170
     1
 91
        0
 92
        0
 62
   257
 93
        1
300
CONTENTFORMAT
  1
CONTENTFORMAT_BEGIN
 90
        0
 91
        0
 92
      512
 93
        0
300

 40
0.0
140
1.0
 94
        2
 62
     0
340
55
144
0.18
309
CONTENTFORMAT_END
171
     0
 94
        0
309
TABLEFORMAT_END
  1
CELLSTYLE_BEGIN
 90
        3
 91
        2
300
_DATA
309
CELLSTYLE_END
  0
ENDSEC
  0
EOF
